<?xml version="1.0" encoding="UTF-8"?>
<svg version="1.1" xmlns="http://www.w3.org/2000/svg" width="240" height="240">
<path d="M0 0 C56.1 0 112.2 0 170 0 C170 13.5 170 13.5 169.46850586 19.44134521 C169.38275126 20.42452677 169.38275126 20.42452677 169.29526424 21.42757058 C169.10677114 23.57425887 168.9108604 25.72019769 168.71484375 27.86621094 C168.57646059 29.42457117 168.43854471 30.98297296 168.30105591 32.54141235 C167.9297559 36.73521457 167.55199342 40.92841151 167.17299271 45.12152386 C166.77679993 49.51738297 166.38665746 53.9137791 165.99584961 58.31011963 C165.25635399 66.61868874 164.51148512 74.92676683 163.76464367 83.23467851 C162.91402879 92.69994074 162.06946771 102.16574013 161.2253933 111.63158751 C159.49029041 131.08832665 157.74765589 150.54438459 156 170 C151.30009434 171.79684643 146.63338784 173.48327046 141.80273438 174.90112305 C140.64793579 175.24124924 139.49313721 175.58137543 138.30334473 175.93180847 C137.07917847 176.28817886 135.85501221 176.64454926 134.59375 177.01171875 C133.9601506 177.19652109 133.32655121 177.38132343 132.67375183 177.57172585 C129.32632993 178.54787014 125.97784589 179.52026423 122.62841797 180.48950195 C119.18959699 181.48540292 115.75468489 182.49415017 112.32048798 183.50586224 C109.65782327 184.28772525 106.99244002 185.05998167 104.32624817 185.82972145 C102.44772941 186.37468545 100.5721494 186.92974718 98.69665527 187.48503113 C86.22386827 191.05653952 78.00812254 189.47573033 65.81640625 185.87890625 C64.35074138 185.45448089 62.88483021 185.03090527 61.41868591 184.60813904 C58.36159406 183.72429986 55.30662291 182.83359761 52.25317383 181.93725586 C48.33275593 180.78650831 44.40890688 179.64805208 40.48362827 178.51400852 C36.73914131 177.43158807 32.9964838 176.34290647 29.25390625 175.25390625 C28.1798714 174.94232669 28.1798714 174.94232669 27.08413887 174.62445259 C25.07010981 174.03900327 23.05744816 173.44908772 21.04516602 172.85766602 C19.89903336 172.52235367 18.7529007 172.18704132 17.57203674 171.84156799 C15 171 15 171 14 170 C13.73188561 167.99354405 13.5278609 165.9785103 13.34825134 163.96220398 C13.22907852 162.64873489 13.1099057 161.33526581 12.98712158 159.98199463 C12.85842886 158.51233712 12.72983101 157.04267131 12.60131836 155.57299805 C12.46361559 154.03565676 12.32552983 152.49834974 12.18708801 150.96107483 C11.81097068 146.77075314 11.44064416 142.57993799 11.07159877 138.38898826 C10.76277822 134.88807245 10.45112348 131.38741141 10.13945013 127.88674861 C9.40327201 119.61780851 8.67171199 111.34846874 7.94311523 103.07885742 C7.19296357 94.56536744 6.43575467 86.05252697 5.67487997 77.53998917 C5.02131242 70.22553341 4.37188827 62.91071793 3.72579104 55.59559852 C3.340176 51.22991119 2.95310563 46.86436631 2.56217766 42.49915123 C2.19379186 38.3833205 1.83063566 34.26705962 1.47132683 30.15042686 C1.33931514 28.64756343 1.20554777 27.1448529 1.06979752 25.64232254 C0.88318309 23.57348765 0.70323876 21.50416708 0.52476501 19.43461609 C0.42282302 18.28183009 0.32088102 17.12904409 0.21584988 15.94132519 C-0.07475453 10.63501467 0 5.31426215 0 0 Z " fill="#0277BD" transform="translate(35,25)"/>
<path d="M0 0 C30.03 0 60.06 0 91 0 C91 11.1697565 90.98533298 22.01205945 90.16015625 33.09375 C90.07374374 34.33137085 89.98733124 35.5689917 89.89830017 36.84411621 C89.62589907 40.72987977 89.344657 44.61493389 89.0625 48.5 C88.69661539 53.63523394 88.33429783 58.7707157 87.97265625 63.90625 C87.88601715 65.12795898 87.79937805 66.34966797 87.71011353 67.60839844 C87.02279298 77.40045341 86.45971533 87.19478628 86 97 C78.23582479 100.20340096 70.37892963 103.08029623 62.4375 105.8125 C60.68663086 106.44188477 60.68663086 106.44188477 58.90039062 107.08398438 C57.75634766 107.47521484 56.61230469 107.86644531 55.43359375 108.26953125 C53.90303345 108.80477417 53.90303345 108.80477417 52.34155273 109.35083008 C45.16161923 110.74568967 38.48164297 108.79166455 31.68359375 106.49609375 C30.94166275 106.2533522 30.19973175 106.01061066 29.43531799 105.76051331 C27.09991823 104.99436558 24.76874357 104.21619089 22.4375 103.4375 C20.84076014 102.91130348 19.24375684 102.38590569 17.64648438 101.86132812 C13.76122101 100.58341746 9.87969406 99.29471551 6 98 C5.83258929 95.30349858 5.66757613 92.60688521 5.50390625 89.91015625 C5.45673462 89.15432251 5.40956299 88.39848877 5.36096191 87.61975098 C5.00664719 81.73622001 4.91696744 75.89531165 5 70 C11.6 70 18.2 70 25 70 C25 74.29 25 78.58 25 83 C26.299375 83.268125 27.59875 83.53625 28.9375 83.8125 C33.01956291 84.70464897 36.85913902 85.92946532 40.76171875 87.4140625 C47.055836 89.06173717 52.02333209 87.20074336 57.875 85 C60.55625 84.01 63.2375 83.02 66 82 C66.66 74.74 67.32 67.48 68 60 C53.48 60 38.96 60 24 60 C23 51 23 51 23 40 C38.18 40 53.36 40 69 40 C69.33 33.4 69.66 26.8 70 20 C47.23 20 24.46 20 1 20 C0.67 13.4 0.34 6.8 0 0 Z " fill="#FCFEFE" transform="translate(74,65)"/>
<path d="M0 0 C22.44 0 44.88 0 68 0 C67.41401669 13.47761618 66.82731609 26.84274116 65.69775391 40.26855469 C65.49462753 42.68901862 65.29968473 45.11005621 65.10546875 47.53125 C64.97702757 49.0963924 64.84813977 50.66149823 64.71875 52.2265625 C64.661427 52.93793365 64.604104 53.64930481 64.54504395 54.38223267 C64.31570195 57.07390845 64.06015145 59.71033142 63.51048279 62.35734558 C62.96025138 65.20576963 62.68805902 67.98962676 62.45922852 70.8815918 C62.36565567 72.04438156 62.27208282 73.20717133 62.17567444 74.40519714 C62.02877419 76.28323784 62.02877419 76.28323784 61.87890625 78.19921875 C61.71862542 80.19343202 61.55834129 82.18764503 61.3978796 84.18184376 C61.11693972 87.68353234 60.83986999 91.18552715 60.5625 94.6875 C57.85630255 128.84302223 57.85630255 128.84302223 56 144 C55.36312256 144.17539307 54.72624512 144.35078613 54.07006836 144.53149414 C51.02501165 145.37206376 47.9810686 146.21655747 44.9375 147.0625 C43.81674072 147.37396973 42.69598145 147.68543945 41.54125977 148.00634766 C32.84912623 150.44031585 24.21266737 153.02820528 15.61499023 155.77758789 C14.28769897 156.1931897 14.28769897 156.1931897 12.93359375 156.6171875 C12.17103271 156.86065918 11.40847168 157.10413086 10.62280273 157.35498047 C7.14333789 158.21067684 3.5554705 158.55556619 0 159 C-0.33 151.08 -0.66 143.16 -1 135 C12.2 130.71 25.4 126.42 39 122 C41.14149073 89.67368762 43.13252166 57.34313549 45 25 C30.15 25 15.3 25 0 25 C0 16.75 0 8.5 0 0 Z " fill="#039BE4" transform="translate(120,40)"/>
<path d="M0 0 C6.6 0 13.2 0 20 0 C20 4.29 20 8.58 20 13 C21.216875 13.2475 22.43375 13.495 23.6875 13.75 C29.90851309 15.12140544 35.92844024 17.08266534 42 19 C41.67 25.93 41.34 32.86 41 40 C34.74023631 38.74804726 29.37696401 37.62349214 23.4609375 35.6171875 C22.48333969 35.28849167 22.48333969 35.28849167 21.48599243 34.95315552 C19.44700785 34.26615404 17.41100474 33.57077617 15.375 32.875 C13.97545075 32.40178045 12.57571233 31.92912003 11.17578125 31.45703125 C7.78165132 30.31111799 4.39013552 29.15768504 1 28 C0.38629804 18.65200414 -0.1320261 9.37385343 0 0 Z " fill="#E9EBED" transform="translate(79,135)"/>
<path d="M0 0 C15.18 0 30.36 0 46 0 C46 6.6 46 13.2 46 20 C31.15 20 16.3 20 1 20 C0.67 13.4 0.34 6.8 0 0 Z " fill="#EDEDED" transform="translate(74,65)"/>
<path d="M0 0 C7.26 0 14.52 0 22 0 C22 12.375 22 12.375 21.5 17.1875 C21.36078125 18.57001953 21.36078125 18.57001953 21.21875 19.98046875 C21.1465625 20.64691406 21.074375 21.31335938 21 22 C17.67083939 23.34394393 14.33700016 24.6756429 11 26 C9.84177734 26.46212891 9.84177734 26.46212891 8.66015625 26.93359375 C5.63421191 28.11128903 3.27669121 29 0 29 C0 19.43 0 9.86 0 0 Z " fill="#069CE5" transform="translate(120,125)"/>
<path d="M0 0 C7.92 0 15.84 0 24 0 C24 12 24 12 23 20 C15.41 20 7.82 20 0 20 C0 13.4 0 6.8 0 0 Z " fill="#039BE5" transform="translate(120,85)"/>
<path d="M0 0 C7.59 0 15.18 0 23 0 C23 6.6 23 13.2 23 20 C15.74 20 8.48 20 1 20 C0 11 0 11 0 0 Z " fill="#ECEDED" transform="translate(97,105)"/>
</svg>
