<?xml version="1.0" encoding="UTF-8"?>
<svg version="1.1" xmlns="http://www.w3.org/2000/svg" width="240" height="240">
<path d="M0 0 C8.25 0 16.5 0 25 0 C25 16.5 25 33 25 50 C33.25 50 41.5 50 50 50 C50 58.25 50 66.5 50 75 C52.68125 74.71125 55.3625 74.4225 58.125 74.125 C58.95789551 74.03879395 59.79079102 73.95258789 60.64892578 73.86376953 C64.99905257 73.37281034 68.87829162 72.56703929 73 71 C71.64326228 66.80726816 71.64326228 66.80726816 69.9375 62.75 C67.05704428 54.30066323 67.78428435 46.26743111 71 38 C73.05856593 34.42178516 75.35543659 31.16746572 78 28 C78.72703125 27.08927734 78.72703125 27.08927734 79.46875 26.16015625 C81 25 81 25 83 25.12109375 C89.13326854 27.81637778 92.51119828 35.12898055 95 41 C95.96070434 43.88211302 96.10581883 45.69850044 96.0625 48.6875 C96.05347656 49.49574219 96.04445312 50.30398437 96.03515625 51.13671875 C96.01775391 52.05904297 96.01775391 52.05904297 96 53 C96.763125 52.525625 97.52625 52.05125 98.3125 51.5625 C106.04310318 47.74267254 114.96287349 48.70367814 123 51 C123.66 51.33 124.32 51.66 125 52 C124.4377058 60.62184443 120.96071956 67.55587638 114.625 73.4375 C106.30346769 80.17916693 99.44492046 80.39114127 89 80 C88.855625 81.093125 88.71125 82.18625 88.5625 83.3125 C88 87 88 87 87 90 C94.67591725 89.78162398 101.37582635 89.52273957 108.23046875 85.83984375 C110 85 110 85 113 85 C113 85.66 113 86.32 113 87 C116.96 87.99 120.92 88.98 125 90 C125 91.65 125 93.3 125 95 C111.47 95.33 97.94 95.66 84 96 C81.69 100.29 79.38 104.58 77 109 C60.23470585 133.27214227 37.71712672 148.57632098 8.53515625 154.12109375 C0.83544122 155.33034968 -6.8518782 155.39811454 -14.625 155.375 C-15.37634216 155.3737915 -16.12768433 155.37258301 -16.90179443 155.37133789 C-40.06053549 155.27024301 -59.75617025 150.30754846 -77.03515625 134.08984375 C-92.65302315 117.99050118 -96.22497222 96.59733334 -96 75 C-89.07 75 -82.14 75 -75 75 C-75 66.75 -75 58.5 -75 50 C-66.75 50 -58.5 50 -50 50 C-50 41.75 -50 33.5 -50 25 C-33.5 25 -17 25 0 25 C0 16.75 0 8.5 0 0 Z " fill="#0288D1" transform="translate(105,45)"/>
<path d="M0 0 C8.25 0 16.5 0 25 0 C25 16.5 25 33 25 50 C33.25 50 41.5 50 50 50 C50 58.25 50 66.5 50 75 C8.75 75 -32.5 75 -75 75 C-75 66.75 -75 58.5 -75 50 C-66.75 50 -58.5 50 -50 50 C-50 41.75 -50 33.5 -50 25 C-33.5 25 -17 25 0 25 C0 16.75 0 8.5 0 0 Z " fill="#016FB6" transform="translate(105,45)"/>
<path d="M0 0 C6.13326854 2.69528403 9.51119828 10.0078868 12 15.87890625 C12.96070434 18.76101927 13.10581883 20.57740669 13.0625 23.56640625 C13.05347656 24.37464844 13.04445312 25.18289062 13.03515625 26.015625 C13.01775391 26.93794922 13.01775391 26.93794922 13 27.87890625 C13.763125 27.40453125 14.52625 26.93015625 15.3125 26.44140625 C23.04310318 22.62157879 31.96287349 23.58258439 40 25.87890625 C40.66 26.20890625 41.32 26.53890625 42 26.87890625 C41.4377058 35.50075068 37.96071956 42.43478263 31.625 48.31640625 C23.30346769 55.05807318 16.44492046 55.27004752 6 54.87890625 C5.8453125 56.51859375 5.8453125 56.51859375 5.6875 58.19140625 C4.98885988 61.9386578 4.68602762 62.53853366 2 64.87890625 C1.48050781 64.65074219 0.96101562 64.42257813 0.42578125 64.1875 C-5.16197066 61.88359456 -5.16197066 61.88359456 -11 62.87890625 C-12.175625 63.38421875 -13.35125 63.88953125 -14.5625 64.41015625 C-19.24903137 66.16494513 -23.53751261 66.32559547 -28.5 66.25390625 C-29.30308594 66.26550781 -30.10617188 66.27710938 -30.93359375 66.2890625 C-36.62261927 66.26140111 -40.76459071 65.08270033 -46 62.87890625 C-49.25731286 61.79027801 -49.69221734 61.7378392 -53 63.25390625 C-53.99 63.79015625 -54.98 64.32640625 -56 64.87890625 C-64.68671291 67.86061549 -76.81162175 66.75948551 -85 62.87890625 C-85.65871094 62.47800781 -86.31742187 62.07710937 -86.99609375 61.6640625 C-88.97095038 60.6417009 -88.97095038 60.6417009 -90.89453125 61.5234375 C-91.52746094 61.90886719 -92.16039063 62.29429687 -92.8125 62.69140625 C-100.60989149 66.93284448 -111.55429623 67.46955187 -120.0625 64.984375 C-122.42932067 64.03293999 -124.72421325 63.02964267 -127 61.87890625 C-127 61.21890625 -127 60.55890625 -127 59.87890625 C-127.54269531 60.15605469 -128.08539063 60.43320313 -128.64453125 60.71875 C-129.71767578 61.26208984 -129.71767578 61.26208984 -130.8125 61.81640625 C-131.87404297 62.35587891 -131.87404297 62.35587891 -132.95703125 62.90625 C-139.52383732 66.0327026 -148.59918705 66.0053048 -155.625 64.20703125 C-157.43691534 63.47951979 -159.2213494 62.68433294 -161 61.87890625 C-165.00634591 61.60814727 -165.00634591 61.60814727 -168.375 63.37890625 C-171.95848361 64.86172705 -174.18367245 65.15814973 -178 64.87890625 C-179.44207941 61.99474742 -179.09394887 59.46169097 -179.0625 56.25390625 C-179.05347656 55.06539062 -179.04445312 53.876875 -179.03515625 52.65234375 C-179.02355469 51.73710938 -179.01195312 50.821875 -179 49.87890625 C-177.84015862 49.87255834 -177.84015862 49.87255834 -176.6568861 49.86608219 C-157.80952991 49.76260649 -138.96221008 49.65394408 -120.1149168 49.53956699 C-111.0003705 49.48437827 -101.88582029 49.43092055 -92.77124023 49.3815918 C-84.8234646 49.33857342 -76.87571611 49.29225223 -68.92798263 49.2420277 C-64.72293431 49.2155682 -60.51789089 49.19072002 -56.3128109 49.16983223 C-52.34757616 49.1500835 -48.38239241 49.1258886 -44.4172039 49.09841537 C-42.96891975 49.08914051 -41.5206245 49.08143204 -40.07232285 49.07548714 C-24.75027891 49.36134662 -24.75027891 49.36134662 -10 45.87890625 C-11.35673772 41.68617441 -11.35673772 41.68617441 -13.0625 37.62890625 C-15.94295572 29.17956948 -15.21571565 21.14633736 -12 12.87890625 C-9.94143407 9.30069141 -7.64456341 6.04637197 -5 2.87890625 C-4.27296875 1.96818359 -4.27296875 1.96818359 -3.53125 1.0390625 C-2 -0.12109375 -2 -0.12109375 0 0 Z " fill="#03A8F3" transform="translate(188,70.12109375)"/>
<path d="M0 0 C0.845625 0.433125 1.69125 0.86625 2.5625 1.3125 C10.00708266 4.22793627 18.77811724 4.79154306 26.46875 2.4140625 C28.84276565 1.36236132 28.84276565 1.36236132 30.92578125 0.1875 C32.5625 -0.6875 32.5625 -0.6875 34.5625 -0.6875 C34.5625 -0.0275 34.5625 0.6325 34.5625 1.3125 C45.21082872 5.35069238 56.63399991 5.73021445 67.5625 2.3125 C68.51125 1.735 69.46 1.1575 70.4375 0.5625 C71.489375 -0.05625 71.489375 -0.05625 72.5625 -0.6875 C74.4609375 0.1328125 74.4609375 0.1328125 76.5625 1.3125 C85.55732632 5.57526552 97.37469978 6.0469759 106.8125 2.875 C108.06368132 2.35701093 109.31378882 1.83641578 110.5625 1.3125 C112.640625 0.62890625 112.640625 0.62890625 114.5625 0.3125 C117.0625 1.6875 117.0625 1.6875 119.5625 3.3125 C128.0837843 5.95192333 140.31311085 5.81980735 148.4375 2.25 C149.48550781 1.67572266 149.48550781 1.67572266 150.5546875 1.08984375 C154.19224518 -0.31847138 157.40758628 1.26461758 161 2.375 C169.72764991 4.54038284 178.82983 4.57255537 186.79296875 0.1875 C188.5625 -0.6875 188.5625 -0.6875 191.5625 -0.6875 C191.5625 -0.0275 191.5625 0.6325 191.5625 1.3125 C197.5025 2.7975 197.5025 2.7975 203.5625 4.3125 C203.5625 5.9625 203.5625 7.6125 203.5625 9.3125 C130.9625 9.3125 58.3625 9.3125 -16.4375 9.3125 C-16.4375 7.6625 -16.4375 6.0125 -16.4375 4.3125 C-15.54998047 4.14814453 -15.54998047 4.14814453 -14.64453125 3.98046875 C-9.4202821 2.93542204 -9.4202821 2.93542204 -4.6875 0.5625 C-2.4375 -0.6875 -2.4375 -0.6875 0 0 Z " fill="#364851" transform="translate(26.4375,130.6875)"/>
<path d="M0 0 C16.5 0 33 0 50 0 C50 8.25 50 16.5 50 25 C33.5 25 17 25 0 25 C0 16.75 0 8.5 0 0 Z " fill="#0288D1" transform="translate(30,95)"/>
<path d="M0 0 C0.20753906 0.556875 0.41507813 1.11375 0.62890625 1.6875 C4.36196124 10.93423036 10.02481917 17.52147542 19 22 C22.30392016 23.29904008 22.30392016 23.29904008 25 24 C25 24.33 25 24.66 25 25 C-0.00690867 25.7900117 -21.61769467 23.70864187 -41.59375 7.34765625 C-42.0578125 6.90292969 -42.521875 6.45820313 -43 6 C-43 5.67 -43 5.34 -43 5 C-42.07272095 4.93268677 -42.07272095 4.93268677 -41.12670898 4.86401367 C-29.91831975 4.02871562 -18.9260841 3.12021623 -7.9609375 0.5859375 C-5.21234224 0.04202023 -2.79095695 -0.11412835 0 0 Z " fill="#7BD0F7" transform="translate(73,175)"/>
<path d="M0 0 C8.25 0 16.5 0 25 0 C25 8.25 25 16.5 25 25 C16.75 25 8.5 25 0 25 C0 16.75 0 8.5 0 0 Z " fill="#01579B" transform="translate(130,95)"/>
<path d="M0 0 C8.25 0 16.5 0 25 0 C25 8.25 25 16.5 25 25 C16.75 25 8.5 25 0 25 C0 16.75 0 8.5 0 0 Z " fill="#0288D1" transform="translate(105,95)"/>
<path d="M0 0 C8.25 0 16.5 0 25 0 C25 8.25 25 16.5 25 25 C16.75 25 8.5 25 0 25 C0 16.75 0 8.5 0 0 Z " fill="#01579B" transform="translate(80,95)"/>
<path d="M0 0 C8.25 0 16.5 0 25 0 C25 8.25 25 16.5 25 25 C16.75 25 8.5 25 0 25 C0 16.75 0 8.5 0 0 Z " fill="#01579B" transform="translate(30,95)"/>
<path d="M0 0 C8.25 0 16.5 0 25 0 C25 8.25 25 16.5 25 25 C16.75 25 8.5 25 0 25 C0 16.75 0 8.5 0 0 Z " fill="#01579B" transform="translate(55,70)"/>
<path d="M0 0 C8.25 0 16.5 0 25 0 C25 8.25 25 16.5 25 25 C16.75 25 8.5 25 0 25 C0 16.75 0 8.5 0 0 Z " fill="#0288D1" transform="translate(105,45)"/>
<path d="M0 0 C0.625 2.8125 0.625 2.8125 1 6 C-1 9 -1 9 -2.92016602 9.69189453 C-3.69030029 9.83739746 -4.46043457 9.98290039 -5.25390625 10.1328125 C-6.10919922 10.29910156 -6.96449219 10.46539062 -7.84570312 10.63671875 C-8.74224609 10.79785156 -9.63878906 10.95898438 -10.5625 11.125 C-11.43197266 11.29386719 -12.30144531 11.46273437 -13.19726562 11.63671875 C-40.55637283 16.81883152 -40.55637283 16.81883152 -47.296875 12.54296875 C-49.88810836 9.61240722 -51 7.97048848 -51 4 C-50.16452637 3.95512451 -49.32905273 3.91024902 -48.46826172 3.86401367 C-45.29548667 3.68823484 -42.1234853 3.50240974 -38.95166016 3.31030273 C-36.93304519 3.19093249 -34.9137866 3.08260684 -32.89453125 2.97460938 C-25.07891347 2.49335212 -17.77306219 1.48787338 -10.18798828 -0.4831543 C-6.55055006 -1.0728661 -3.60356329 -0.68088769 0 0 Z " fill="#364A55" transform="translate(74,166)"/>
<path d="M0 0 C3.67123639 0.01977327 4.15668193 0.29756585 7.1875 2.8125 C8.2084375 4.0809375 8.2084375 4.0809375 9.25 5.375 C9.58 5.705 9.91 6.035 10.25 6.375 C10.96194379 13.49443794 10.96194379 13.49443794 7.875 17.3125 C3.81128027 20.50542265 1.45217933 20.90403519 -3.75 20.375 C-6.625 17.9375 -6.625 17.9375 -8.75 15.375 C-9.08 15.045 -9.41 14.715 -9.75 14.375 C-10.04322866 11.44271337 -10.25004247 9.23008117 -9.75 6.375 C-7.3125 3.4375 -7.3125 3.4375 -4.75 1.375 C-3.75 0.375 -3.75 0.375 0 0 Z " fill="#EEF6FA" transform="translate(89.75,149.625)"/>
<path d="M0 0 C1.32278481 5.41139241 1.32278481 5.41139241 -0.0625 7.9375 C-2.91093248 9.49954362 -4.93504903 8.74921024 -8 8 C-9.32278481 2.58860759 -9.32278481 2.58860759 -7.9375 0.0625 C-5.08906752 -1.49954362 -3.06495097 -0.74921024 0 0 Z " fill="#415058" transform="translate(94,156)"/>
</svg>
