<?xml version="1.0" encoding="UTF-8"?>
<svg version="1.1" xmlns="http://www.w3.org/2000/svg" width="240" height="240">
<path d="M0 0 C1.2671006 -0.01007584 1.2671006 -0.01007584 2.55979919 -0.02035522 C5.34095205 -0.03928858 8.12186295 -0.04325713 10.90307617 -0.04541016 C12.84592283 -0.05184156 14.78876852 -0.05857018 16.73161316 -0.06558228 C20.80091598 -0.07754356 24.87013397 -0.0812643 28.93945312 -0.08007812 C34.13783103 -0.07987506 39.3356615 -0.1071697 44.5339098 -0.14162254 C48.54638639 -0.16392901 52.55873204 -0.16791451 56.57126427 -0.16685867 C58.48690361 -0.16920927 60.40254686 -0.17800212 62.31812477 -0.19352341 C65.00543482 -0.21325851 67.69157481 -0.20731612 70.37890625 -0.1953125 C71.15998749 -0.20655151 71.94106873 -0.21779053 72.74581909 -0.22937012 C81.78251118 -0.1274969 89.89920431 4.09613692 96.38354492 10.29052734 C104.8417872 20.51367845 106.23398851 29.35889602 105.57885742 42.22949219 C105.17274558 46.51498736 103.74444184 49.74918197 101.38354492 53.29052734 C100.97104492 53.97115234 100.55854492 54.65177734 100.13354492 55.35302734 C95.33031918 62.55786596 87.88128656 68.27790432 79.38354492 70.29052734 C79.94041992 70.50966797 80.49729492 70.72880859 81.07104492 70.95458984 C91.95692585 75.47811469 99.84630093 81.95442233 104.55541992 93.05224609 C106.77822458 101.74425108 107.11355399 113.45106678 102.63354492 121.41552734 C102.22104492 122.03427734 101.80854492 122.65302734 101.38354492 123.29052734 C100.97104492 123.97115234 100.55854492 124.65177734 100.13354492 125.35302734 C94.93685921 133.1480559 87.5013678 138.25366912 78.38354492 140.29052734 C69.34895442 141.26884412 60.18865493 141.39816579 52.38354492 136.29052734 C51.70163086 135.87802734 51.0197168 135.46552734 50.31713867 135.04052734 C43.99315245 130.81653654 38.80225616 124.54666105 36.38354492 117.29052734 C36.37989929 118.10992294 36.37625366 118.92931854 36.37249756 119.77354431 C36.33450269 127.52641094 36.27752087 135.27880312 36.19964218 143.03136349 C36.16026956 147.01628615 36.12803149 151.00099122 36.11254883 154.98608398 C36.09731423 158.83782401 36.06275028 162.68896544 36.0152359 166.5404377 C36.00049169 168.00384862 35.99250793 169.46734505 35.99166107 170.93083 C35.97768363 182.98277152 33.90368816 192.35255192 25.38354492 201.29052734 C15.40175761 209.67192892 5.95147383 211.17099623 -6.66967773 210.48583984 C-10.88432147 210.06300125 -14.11342985 208.58289559 -17.61645508 206.29052734 C-18.63932617 205.67177734 -18.63932617 205.67177734 -19.68286133 205.04052734 C-26.99251179 200.15818016 -32.43316175 192.82802816 -34.61645508 184.29052734 C-35.61143055 175.04955286 -35.9207465 165.24696448 -30.61645508 157.29052734 C-30.20395508 156.60990234 -29.79145508 155.92927734 -29.36645508 155.22802734 C-25.14163889 148.89080305 -18.88955208 143.18243556 -11.30395508 141.59912109 C-9.97364258 141.44636719 -9.97364258 141.44636719 -8.61645508 141.29052734 C-8.61645508 140.63052734 -8.61645508 139.97052734 -8.61645508 139.29052734 C-9.94870117 139.13583984 -9.94870117 139.13583984 -11.30786133 138.97802734 C-19.36949926 137.3028818 -25.2658738 131.11056747 -30.14379883 124.79443359 C-33.8686117 118.46126369 -35.15211691 112.66218862 -35.05395508 105.35302734 C-35.04638184 104.56105957 -35.03880859 103.7690918 -35.03100586 102.953125 C-34.86227028 96.9759442 -33.97996834 92.33579724 -30.61645508 87.29052734 C-30.20395508 86.60990234 -29.79145508 85.92927734 -29.36645508 85.22802734 C-25.14163889 78.89080305 -18.88955208 73.18243556 -11.30395508 71.59912109 C-9.97364258 71.44636719 -9.97364258 71.44636719 -8.61645508 71.29052734 C-8.61645508 70.63052734 -8.61645508 69.97052734 -8.61645508 69.29052734 C-9.50461914 69.18740234 -10.3927832 69.08427734 -11.30786133 68.97802734 C-19.36949926 67.3028818 -25.2658738 61.11056747 -30.14379883 54.79443359 C-33.8686117 48.46126369 -35.15211691 42.66218862 -35.05395508 35.35302734 C-35.04638184 34.56105957 -35.03880859 33.7690918 -35.03100586 32.953125 C-34.86227028 26.9759442 -33.97996834 22.33579724 -30.61645508 17.29052734 C-30.20395508 16.60990234 -29.79145508 15.92927734 -29.36645508 15.22802734 C-22.38314991 4.75306959 -12.28456216 -0.01414512 0 0 Z M35.38354492 70.29052734 C35.38354492 78.87052734 35.38354492 87.45052734 35.38354492 96.29052734 C36.91516148 93.99310251 38.00481081 92.01582145 39.13354492 89.54052734 C43.4785735 80.83449582 49.7915691 75.38751828 58.88354492 71.97802734 C59.70854492 71.75115234 60.53354492 71.52427734 61.38354492 71.29052734 C61.38354492 70.96052734 61.38354492 70.63052734 61.38354492 70.29052734 C52.80354492 70.29052734 44.22354492 70.29052734 35.38354492 70.29052734 Z " fill="#7B4CFF" transform="translate(89.616455078125,14.70947265625)"/>
<path d="M0 0 C1.2671006 -0.01007584 1.2671006 -0.01007584 2.55979919 -0.02035522 C5.34095205 -0.03928858 8.12186295 -0.04325713 10.90307617 -0.04541016 C12.84592283 -0.05184156 14.78876852 -0.05857018 16.73161316 -0.06558228 C20.80091598 -0.07754356 24.87013397 -0.0812643 28.93945312 -0.08007812 C34.13783103 -0.07987506 39.3356615 -0.1071697 44.5339098 -0.14162254 C48.54638639 -0.16392901 52.55873204 -0.16791451 56.57126427 -0.16685867 C58.48690361 -0.16920927 60.40254686 -0.17800212 62.31812477 -0.19352341 C65.00543482 -0.21325851 67.69157481 -0.20731612 70.37890625 -0.1953125 C71.15998749 -0.20655151 71.94106873 -0.21779053 72.74581909 -0.22937012 C81.78251118 -0.1274969 89.89920431 4.09613692 96.38354492 10.29052734 C104.8417872 20.51367845 106.23398851 29.35889602 105.57885742 42.22949219 C105.17274558 46.51498736 103.74444184 49.74918197 101.38354492 53.29052734 C100.97104492 53.97115234 100.55854492 54.65177734 100.13354492 55.35302734 C94.88623767 63.22398823 87.51801188 68.10260478 78.38354492 70.29052734 C75.50129056 70.56478084 72.6392494 70.58444259 69.74536133 70.58105469 C68.91023514 70.58777191 68.07510895 70.59448914 67.2146759 70.60140991 C64.47142483 70.62030857 61.72841942 70.62430982 58.98510742 70.62646484 C57.06611025 70.63289787 55.14711405 70.6396266 53.2281189 70.64663696 C49.21187059 70.65858899 45.19570818 70.66231987 41.17944336 70.66113281 C36.04947268 70.66092962 30.92005592 70.68824182 25.79021645 70.72267723 C21.82835389 70.74498324 17.86662395 70.74896924 13.90470505 70.74791336 C12.01418523 70.75026335 10.12366142 70.75905274 8.23320389 70.77457809 C-10.64821064 70.9151413 -10.64821064 70.9151413 -17.61645508 66.29052734 C-18.32957855 65.8451059 -19.04270203 65.39968445 -19.7774353 64.94076538 C-27.08066617 60.19877759 -32.46225408 52.71426617 -34.61645508 44.29052734 C-35.61143055 35.04955286 -35.9207465 25.24696448 -30.61645508 17.29052734 C-30.20395508 16.60990234 -29.79145508 15.92927734 -29.36645508 15.22802734 C-22.38314991 4.75306959 -12.28456216 -0.01414512 0 0 Z " fill="#E64918" transform="translate(89.616455078125,14.70947265625)"/>
<path d="M0 0 C10.6115625 -0.12375 10.6115625 -0.12375 21.4375 -0.25 C24.76026001 -0.30462402 24.76026001 -0.30462402 28.15014648 -0.36035156 C29.93211909 -0.37204855 31.71410249 -0.38223797 33.49609375 -0.390625 C34.40008911 -0.41108887 35.30408447 -0.43155273 36.23547363 -0.45263672 C45.86850463 -0.45785575 54.03771213 3.34903395 61 10 C69.45824228 20.2231511 70.85044359 29.06836868 70.1953125 41.93896484 C69.78920066 46.22446002 68.36089691 49.45865463 66 53 C65.5875 53.680625 65.175 54.36125 64.75 55.0625 C60.07516739 62.07474892 53.25532099 67.35361788 45.08882141 69.59225464 C41.0563072 70.37941574 37.0038196 70.24223657 32.91015625 70.1953125 C32.07190308 70.19329834 31.2336499 70.19128418 30.36999512 70.18920898 C27.26744031 70.17882081 24.1649641 70.15089875 21.0625 70.125 C14.111875 70.08375 7.16125 70.0425 0 70 C0 46.9 0 23.8 0 0 Z " fill="#FF6F42" transform="translate(125,15)"/>
<path d="M0 0 C0.96813629 0.0028299 1.93627258 0.00565979 2.93374634 0.00857544 C6.01064678 0.01972554 9.08725078 0.0448207 12.1640625 0.0703125 C14.2565062 0.08034898 16.34895448 0.08947366 18.44140625 0.09765625 C23.55740501 0.11964797 28.67318358 0.15414225 33.7890625 0.1953125 C33.88846552 6.29674612 33.96078297 12.39770097 34.00878906 18.49975586 C34.02881647 20.57243061 34.05604661 22.6450495 34.09082031 24.7175293 C34.1397305 27.70896246 34.16212043 30.69964405 34.1796875 33.69140625 C34.20033264 34.60740097 34.22097778 35.52339569 34.24224854 36.46714783 C34.24555151 46.09029575 30.42191729 54.23717912 23.7890625 61.1953125 C13.80727519 69.57671408 4.35699141 71.07578138 -8.26416016 70.390625 C-12.47880389 69.9677864 -15.70791227 68.48768075 -19.2109375 66.1953125 C-19.89285156 65.7828125 -20.57476562 65.3703125 -21.27734375 64.9453125 C-28.58699422 60.06296532 -34.02764417 52.73281331 -36.2109375 44.1953125 C-37.20591298 34.95433802 -37.51522893 25.15174964 -32.2109375 17.1953125 C-31.7984375 16.5146875 -31.3859375 15.8340625 -30.9609375 15.1328125 C-23.46104336 3.88297129 -13.00642327 -0.14413614 0 0 Z " fill="#65BB69" transform="translate(91.2109375,154.8046875)"/>
<path d="M0 0 C0.928125 0.61875 0.928125 0.61875 1.875 1.25 C2.555625 1.6625 3.23625 2.075 3.9375 2.5 C11.25126094 7.37584063 16.69207996 14.7139589 18.875 23.25 C19.86997548 32.49097448 20.17929143 42.29356286 14.875 50.25 C14.4625 50.930625 14.05 51.61125 13.625 52.3125 C8.42831429 60.10752856 0.99282288 65.21314178 -8.125 67.25 C-17.1595905 68.22831677 -26.31989 68.35763845 -34.125 63.25 C-34.80691406 62.8375 -35.48882812 62.425 -36.19140625 62 C-43.50105672 57.11765282 -48.94170667 49.78750081 -51.125 41.25 C-52.11997548 32.00902552 -52.42929143 22.20643714 -47.125 14.25 C-46.7125 13.569375 -46.3 12.88875 -45.875 12.1875 C-36.49418961 -1.88371559 -15.3537909 -8.63650738 0 0 Z " fill="#28B6F6" transform="translate(176.125,87.75)"/>
</svg>
