<?xml version="1.0" encoding="UTF-8"?>
<svg version="1.1" xmlns="http://www.w3.org/2000/svg" width="240" height="240">
<path d="M0 0 C0.82242188 -0.02835938 1.64484375 -0.05671875 2.4921875 -0.0859375 C9.45874626 1.13372709 14.53515259 7.50035787 19.30175781 12.29296875 C20.09921417 13.08692047 20.89667053 13.88087219 21.71829224 14.69888306 C24.343278 17.31509203 26.96091078 19.9385182 29.578125 22.5625 C31.4029261 24.38595356 33.22802398 26.20911016 35.05340576 28.03198242 C38.87285075 31.84848186 42.688756 35.66847023 46.50195312 39.49121094 C50.90737341 43.90752966 55.3199733 48.31657643 59.73634076 52.72194576 C63.99209822 56.96752998 68.24220607 61.21871867 72.48995209 65.47232056 C74.29542925 67.27913296 76.10239624 69.08445788 77.91086578 70.88827515 C80.43405082 73.40639093 82.95075214 75.93081192 85.46582031 78.45703125 C86.21596405 79.20312653 86.96610779 79.9492218 87.73898315 80.71792603 C88.42302216 81.40760468 89.10706116 82.09728333 89.81182861 82.80786133 C90.70441816 83.70158195 90.70441816 83.70158195 91.61503983 84.61335754 C94.50153455 87.98097726 95.43143748 90.84828596 95.5 95.25 C95.52835938 96.07242188 95.55671875 96.89484375 95.5859375 97.7421875 C94.36627291 104.70874626 87.99964213 109.78515259 83.20703125 114.55175781 C82.41307953 115.34921417 81.61912781 116.14667053 80.80111694 116.96829224 C78.18490797 119.593278 75.5614818 122.21091078 72.9375 124.828125 C71.11404644 126.6529261 69.29088984 128.47802398 67.46801758 130.30340576 C63.65151814 134.12285075 59.83152977 137.938756 56.00878906 141.75195312 C51.59247034 146.15737341 47.18342357 150.5699733 42.77805424 154.98634076 C38.53247002 159.24209822 34.28128133 163.49220607 30.02767944 167.73995209 C28.22086704 169.54542925 26.41554212 171.35239624 24.61172485 173.16086578 C22.09360907 175.68405082 19.56918808 178.20075214 17.04296875 180.71582031 C16.29687347 181.46596405 15.5507782 182.21610779 14.78207397 182.98898315 C14.09239532 183.67302216 13.40271667 184.35706116 12.69213867 185.06182861 C11.79841805 185.95441816 11.79841805 185.95441816 10.88664246 186.86503983 C7.51902274 189.75153455 4.65171404 190.68143748 0.25 190.75 C-0.57242188 190.77835938 -1.39484375 190.80671875 -2.2421875 190.8359375 C-9.20874626 189.61627291 -14.28515259 183.24964213 -19.05175781 178.45703125 C-19.84921417 177.66307953 -20.64667053 176.86912781 -21.46829224 176.05111694 C-24.093278 173.43490797 -26.71091078 170.8114818 -29.328125 168.1875 C-31.1529261 166.36404644 -32.97802398 164.54088984 -34.80340576 162.71801758 C-38.62285075 158.90151814 -42.438756 155.08152977 -46.25195312 151.25878906 C-50.65737341 146.84247034 -55.0699733 142.43342357 -59.48634076 138.02805424 C-63.74209822 133.78247002 -67.99220607 129.53128133 -72.23995209 125.27767944 C-74.04542925 123.47086704 -75.85239624 121.66554212 -77.66086578 119.86172485 C-80.18405082 117.34360907 -82.70075214 114.81918808 -85.21582031 112.29296875 C-85.96596405 111.54687347 -86.71610779 110.8007782 -87.48898315 110.03207397 C-88.17302216 109.34239532 -88.85706116 108.65271667 -89.56182861 107.94213867 C-90.15688831 107.34632492 -90.75194801 106.75051117 -91.36503983 106.13664246 C-94.25153455 102.76902274 -95.18143748 99.90171404 -95.25 95.5 C-95.27835938 94.67757812 -95.30671875 93.85515625 -95.3359375 93.0078125 C-94.28519967 87.00614048 -89.47528605 82.68900337 -85.28027344 78.55322266 C-84.73348938 78.00614655 -84.18670532 77.45907043 -83.62335205 76.89541626 C-81.83173045 75.10517757 -80.0331509 73.32211012 -78.234375 71.5390625 C-76.98412101 70.29254233 -75.73431058 69.04557713 -74.48492432 67.79818726 C-71.20798272 64.528853 -67.92507796 61.26557176 -64.64086914 58.00354004 C-61.28558308 54.66877498 -57.93600716 51.32828516 -54.5859375 47.98828125 C-48.02118201 41.44492451 -41.45010874 34.90795202 -34.875 28.375 C-29.59735062 30.90158563 -25.83226323 34.73337838 -21.625 38.75 C-20.78453125 39.49894531 -19.9440625 40.24789062 -19.078125 41.01953125 C-13.10197676 46.77254409 -13.10197676 46.77254409 -12.43554688 51.47753906 C-12.515625 54.6640625 -12.515625 54.6640625 -12.86035156 57.60009766 C-12.87901538 61.13564722 -12.04979865 62.61280896 -9.875 65.375 C-9.02615234 65.81076859 -8.17730469 66.24653717 -7.30273438 66.69551086 C-4.875 68.375 -4.875 68.375 -4.22662354 70.74543762 C-4.21661316 71.67998276 -4.20660278 72.61452789 -4.19628906 73.57739258 C-4.16296478 75.16968437 -4.16296478 75.16968437 -4.12896729 76.79414368 C-4.13473785 78.51446053 -4.13473785 78.51446053 -4.140625 80.26953125 C-4.13109802 81.44964279 -4.12157104 82.62975433 -4.11175537 83.84562683 C-4.09957878 86.34472747 -4.10044315 88.84392025 -4.11328125 91.34301758 C-4.12492613 95.16326643 -4.07281667 98.97906538 -4.015625 102.79882812 C-4.01173869 105.22655939 -4.01161552 107.65430019 -4.015625 110.08203125 C-3.98495941 111.79323906 -3.98495941 111.79323906 -3.95367432 113.53901672 C-4.0676584 121.3594645 -4.0676584 121.3594645 -6.45593262 124.36361694 C-8.36621094 125.95581055 -8.36621094 125.95581055 -10.27630615 127.20170593 C-12.195381 128.37328887 -12.195381 128.37328887 -12.875 131.375 C-13.36453225 135.43811767 -13.77576551 139.53983044 -11.93359375 143.29296875 C-9.39270057 146.51886762 -6.87941352 148.55591542 -2.875 149.375 C1.96728853 149.5187414 5.79707474 149.0551837 9.625 145.9375 C12.87560465 142.60563024 13.29353962 141.09033924 13.375 136.5625 C13.31988345 132.30627777 12.96882293 129.70913723 10.125 126.375 C9.27268799 125.91834961 8.42037598 125.46169922 7.54223633 124.99121094 C3.60012858 120.72460891 4.51000633 115.98159717 4.63671875 110.390625 C4.64379349 109.21989441 4.65086823 108.04916382 4.65815735 106.84295654 C4.68615019 103.10298827 4.74890279 99.36451593 4.8125 95.625 C4.83757632 93.08986537 4.86039064 90.55470727 4.88085938 88.01953125 C4.93599316 81.80417693 5.01967023 75.58969533 5.125 69.375 C13.85354404 71.25552491 22.08338807 81.35395833 27.125 88.375 C28.45249529 91.94248248 28.03930594 94.98426893 27.4453125 98.72265625 C26.90750394 101.33426646 26.90750394 101.33426646 27.9921875 103.43359375 C30.53126287 106.56612164 33.19635998 108.57141454 37.125 109.375 C41.96728853 109.5187414 45.79707474 109.0551837 49.625 105.9375 C53.6546562 101.8071024 53.52411092 98.75309058 53.47265625 93.14453125 C52.92155937 88.75433255 51.44666378 87.25377528 48.125 84.375 C44.41084099 82.51425838 42.02934003 82.31706153 37.94921875 82.79296875 C33.02239222 82.87484819 30.67155267 81.82485936 26.89453125 78.67578125 C25.21340739 77.04212442 23.56129586 75.37815048 21.9375 73.6875 C21.08091797 72.89021484 20.22433594 72.09292969 19.34179688 71.27148438 C15.77181637 67.66731411 13.36005901 65.08876269 12.65649414 59.95922852 C12.7109375 56.4609375 12.7109375 56.4609375 13.02880859 53.21630859 C13.13343655 50.12580069 12.84729027 49.05800108 10.9375 46.6875 C7.5946359 43.93892285 5.00408584 42.27869232 0.59082031 42.50488281 C-0.27961914 42.61155273 -1.15005859 42.71822266 -2.046875 42.828125 C-7.11730766 42.92006703 -9.37602989 41.72499712 -13.140625 38.359375 C-14.83102295 36.64260579 -16.49220646 34.89664528 -18.125 33.125 C-18.98996094 32.25230469 -19.85492188 31.37960938 -20.74609375 30.48046875 C-26.88921603 24.08341773 -26.88921603 24.08341773 -26.83422852 21.34326172 C-25.62739282 18.86692947 -24.15270083 17.28087497 -22.19921875 15.3359375 C-21.45349609 14.59085938 -20.70777344 13.84578125 -19.93945312 13.078125 C-19.15505859 12.30984375 -18.37066406 11.5415625 -17.5625 10.75 C-16.40331055 9.58597656 -16.40331055 9.58597656 -15.22070312 8.3984375 C-6.84978547 0.10669448 -6.84978547 0.10669448 0 0 Z " fill="#F4501D" transform="translate(119.875,24.625)"/>
</svg>
