<?xml version="1.0" encoding="UTF-8"?>
<svg version="1.1" xmlns="http://www.w3.org/2000/svg" width="240" height="240">
<path d="M0 0 C59.4 0 118.8 0 180 0 C180 59.4 180 118.8 180 180 C120.6 180 61.2 180 0 180 C0 120.6 0 61.2 0 0 Z " fill="#FED500" transform="translate(30,30)"/>
<path d="M0 0 C2.57549099 2.49918015 4.83917593 5.13742921 7 8 C3.91934573 11.25669165 1.10193497 14.10679924 -3 16 C-6.03536959 15.9051447 -7.02439938 14.97823839 -9.3125 12.9375 C-12.77506765 10.4412303 -14.81703237 10.53522582 -19 11 C-19.99 11.66 -20.98 12.32 -22 13 C-22.5929288 16.28805969 -22.88394815 17.90317486 -22 21 C-19.26924567 23.27562861 -17.16998492 24.48964707 -14 26 C-11.99993831 26.97841711 -10.00298547 27.9628223 -8.0078125 28.95117188 C-6.61507426 29.63606239 -5.21677496 30.30978962 -3.8125 30.97070312 C2.74710608 34.12926831 8.23259748 37.80060532 11.3046875 44.62890625 C13.10697179 50.77489817 13.04548575 57.48162961 10.4375 63.375 C6.4822523 70.00382977 1.17288822 73.63404982 -6.2578125 75.53125 C-16.12437606 77.21784206 -24.45481525 76.04441516 -33.1875 71.25 C-37.43792975 67.8496562 -41.25629925 64.23110225 -43 59 C-39.04 56.36 -35.08 53.72 -31 51 C-29.35 52.65 -27.7 54.3 -26 56 C-21.00982018 60.17782496 -18.63478483 61.44981592 -12 61 C-9.68720389 59.84360194 -7.82590172 58.82590172 -6 57 C-5.49929679 53.62642666 -5.49929679 53.62642666 -6 50 C-10.38752837 45.6381798 -15.99189465 43.57746396 -21.5859375 41.17578125 C-28.32009701 38.15743476 -34.85002857 33.94514945 -38.34375 27.18359375 C-40.11811218 21.27961482 -40.02498094 13.97494493 -38 8.125 C-34.61211724 2.83143319 -30.51162444 -0.88908919 -24.75 -3.4375 C-15.99066026 -4.75140096 -7.55727403 -5.24970944 0 0 Z " fill="#040300" transform="translate(178,114)"/>
<path d="M0 0 C5.61 0 11.22 0 17 0 C17.09077338 7.78067502 17.16398612 15.56105478 17.20724869 23.3421154 C17.22802442 26.95614345 17.25615513 30.56978695 17.30175781 34.18359375 C17.34557814 37.67847537 17.36921218 41.17298976 17.37950897 44.66812515 C17.39037481 46.63441341 17.42154181 48.60055623 17.45318604 50.56661987 C17.45540194 59.51836517 16.36429535 66.83889785 10.625 73.9375 C3.08315091 79.86323857 -4.62757072 81.00542706 -14 80 C-20.83036767 77.84558417 -26.70615998 73.75764911 -31 68 C-31.71849981 66.3550136 -32.39772535 64.69100191 -33 63 C-31.58531689 62.03874097 -30.1681636 61.08111675 -28.75 60.125 C-27.96109375 59.59132812 -27.1721875 59.05765625 -26.359375 58.5078125 C-24.28444308 57.18177985 -22.22385028 56.05071825 -20 55 C-19.401875 55.78375 -18.80375 56.5675 -18.1875 57.375 C-16.05509981 59.93388022 -14.4771782 61.79748363 -11.0625 62.265625 C-10.381875 62.26046875 -9.70125 62.2553125 -9 62.25 C-8.319375 62.25515625 -7.63875 62.2603125 -6.9375 62.265625 C-4.67583993 62.09917603 -4.67583993 62.09917603 -2 60 C-0.96733518 56.90200554 -0.84490475 54.67740727 -0.79467773 51.42700195 C-0.77473251 50.28604568 -0.75478729 49.14508942 -0.73423767 47.96955872 C-0.71752518 46.73823715 -0.70081268 45.50691559 -0.68359375 44.23828125 C-0.66281265 42.97735153 -0.64203156 41.71642181 -0.62062073 40.4172821 C-0.56627878 37.06854542 -0.51603834 33.71979795 -0.46777344 30.37097168 C-0.41749643 26.95233771 -0.36184276 23.53379174 -0.30664062 20.11523438 C-0.19946496 13.4102242 -0.09819188 6.70514752 0 0 Z " fill="#040400" transform="translate(110,110)"/>
</svg>
