<?xml version="1.0" encoding="UTF-8"?>
<svg version="1.1" xmlns="http://www.w3.org/2000/svg" width="270" height="270">
<path d="M0 0 C25.71275994 23.03375683 42.68026698 55.31335237 45 90 C46.91842711 127.86840752 35.95542229 163.25837783 10.41308594 191.77148438 C-13.10461751 217.19974351 -45.70655396 233.36400244 -80.47705078 235.12548828 C-118.37996819 236.51430812 -153.50226507 224.7085639 -181.578125 198.7421875 C-206.79210116 174.70617998 -221.94488875 141.74323101 -223.22265625 106.87109375 C-224.08819287 69.00302451 -211.31041795 34.19415753 -185.01855469 6.61376953 C-135.38175615 -43.94121385 -53.28884493 -45.97166287 0 0 Z " fill="#8F8F8E" transform="translate(224,34)"/>
<path d="M0 0 C0.20044922 0.93231445 0.40089844 1.86462891 0.60742188 2.82519531 C1.57009486 7.30045807 2.53489675 11.7752608 3.5 16.25 C3.676521 17.06901794 3.85304199 17.88803589 4.03491211 18.73187256 C6.09495922 28.28433054 8.1757568 37.83156551 10.3125 47.3671875 C10.58978943 48.6061377 10.58978943 48.6061377 10.87268066 49.87011719 C11.76422064 53.85094684 12.65967883 57.83084144 13.56054688 61.80957031 C13.88421688 63.25062807 14.20778991 64.69170761 14.53125 66.1328125 C14.81548828 67.38980957 15.09972656 68.64680664 15.39257812 69.94189453 C16 73 16 73 16 76 C19.465 75.505 19.465 75.505 23 75 C23.02908357 78.41664873 23.04682691 81.8332655 23.0625 85.25 C23.07087891 86.21808594 23.07925781 87.18617187 23.08789062 88.18359375 C23.09111328 89.11816406 23.09433594 90.05273438 23.09765625 91.015625 C23.10289307 91.87446289 23.10812988 92.73330078 23.11352539 93.61816406 C22.95252382 96.99608099 22.06654747 99.80035758 21 103 C7.59363539 86.73414578 7.59363539 86.73414578 2.5 80.5 C-2.42089407 74.4784993 -7.3666445 68.47756034 -12.3125 62.4765625 C-14.75283017 59.51533558 -17.19019518 56.55170895 -19.625 53.5859375 C-25.92344836 45.91788789 -32.25829176 38.28662426 -38.6953125 30.734375 C-40.84083672 28.18883779 -42.93321782 25.60966966 -45 23 C-43.49965477 18.79333584 -40.50717632 16.95854197 -36.875 14.6875 C-36.25971436 14.29868652 -35.64442871 13.90987305 -35.01049805 13.50927734 C-25.25876139 7.52573028 -11.69202046 0 0 0 Z " fill="#E3AC5C" transform="translate(111,28)"/>
<path d="M0 0 C4.01930722 1.26127034 7.71264323 2.74158381 11.46484375 4.65234375 C12.49971924 5.17562256 13.53459473 5.69890137 14.60083008 6.23803711 C16.25248169 7.07927124 16.25248169 7.07927124 17.9375 7.9375 C20.2934775 9.12657319 22.65026327 10.3140461 25.0078125 11.5 C25.60082657 11.79837265 26.19384064 12.0967453 26.80482483 12.40415955 C32.27516593 15.15047873 37.78453027 17.80954577 43.3125 20.4375 C44.21613281 20.86708008 45.11976562 21.29666016 46.05078125 21.73925781 C46.98019531 22.18108398 47.90960938 22.62291016 48.8671875 23.078125 C56.23920468 26.5829757 63.58792622 30.13590509 70.9375 33.6875 C72.24454508 34.3189341 73.55159254 34.95036327 74.85864258 35.58178711 C77.90597347 37.05408682 80.95306216 38.526887 84 40 C84 40.33 84 40.66 84 41 C68.30897356 44.17183956 52.58646037 46.93561085 36.77816772 49.44494629 C26.54562526 51.06980106 16.34360048 52.75792484 6.19995117 54.88305664 C1.69950953 55.79974921 -2.40449203 56.15762956 -7 56 C-12.65877647 39.0236706 -6.95553249 15.80802839 0 0 Z " fill="#CFB448" transform="translate(48,94)"/>
<path d="M0 0 C9.9 0 19.8 0 30 0 C30.268125 2.743125 30.53625 5.48625 30.8125 8.3125 C33.28811218 31.08488003 42.69825754 49.3015937 57 67 C55.51346494 70.46629835 53.54277649 72.69022036 50.8671875 75.328125 C50.06152344 76.12734375 49.25585938 76.9265625 48.42578125 77.75 C47.58402344 78.575 46.74226563 79.4 45.875 80.25 C45.02550781 81.09046875 44.17601562 81.9309375 43.30078125 82.796875 C41.20495077 84.86915683 39.10459287 86.93662393 37 89 C32.4579874 85.46880133 29.03620315 81.8520942 25.6875 77.1875 C24.98137573 76.20898071 24.98137573 76.20898071 24.26098633 75.21069336 C13.40900351 59.87744341 5.81312655 43.45957292 2 25 C1.79503906 24.02675781 1.59007812 23.05351562 1.37890625 22.05078125 C-0.07130373 14.3996734 0 8.03926541 0 0 Z " fill="#FEFEFE" transform="translate(5,137)"/>
<path d="M0 0 C4.5421112 3.53127533 7.96346636 7.14805983 11.3125 11.8125 C11.78324951 12.46412109 12.25399902 13.11574219 12.73901367 13.78710938 C28.90525387 36.61003671 37.24845275 60.92483929 37 89 C27.43 89 17.86 89 8 89 C7.4121875 84.7925 7.4121875 84.7925 6.8125 80.5 C3.64775856 59.87064001 -3.87803361 42.25363884 -17 26 C-18.00569946 24.67096036 -19.00802892 23.33931742 -20 22 C-18.51346494 18.53370165 -16.54277649 16.30977964 -13.8671875 13.671875 C-12.65869141 12.47304688 -12.65869141 12.47304688 -11.42578125 11.25 C-10.58402344 10.425 -9.74226562 9.6 -8.875 8.75 C-8.02550781 7.90953125 -7.17601562 7.0690625 -6.30078125 6.203125 C-4.20495077 4.13084317 -2.10459287 2.06337607 0 0 Z " fill="#FDFDFD" transform="translate(228,44)"/>
<path d="M0 0 C5.06623768 4.23816537 9.80038069 8.67408963 14.4375 13.375 C15.07365234 14.01566406 15.70980469 14.65632813 16.36523438 15.31640625 C17.91250332 16.87530879 19.45736492 18.43651416 21 20 C19.67042099 23.8208609 18.0214234 26.39569462 15.375 29.4375 C2.75450649 44.87527246 -4.54952243 63.86614572 -5.7890625 83.7578125 C-6 86 -6 86 -7 89 C-16.57 89 -26.14 89 -36 89 C-36.65289689 66.36624132 -30.73275004 46.86617543 -20 27 C-19.27683594 25.64455078 -19.27683594 25.64455078 -18.5390625 24.26171875 C-13.62059644 15.57621944 -7.14607137 6.97478366 0 0 Z " fill="#FDFDFD" transform="translate(41,44)"/>
<path d="M0 0 C30.74606278 0 58.41759423 10.10137215 82.1875 29.75 C82.7652417 30.22219971 83.3429834 30.69439941 83.93823242 31.1809082 C85.35338829 32.38550231 86.68485585 33.6869467 88 35 C88 38 88 38 86.25585938 40.0847168 C85.45986328 40.86500244 84.66386719 41.64528809 83.84375 42.44921875 C82.55791016 43.72055664 82.55791016 43.72055664 81.24609375 45.01757812 C80.33988281 45.89865234 79.43367188 46.77972656 78.5 47.6875 C77.59378906 48.58017578 76.68757813 49.47285156 75.75390625 50.39257812 C73.50914832 52.60189251 71.25770002 54.80392533 69 57 C65.6649426 55.79286643 63.83328771 54.85140861 61.125 52.4375 C43.63839175 36.95693122 22.33203063 32.77755742 0 29 C0 19.43 0 9.86 0 0 Z " fill="#FEFEFE" transform="translate(137,5)"/>
<path d="M0 0 C2.13537824 1.00595544 3.43971795 2.18516164 5.11547852 3.84936523 C22.3334113 19.3773898 44.17990376 25.23343132 66.80297852 26.84936523 C66.80297852 36.74936523 66.80297852 46.64936523 66.80297852 56.84936523 C52.88962277 56.84936523 52.88962277 56.84936523 46.24047852 55.53686523 C45.5121582 55.39861328 44.78383789 55.26036133 44.03344727 55.11791992 C21.09179372 50.65365312 -7.9873135 39.66168318 -22.19702148 19.84936523 C-19.43802064 16.9668554 -16.66292045 14.10096703 -13.87182617 11.24951172 C-12.92453794 10.27706418 -11.98178369 9.30017859 -11.04370117 8.31884766 C-9.69533241 6.90990207 -8.32920255 5.5180215 -6.96264648 4.12670898 C-6.14570312 3.28358154 -5.32875977 2.4404541 -4.48706055 1.57177734 C-2.19702148 -0.15063477 -2.19702148 -0.15063477 0 0 Z " fill="#FEFEFE" transform="translate(66.197021484375,208.150634765625)"/>
<path d="M0 0 C2.69101423 1.39667852 4.0596826 3.43686224 5.74609375 5.90625 C5.74609375 6.56625 5.74609375 7.22625 5.74609375 7.90625 C6.54273438 7.13087891 6.54273438 7.13087891 7.35546875 6.33984375 C8.061875 5.68113281 8.76828125 5.02242187 9.49609375 4.34375 C10.1921875 3.68246094 10.88828125 3.02117187 11.60546875 2.33984375 C13.74609375 0.90625 13.74609375 0.90625 15.65234375 0.84375 C18.82368274 2.4530862 21.0745013 4.92321778 23.49609375 7.46875 C24.00269531 7.98888672 24.50929688 8.50902344 25.03125 9.04492188 C26.2764378 10.32535084 27.51220877 11.61492554 28.74609375 12.90625 C25.21489508 17.4482626 21.59818795 20.87004685 16.93359375 24.21875 C15.95507446 24.92487427 15.95507446 24.92487427 14.95678711 25.64526367 C-7.79599863 41.74836254 -32.35856996 49.90625 -60.25390625 49.90625 C-60.25390625 40.00625 -60.25390625 30.10625 -60.25390625 19.90625 C-57.51078125 19.638125 -54.76765625 19.37 -51.94140625 19.09375 C-44.80276571 18.3221948 -38.0608669 17.27808048 -31.25390625 14.90625 C-30.09632813 14.50664062 -28.93875 14.10703125 -27.74609375 13.6953125 C-20.10704415 10.91090269 -13.43509694 7.46788733 -6.82104492 2.71435547 C-2.77497827 -0.11542371 -2.77497827 -0.11542371 0 0 Z " fill="#FDFDFD" transform="translate(197.25390625,215.09375)"/>
<path d="M0 0 C9.57 0 19.14 0 29 0 C29 32.51101672 17.08074727 63.02274683 -5 87 C-6.485 87.99 -6.485 87.99 -8 89 C-10.03660426 87.09797311 -12.05331336 85.18061509 -14.0625 83.25 C-14.64322266 82.71117187 -15.22394531 82.17234375 -15.82226562 81.6171875 C-17.47265625 80.015625 -17.47265625 80.015625 -20 77 C-19.58033542 73.58134777 -18.2204748 71.77584446 -15.9375 69.25 C-15.38964844 68.63640625 -14.84179688 68.0228125 -14.27734375 67.390625 C-13.85582031 66.93171875 -13.43429688 66.4728125 -13 66 C-13.61359375 65.70351562 -14.2271875 65.40703125 -14.859375 65.1015625 C-17.11432169 63.94117022 -19.00928004 62.56413711 -21 61 C-20.3690278 56.83144597 -18.02622868 53.66878136 -15.8125 50.1875 C-5.98858457 34.05321859 -3.13503461 18.53358697 0 0 Z " fill="#FEFEFE" transform="translate(236,137)"/>
<path d="M0 0 C2.371875 0.020625 4.74375 0.04125 7.1875 0.0625 C7.1875 9.6325 7.1875 19.2025 7.1875 29.0625 C-6.8125 31.0625 -6.8125 31.0625 -11.8125 31.0625 C-13.43239062 27.51898927 -13.91664268 24.93530581 -13.8125 21.0625 C-30.81836967 26.18855142 -47.31255525 32.1010105 -60.8125 44.0625 C-59.39458437 46.99696886 -57.82917393 49.49582409 -55.8125 52.0625 C-57.25157692 55.78011538 -57.25157692 55.78011538 -59.59277344 56.95874023 C-61.8125 57.0625 -61.8125 57.0625 -64.10253906 55.34008789 C-64.91948242 54.49696045 -65.73642578 53.65383301 -66.578125 52.78515625 C-67.46757813 51.87958984 -68.35703125 50.97402344 -69.2734375 50.04101562 C-70.20340005 49.06927357 -71.13308402 48.09726484 -72.0625 47.125 C-73.00665339 46.15577057 -73.95195315 45.18765643 -74.8984375 44.22070312 C-77.21466166 41.84539161 -79.5184714 39.45922271 -81.8125 37.0625 C-78.28122467 32.5203888 -74.66444017 29.09903364 -70 25.75 C-69.34837891 25.27925049 -68.69675781 24.80850098 -68.02539062 24.32348633 C-50.97522223 12.24628371 -33.260557 5.05786184 -12.8125 1.0625 C-11.97589844 0.86398438 -11.13929687 0.66546875 -10.27734375 0.4609375 C-6.85102253 -0.09292108 -3.45865378 -0.0426901 0 0 Z " fill="#FDFDFD" transform="translate(125.8125,4.9375)"/>
<path d="M0 0 C11.43246551 5.35174513 18.43862319 21.61888469 22.875 32.9375 C26.89982803 44.10707309 28 52.989217 28 65 C18.43 65 8.86 65 -1 65 C-1.556875 62.2775 -2.11375 59.555 -2.6875 56.75 C-5.20524589 45.23069141 -8.98807598 35.74426783 -16.0534668 26.27416992 C-19 22.29120536 -19 22.29120536 -19 19 C-17.25585938 16.9152832 -17.25585938 16.9152832 -14.84375 14.55078125 C-13.55791016 13.27944336 -13.55791016 13.27944336 -12.24609375 11.98242188 C-10.88677734 10.66081055 -10.88677734 10.66081055 -9.5 9.3125 C-8.59378906 8.41982422 -7.68757812 7.52714844 -6.75390625 6.60742188 C-4.50914832 4.39810749 -2.25770002 2.19607467 0 0 Z " fill="#FEFEFE" transform="translate(204,68)"/>
<path d="M0 0 C0.59385498 0.39759521 1.18770996 0.79519043 1.79956055 1.20483398 C10.50522433 7.02307647 18.80316565 12.1668149 28.62890625 15.921875 C31 17 31 17 32 19 C36.29 19.33 40.58 19.66 45 20 C45 29.24 45 38.48 45 48 C30.92248895 48 30.92248895 48 24.75 46.4375 C23.6822937 46.17404785 23.6822937 46.17404785 22.59301758 45.90527344 C6.37108427 41.64811154 -7.78649 33.49506823 -20 22 C-18.51346494 18.53370165 -16.54277649 16.30977964 -13.8671875 13.671875 C-12.65869141 12.47304687 -12.65869141 12.47304687 -11.42578125 11.25 C-10.58402344 10.425 -9.74226563 9.6 -8.875 8.75 C-8.02550781 7.90953125 -7.17601563 7.0690625 -6.30078125 6.203125 C-4.20495077 4.13084317 -2.10459287 2.06337607 0 0 Z " fill="#FEFEFE" transform="translate(88,184)"/>
<path d="M0 0 C9.57 0 19.14 0 29 0 C29 18.9192818 23.92663097 41.6017159 10.28515625 55.83203125 C9.15400391 56.90517578 9.15400391 56.90517578 8 58 C7.26680542 57.39526855 7.26680542 57.39526855 6.51879883 56.77832031 C4.28367569 54.93517081 2.04809182 53.09258099 -0.1875 51.25 C-0.95642578 50.61578125 -1.72535156 49.9815625 -2.51757812 49.328125 C-6.32392578 46.19156384 -10.13640388 43.06610033 -14 40 C-12.67041888 36.39015281 -10.978797 33.10215622 -9.13110352 29.73291016 C-4.8142572 21.72253187 -2.67778545 14.34786797 -1.47265625 5.3515625 C-1 2 -1 2 0 0 Z " fill="#FDFDFD" transform="translate(203,137)"/>
<path d="M0 0 C3.16887209 1.36984797 4.97346006 2.83683876 7.12890625 5.51953125 C7.68900391 6.21240234 8.24910156 6.90527344 8.82617188 7.61914062 C9.39916016 8.34294922 9.97214844 9.06675781 10.5625 9.8125 C11.13935547 10.52470703 11.71621094 11.23691406 12.31054688 11.97070312 C15.15371424 15.51564421 17.79665433 19.00888631 20 23 C9.76997717 31.52501902 -2.01458032 36.72844756 -14.6875 40.5 C-15.51725342 40.75523437 -16.34700684 41.01046875 -17.2019043 41.2734375 C-24.62634026 43.34057931 -29.73344815 43 -38 43 C-38 34.09 -38 25.18 -38 16 C-32.555 15.01 -32.555 15.01 -27 14 C-27 13.34 -27 12.68 -27 12 C-26.44054687 11.86464844 -25.88109375 11.72929687 -25.3046875 11.58984375 C-16.32281005 9.17831074 -7.74116454 5.16077636 0 0 Z " fill="#FDFDFD" transform="translate(175,189)"/>
<path d="M0 0 C0.66 0 1.32 0 2 0 C2.33 4.95 2.66 9.9 3 15 C5.38605469 14.566875 5.38605469 14.566875 7.8203125 14.125 C9.92182673 13.7497296 12.02339194 13.37474457 14.125 13 C15.17171875 12.80921875 16.2184375 12.6184375 17.296875 12.421875 C18.82441406 12.15117187 18.82441406 12.15117187 20.3828125 11.875 C21.31496582 11.70742187 22.24711914 11.53984375 23.20751953 11.3671875 C26.1684306 10.9778528 29.01701762 10.93841585 32 11 C32.20302734 11.83917969 32.20302734 11.83917969 32.41015625 12.6953125 C35.54703822 24.37878906 41.06277026 34.88062967 49 44 C44.76183463 49.06623768 40.32591037 53.80038069 35.625 58.4375 C34.66400391 59.39172852 34.66400391 59.39172852 33.68359375 60.36523438 C32.12469121 61.91250332 30.56348584 63.45736492 29 65 C16.61609045 59.2028666 9.6145274 41.58355934 5.125 29.3125 C1.74928722 19.67954967 0.56258685 10.14952606 0 0 Z " fill="#FDFDFD" transform="translate(37,137)"/>
<path d="M0 0 C22.90376368 0 46.21224993 7.78075939 63 24 C63.99 25.98 63.99 25.98 65 28 C58.4 34.6 51.8 41.2 45 48 C43.68 47.01 42.36 46.02 41 45 C42.46818668 41.89257577 44.20025 39.09528261 46.125 36.25 C46.66382813 35.45078125 47.20265625 34.6515625 47.7578125 33.828125 C48.16773438 33.22484375 48.57765625 32.6215625 49 32 C38.36728649 24.30505734 38.36728649 24.30505734 26 21 C24.35 24.96 22.7 28.92 21 33 C16.35282504 32.22547084 11.74048088 31.37213233 7.125 30.4375 C4.77375 29.963125 2.4225 29.48875 0 29 C0 19.43 0 9.86 0 0 Z " fill="#FDFDFD" transform="translate(137,38)"/>
<path d="M0 0 C3.91972307 1.69217313 7.07239492 4.28789543 10.375 6.9375 C11.63530519 7.9389424 12.89572497 8.94024059 14.15625 9.94140625 C14.79691406 10.45203613 15.43757812 10.96266602 16.09765625 11.48876953 C17.8815832 12.90592916 19.67282571 14.31293375 21.46875 15.71484375 C28.41741538 21.13940794 35.2814549 26.65758056 42.10888672 32.23388672 C47.20085032 36.38056919 52.38279483 40.3861304 57.60546875 44.3671875 C64.18665514 49.42963857 70.57700508 54.7395754 77 60 C73.37068427 64.32883834 69.65033216 68.46656422 65.625 72.4375 C64.75101562 73.30246094 63.87703125 74.16742188 62.9765625 75.05859375 C62.32429688 75.69925781 61.67203125 76.33992188 61 77 C52.44182006 68.63838603 45.20460464 59.05113314 37.8515625 49.63671875 C34.93030903 45.90086557 31.96817371 42.19861711 29 38.5 C24.2139601 32.53150858 19.46817698 26.53312724 14.75390625 20.5078125 C12.81661955 18.0335186 10.86386986 15.57230624 8.90234375 13.1171875 C8.14256226 12.16211304 8.14256226 12.16211304 7.36743164 11.18774414 C6.39470402 9.96550942 5.41877843 8.74581091 4.43920898 7.52905273 C2.44892933 5.02126361 1.02157769 3.06473308 0 0 Z " fill="#CD7C47" transform="translate(144,144)"/>
<path d="M0 0 C1.54204311 1.90558962 2.93725545 3.79069578 4.3125 5.8125 C4.71476807 6.4012793 5.11703613 6.99005859 5.53149414 7.59667969 C13.24706179 19.1536945 16 29.00695325 16 43 C6.1 43 -3.8 43 -14 43 C-14.99 37.555 -14.99 37.555 -16 32 C-17.45182982 28.92665967 -17.45182982 28.92665967 -19.25 26.5625 C-20.953125 24.19140625 -20.953125 24.19140625 -22 22 C-20.72858305 18.51363608 -18.52820436 16.27057536 -15.9375 13.671875 C-15.14085937 12.87265625 -14.34421875 12.0734375 -13.5234375 11.25 C-12.27433594 10.0125 -12.27433594 10.0125 -11 8.75 C-10.16726562 7.90953125 -9.33453125 7.0690625 -8.4765625 6.203125 C-7.67992187 5.4090625 -6.88328125 4.615 -6.0625 3.796875 C-5.33160156 3.06823242 -4.60070312 2.33958984 -3.84765625 1.58886719 C-2 0 -2 0 0 0 Z " fill="#FCFCFC" transform="translate(183,91)"/>
<path d="M0 0 C1.73668826 3.1242865 2.56881399 6.04093039 3.2890625 9.53515625 C3.50820312 10.59154297 3.72734375 11.64792969 3.953125 12.73632812 C4.17484375 13.83396484 4.3965625 14.93160156 4.625 16.0625 C4.96917969 17.71475586 4.96917969 17.71475586 5.3203125 19.40039062 C7 27.58386812 7 27.58386812 7 31 C9.31 30.67 11.62 30.34 14 30 C14.02908357 33.41664873 14.04682691 36.8332655 14.0625 40.25 C14.07087891 41.21808594 14.07925781 42.18617187 14.08789062 43.18359375 C14.09111328 44.11816406 14.09433594 45.05273438 14.09765625 46.015625 C14.10289307 46.87446289 14.10812988 47.73330078 14.11352539 48.61816406 C13.95252382 51.99608099 13.06654747 54.80035758 12 58 C-3.60006537 39.07254304 -3.60006537 39.07254304 -8.5546875 32.96875 C-10.57953522 30.51046842 -12.62990044 28.08027664 -14.6953125 25.65625 C-15.34306641 24.88861328 -15.99082031 24.12097656 -16.65820312 23.33007812 C-17.95333344 21.79572811 -19.25655105 20.26816246 -20.56835938 18.74804688 C-21.15681641 18.04744141 -21.74527344 17.34683594 -22.3515625 16.625 C-22.88604004 15.99851562 -23.42051758 15.37203125 -23.97119141 14.7265625 C-24.31069824 14.15679687 -24.65020508 13.58703125 -25 13 C-23.62639352 8.87918055 -20.86795814 7.91126461 -17.25 5.9375 C-16.62867187 5.58623047 -16.00734375 5.23496094 -15.3671875 4.87304688 C-10.18261113 1.97996575 -6.01090028 -0.34348002 0 0 Z " fill="#E3AC5C" transform="translate(120,73)"/>
<path d="M0 0 C5.8100941 1.67932952 11.00868579 4.39208392 16.375 7.125 C17.30183594 7.59292969 18.22867188 8.06085938 19.18359375 8.54296875 C21.45759406 9.69169056 23.72963282 10.84411881 26 12 C25.80881592 12.53874756 25.61763184 13.07749512 25.4206543 13.63256836 C23.49223275 19.21604238 22.03457143 24.78735818 20.8125 30.5625 C20.214375 33.346875 19.61625 36.13125 19 39 C10.09 39 1.18 39 -8 39 C-8 32.93202817 -7.87277625 27.6199051 -6.8125 21.75 C-6.68447998 21.02562744 -6.55645996 20.30125488 -6.42456055 19.55493164 C-5.11137249 12.67938404 -2.82086067 6.41104697 0 0 Z " fill="#E3C85C" transform="translate(48,94)"/>
<path d="M0 0 C6.89488531 1.89859161 13.27729265 4.63984202 19 9 C19.495 10.485 19.495 10.485 20 12 C18.68161727 14.06248165 17.35415617 15.86430751 15.8125 17.75 C15.36124756 18.31855713 14.90999512 18.88711426 14.44506836 19.47290039 C12.97296136 21.32315409 11.4868249 23.1615611 10 25 C9.01467165 26.23231125 8.03029539 27.46538436 7.046875 28.69921875 C5.05273657 31.19900554 3.05348081 33.69456808 1.05078125 36.1875 C-3.68079968 42.08708978 -8.33866654 48.04487123 -13 54 C-12.67 54 -12.34 54 -12 54 C-11.34 53.01 -10.68 52.02 -10 51 C-9.34 51.33 -8.68 51.66 -8 52 C-10.31 54.64 -12.62 57.28 -15 60 C-15.99 59.67 -16.98 59.34 -18 59 C-18.226875 59.53625 -18.45375 60.0725 -18.6875 60.625 C-20.43382056 63.78500863 -22.6402849 66.2676983 -25 69 C-26 67 -26 67 -25.32592773 64.69799805 C-24.94895752 63.72902588 -24.5719873 62.76005371 -24.18359375 61.76171875 C-23.75546387 60.64829102 -23.32733398 59.53486328 -22.88623047 58.38769531 C-22.40814941 57.16663086 -21.93006836 55.94556641 -21.4375 54.6875 C-20.94595319 53.41665961 -20.45524778 52.1454935 -19.96533203 50.87402344 C-19.176428 48.82681371 -18.38692769 46.77985372 -17.59472656 44.73391724 C-15.42556228 39.12753822 -13.2980946 33.50610643 -11.18359375 27.87890625 C-10.86629807 27.03539108 -10.54900238 26.19187592 -10.22209167 25.32279968 C-8.95767819 21.96113891 -7.6934672 18.59940744 -6.43258667 15.23641968 C-5.54872468 12.8806135 -4.66145921 10.52611571 -3.7734375 8.171875 C-3.50724106 7.459673 -3.24104462 6.74747101 -2.96678162 6.01368713 C-1.11386987 1.11386987 -1.11386987 1.11386987 0 0 Z " fill="#C8D45C" transform="translate(164,60)"/>
<path d="M0 0 C9.57 0 19.14 0 29 0 C29 6.51604685 28.88369993 10.90924981 26.9375 16.8125 C26.7206958 17.49248047 26.5038916 18.17246094 26.28051758 18.87304688 C24.06081343 25.45886357 20.81770201 31.19093181 17 37 C13.40139704 35.71789236 10.77504267 34.24103466 7.86328125 31.77734375 C7.12142578 31.15666016 6.37957031 30.53597656 5.61523438 29.89648438 C4.47538086 28.92678711 4.47538086 28.92678711 3.3125 27.9375 C1.7890965 26.65336121 0.26441833 25.3707326 -1.26171875 24.08984375 C-1.93162842 23.52128662 -2.60153809 22.95272949 -3.29174805 22.36694336 C-4.96483978 20.93022662 -4.96483978 20.93022662 -7 20 C-6.17400898 16.22769051 -4.67727561 12.98951526 -3.03515625 9.51171875 C-1.76702828 6.43471389 -0.91429352 3.20002731 0 0 Z " fill="#FDFDFD" transform="translate(170,137)"/>
<path d="M0 0 C2.67097445 2.67097445 2.69245534 4.67922452 3.3671875 8.38671875 C3.54670959 9.35552475 3.54670959 9.35552475 3.7298584 10.34390259 C4.11931989 12.45709998 4.49737818 14.5721576 4.875 16.6875 C5.13957991 18.13901762 5.40471963 19.59043331 5.67041016 21.04174805 C6.33332335 24.67623378 6.98603103 28.31245716 7.63427734 31.94958496 C7.97716275 33.87196353 8.32247914 35.79390806 8.66796875 37.71582031 C9.2419522 40.91385867 9.81063092 44.11275221 10.375 47.3125 C10.54241699 48.25891357 10.70983398 49.20532715 10.88232422 50.18041992 C11.0320166 51.04513916 11.18170898 51.9098584 11.3359375 52.80078125 C11.46532715 53.54497314 11.5947168 54.28916504 11.72802734 55.0559082 C12 57 12 57 12 60 C9.57108818 61.21445591 7.99280557 61.12924198 5.28125 61.1328125 C4.34925781 61.13410156 3.41726562 61.13539063 2.45703125 61.13671875 C1.48121094 61.13285156 0.50539062 61.12898438 -0.5 61.125 C-1.96373047 61.13080078 -1.96373047 61.13080078 -3.45703125 61.13671875 C-4.85501953 61.13478516 -4.85501953 61.13478516 -6.28125 61.1328125 C-7.13783203 61.13168457 -7.99441406 61.13055664 -8.87695312 61.12939453 C-11 61 -11 61 -13 60 C-10.93638069 47.43968205 -8.28826458 35.07588873 -5.375 22.6875 C-4.96313403 20.92001681 -4.5516739 19.15243901 -4.140625 17.38476562 C-1.22088594 4.84987023 -1.22088594 4.84987023 0 0 Z " fill="#49C098" transform="translate(134,142)"/>
<path d="M0 0 C3.53274955 1.39239506 6.92427182 2.90829772 10.3125 4.625 C11.63701172 5.29402344 11.63701172 5.29402344 12.98828125 5.9765625 C13.65214844 6.31429687 14.31601563 6.65203125 15 7 C15.33886781 13.27339888 14.07557925 18.80600996 12.5625 24.875 C12.33240234 25.83664063 12.10230469 26.79828125 11.86523438 27.7890625 C10.14322917 34.85677083 10.14322917 34.85677083 9 36 C-1.96422598 36 -11.8129817 28.75243503 -20 22 C-18.51346494 18.53370165 -16.54277649 16.30977964 -13.8671875 13.671875 C-12.65869141 12.47304687 -12.65869141 12.47304687 -11.42578125 11.25 C-10.58402344 10.425 -9.74226563 9.6 -8.875 8.75 C-8.02550781 7.90953125 -7.17601563 7.0690625 -6.30078125 6.203125 C-4.20495077 4.13084317 -2.10459287 2.06337607 0 0 Z " fill="#FDFDFD" transform="translate(111,161)"/>
<path d="M0 0 C3.46629835 1.48653506 5.69022036 3.45722351 8.328125 6.1328125 C9.12734375 6.93847656 9.9265625 7.74414062 10.75 8.57421875 C11.575 9.41597656 12.4 10.25773437 13.25 11.125 C14.09046875 11.97449219 14.9309375 12.82398437 15.796875 13.69921875 C17.86915683 15.79504923 19.93662393 17.89540713 22 20 C21.60022949 20.59675537 21.20045898 21.19351074 20.78857422 21.80834961 C20.2576416 22.60249268 19.72670898 23.39663574 19.1796875 24.21484375 C18.65616699 24.99722412 18.13264648 25.77960449 17.59326172 26.58569336 C15.32930527 30.01631937 13.15513861 33.50028376 11 37 C5.64751858 34.8986067 0.4572865 32.4974862 -4.75 30.0625 C-5.72066406 29.61970703 -6.69132812 29.17691406 -7.69140625 28.72070312 C-9.07392578 28.07198242 -9.07392578 28.07198242 -10.484375 27.41015625 C-11.32709961 27.01965088 -12.16982422 26.62914551 -13.03808594 26.22680664 C-15 25 -15 25 -16 22 C-14.75340667 19.64166118 -13.47985537 17.51701032 -12 15.3125 C-11.59080322 14.68907715 -11.18160645 14.0656543 -10.76000977 13.42333984 C-7.54267551 8.6070311 -4.02814316 4.17061768 0 0 Z " fill="#FDFDFD" transform="translate(64,68)"/>
<path d="M0 0 C1.90145222 2.12532807 3.61039567 4.22360491 5.3125 6.5 C5.80016846 7.1384082 6.28783691 7.77681641 6.7902832 8.43457031 C7.7590934 9.70525732 8.72394632 10.97897245 9.68457031 12.25585938 C10.79457532 13.72762548 11.92263757 15.18574715 13.0546875 16.640625 C17 21.73744019 17 21.73744019 17 24 C-1.13301663 35 -1.13301663 35 -10 35 C-10.19335938 34.03320312 -10.38671875 33.06640625 -10.5859375 32.0703125 C-10.71121826 31.44423096 -10.83649902 30.81814941 -10.96557617 30.1730957 C-11.23967673 28.80193911 -11.51327284 27.43068158 -11.78637695 26.05932617 C-12.39430974 23.00959593 -13.00797011 19.9618884 -13.64453125 16.91796875 C-13.82371094 16.05816406 -14.00289062 15.19835937 -14.1875 14.3125 C-14.34605469 13.56613281 -14.50460938 12.81976563 -14.66796875 12.05078125 C-15 10 -15 10 -15 6 C-13.06629769 4.99267601 -11.12789694 3.99436712 -9.1875 3 C-8.10855469 2.443125 -7.02960938 1.88625 -5.91796875 1.3125 C-3 0 -3 0 0 0 Z " fill="#FDFDFD" transform="translate(157,163)"/>
<path d="M0 0 C1.76462683 3.08809695 2 4.23312136 2 8 C-0.6226232 9.33819498 -3.24786599 10.6707151 -5.875 12 C-6.62136719 12.3815625 -7.36773437 12.763125 -8.13671875 13.15625 C-8.85214844 13.5171875 -9.56757812 13.878125 -10.3046875 14.25 C-10.96452637 14.58515625 -11.62436523 14.9203125 -12.30419922 15.265625 C-14 16 -14 16 -16 16 C-15.01 18.64 -14.02 21.28 -13 24 C-8.56829827 22.48103632 -4.96975924 20.07360191 -1.1875 17.375 C-0.59001953 16.95476562 0.00746094 16.53453125 0.62304688 16.1015625 C2.08520565 15.07220272 3.54304899 14.0367177 5 13 C5.99 13.66 6.98 14.32 8 15 C6.51770549 18.43605181 4.5704826 20.68701591 1.9375 23.328125 C1.14085938 24.12734375 0.34421875 24.9265625 -0.4765625 25.75 C-1.30929688 26.575 -2.14203125 27.4 -3 28.25 C-3.83273438 29.09046875 -4.66546875 29.9309375 -5.5234375 30.796875 C-6.32007812 31.5909375 -7.11671875 32.385 -7.9375 33.203125 C-8.66839844 33.93176758 -9.39929688 34.66041016 -10.15234375 35.41113281 C-12 37 -12 37 -14 37 C-15.54676526 35.11592443 -16.93882404 33.25581502 -18.3125 31.25 C-18.71404297 30.66524902 -19.11558594 30.08049805 -19.52929688 29.47802734 C-24.49249358 22.03122776 -28.38435916 14.02939906 -29 5 C-8.33333333 0 -8.33333333 0 0 0 Z " fill="#FCFCFC" transform="translate(101,142)"/>
<path d="M0 0 C6.53849968 1.96829667 12.50104568 4.55949024 18.5625 7.6875 C19.38041016 8.10322266 20.19832031 8.51894531 21.04101562 8.94726562 C23.03024551 9.95932995 25.0164154 10.97692847 27 12 C26.69128878 13.79232337 26.37790936 15.58384321 26.0625 17.375 C25.80146484 18.87160156 25.80146484 18.87160156 25.53515625 20.3984375 C25 23 25 23 24 25 C14.43 25 4.86 25 -5 25 C-5 14.85148515 -5 14.85148515 -3.625 10.25 C-3.36976562 9.36828125 -3.11453125 8.4865625 -2.8515625 7.578125 C-2.00120513 5.00364855 -1.0361847 2.50486388 0 0 Z " fill="#E3C85C" transform="translate(76,108)"/>
<path d="M0 0 C0 9.57 0 19.14 0 29 C-3.96 29.66 -7.92 30.32 -12 31 C-18 10.14285714 -18 10.14285714 -18 1 C-11.81546408 0.08377246 -6.38333296 0 0 0 Z " fill="#FDFDFD" transform="translate(133,38)"/>
<path d="M0 0 C10.125 0 10.125 0 14.5625 1.5 C15.40941406 1.7784375 16.25632813 2.056875 17.12890625 2.34375 C17.74636719 2.5603125 18.36382812 2.776875 19 3 C18.34143875 9.12566497 16.07751787 14.64610934 13.9375 20.375 C13.56044922 21.39722656 13.18339844 22.41945313 12.79492188 23.47265625 C11.86801321 25.98352275 10.93464416 28.49200268 10 31 C6.7 30.34 3.4 29.68 0 29 C0 19.43 0 9.86 0 0 Z " fill="#FEFEFE" transform="translate(137,71)"/>
<path d="M0 0 C3.46629835 1.48653506 5.69022036 3.45722351 8.328125 6.1328125 C9.12734375 6.93847656 9.9265625 7.74414062 10.75 8.57421875 C11.575 9.41597656 12.4 10.25773437 13.25 11.125 C14.09046875 11.97449219 14.9309375 12.82398437 15.796875 13.69921875 C17.86915683 15.79504923 19.93662393 17.89540713 22 20 C20.87548273 22.9719385 19.77706209 25.33440687 18 28 C11.46150032 26.03170333 5.49895432 23.44050976 -0.5625 20.3125 C-1.78936523 19.68891602 -1.78936523 19.68891602 -3.04101562 19.05273438 C-5.03024551 18.04067005 -7.0164154 17.02307153 -9 16 C-8.47515308 11.44299575 -6.68492697 8.807126 -3.9375 5.1875 C-3.20402344 4.21167969 -2.47054687 3.23585938 -1.71484375 2.23046875 C-1.14894531 1.49441406 -0.58304688 0.75835937 0 0 Z " fill="#FDFDFD" transform="translate(87,91)"/>
<path d="M0 0 C0.33 0.99 0.66 1.98 1 3 C4.465 2.505 4.465 2.505 8 2 C8.02908357 5.41664873 8.04682691 8.8332655 8.0625 12.25 C8.07087891 13.21808594 8.07925781 14.18617187 8.08789062 15.18359375 C8.09272461 16.58544922 8.09272461 16.58544922 8.09765625 18.015625 C8.10551147 19.30388184 8.10551147 19.30388184 8.11352539 20.61816406 C7.95252382 23.99608099 7.06654747 26.80035758 6 30 C3.74941116 27.27131845 1.49963505 24.54196792 -0.75 21.8125 C-1.38421875 21.04357422 -2.0184375 20.27464844 -2.671875 19.48242188 C-3.90224378 17.9893181 -5.13082148 16.49473624 -6.35742188 14.99853516 C-7.71304019 13.34914581 -9.08140185 11.71023887 -10.453125 10.07421875 C-12 8 -12 8 -12 6 C-8.04 4.02 -4.08 2.04 0 0 Z " fill="#E1AC5D" transform="translate(126,101)"/>
<path d="M0 0 C8.91 0 17.82 0 27 0 C27.33 2.97 27.66 5.94 28 9 C24.81408963 9.67515981 21.62662265 10.34033522 18.4375 11 C17.54224609 11.19078125 16.64699219 11.3815625 15.72460938 11.578125 C10.70738579 12.60729907 6.12100455 13.22479032 1 13 C0 10 0 10 0 0 Z " fill="#E3C85C" transform="translate(40,137)"/>
<path d="M0 0 C8.58 0 17.16 0 26 0 C24.875 10.125 24.875 10.125 21 16 C17.67872768 15.3947494 15.74399914 14.25805318 13.14453125 12.12890625 C12.44005859 11.55462891 11.73558594 10.98035156 11.00976562 10.38867188 C10.28466797 9.78603516 9.55957031 9.18339844 8.8125 8.5625 C8.07580078 7.96373047 7.33910156 7.36496094 6.58007812 6.74804688 C1.13904542 2.27809085 1.13904542 2.27809085 0 0 Z " fill="#FDFDFD" transform="translate(140,137)"/>
<path d="M0 0 C1.65 0.33 3.3 0.66 5 1 C5 10.57 5 20.14 5 30 C1.37 30 -2.26 30 -6 30 C-5.31261551 23.36318424 -3.95828166 16.99207631 -2.4375 10.5 C-2.20353516 9.48679688 -1.96957031 8.47359375 -1.72851562 7.4296875 C-1.15590618 4.95227521 -0.57965985 2.47577035 0 0 Z " fill="#5CD4AC" transform="translate(128,169)"/>
<path d="M0 0 C0 9.57 0 19.14 0 29 C-1.65 29.33 -3.3 29.66 -5 30 C-6.00743388 25.91846379 -7.0046554 21.83449971 -8 17.75 C-8.28617187 16.59113281 -8.57234375 15.43226562 -8.8671875 14.23828125 C-9.13789062 13.12324219 -9.40859375 12.00820312 -9.6875 10.859375 C-9.93886719 9.83295898 -10.19023438 8.80654297 -10.44921875 7.74902344 C-11 5 -11 5 -11 1 C-9 0 -9 0 0 0 Z " fill="#FDFDFD" transform="translate(133,71)"/>
<path d="M0 0 C1.03898437 0.51949219 2.07796875 1.03898437 3.1484375 1.57421875 C3.8199585 1.9098584 4.49147949 2.24549805 5.18334961 2.59130859 C6.64809577 3.32392642 8.11244971 4.05732895 9.57641602 4.79150391 C12.79398808 6.40403753 16.01402713 8.00678623 19.25390625 9.57421875 C20.13949219 10.00347656 21.02507812 10.43273437 21.9375 10.875 C23.09572266 11.42800781 23.09572266 11.42800781 24.27734375 11.9921875 C26 13 26 13 27 15 C21.86956561 13.43395325 17.14202359 11.30016999 12.3125 9 C11.55388672 8.64421875 10.79527344 8.2884375 10.01367188 7.921875 C6.83626985 6.41870864 3.93491897 4.95661265 1 3 C-3.597974 17.73960458 -6.1728751 31.04748584 -6.0625 46.5 C-6.05798828 47.70398438 -6.05347656 48.90796875 -6.04882812 50.1484375 C-6.0371195 53.09901073 -6.02071995 56.04947859 -6 59 C-5.22285645 58.86835449 -4.44571289 58.73670898 -3.64501953 58.60107422 C-0.1401835 58.01404959 3.36724674 57.44432121 6.875 56.875 C8.09832031 56.66746094 9.32164063 56.45992187 10.58203125 56.24609375 C12.33193359 55.96572266 12.33193359 55.96572266 14.1171875 55.6796875 C15.19597168 55.50163574 16.27475586 55.32358398 17.38623047 55.14013672 C18.24877441 55.0938916 19.11131836 55.04764648 20 55 C20.66 55.66 21.32 56.32 22 57 C18.10529437 57.67336904 14.20907067 58.33751584 10.3125 59 C9.20970703 59.19078125 8.10691406 59.3815625 6.97070312 59.578125 C5.90400391 59.75859375 4.83730469 59.9390625 3.73828125 60.125 C2.26935425 60.37636719 2.26935425 60.37636719 0.77075195 60.6328125 C-1.85911357 60.98132935 -4.35123122 61.06764613 -7 61 C-8.00109515 57.68929162 -8.10356134 54.69915231 -8.0625 51.25 C-8.05347656 50.26515625 -8.04445312 49.2803125 -8.03515625 48.265625 C-8.02355469 47.51796875 -8.01195312 46.7703125 -8 46 C-8.66 45.67 -9.32 45.34 -10 45 C-9.34 45 -8.68 45 -8 45 C-8 44.34 -8 43.68 -8 43 C-8.66 43 -9.32 43 -10 43 C-9.75525683 28.11516561 -6.79703599 13.3423299 0 0 Z " fill="#ABA8A0" transform="translate(47,91)"/>
<path d="M0 0 C4.1289971 1.75636444 7.40031868 4.53496812 10.875 7.3125 C11.47441406 7.78623047 12.07382813 8.25996094 12.69140625 8.74804688 C16.50964498 11.77530556 20.26799953 14.86717392 24 18 C22.35 19.98 20.7 21.96 19 24 C15.53370165 22.51346494 13.30977964 20.54277649 10.671875 17.8671875 C9.87265625 17.06152344 9.0734375 16.25585938 8.25 15.42578125 C7.425 14.58402344 6.6 13.74226562 5.75 12.875 C4.90953125 12.02550781 4.0690625 11.17601562 3.203125 10.30078125 C1.13084317 8.20495077 -0.93662393 6.10459287 -3 4 C-2.01 2.68 -1.02 1.36 0 0 Z " fill="#E2925D" transform="translate(187,178)"/>
<path d="M0 0 C5.06623768 4.23816537 9.80038069 8.67408963 14.4375 13.375 C15.07365234 14.01566406 15.70980469 14.65632812 16.36523438 15.31640625 C17.91250332 16.87530879 19.45736492 18.43651416 21 20 C19.47427344 23.32635882 18.06655496 24.95563002 15 27 C8.90973667 19.73661218 2.88575686 12.43117905 -3 5 C-1.125 1.125 -1.125 1.125 0 0 Z " fill="#E2925C" transform="translate(181,184)"/>
<path d="M0 0 C1.3833605 2.76672101 0.67938379 4.22810123 0.00390625 7.2265625 C-0.22490234 8.2578125 -0.45371094 9.2890625 -0.68945312 10.3515625 C-0.93630859 11.43179688 -1.18316406 12.51203125 -1.4375 13.625 C-1.68048828 14.71296875 -1.92347656 15.8009375 -2.17382812 16.921875 C-2.77646436 19.61601348 -3.38543698 22.30856155 -4 25 C-8.0881521 24.49044523 -10.9533776 23.73824609 -14.375 21.4375 C-15.06335938 20.98246094 -15.75171875 20.52742188 -16.4609375 20.05859375 C-16.96882813 19.70925781 -17.47671875 19.35992187 -18 19 C-12.44964797 12.21623641 -6.23557973 6.14477032 0 0 Z " fill="#FCFCFC" transform="translate(132,140)"/>
<path d="M0 0 C-1.4307659 5.58425797 -5.49536055 8.6133488 -9.625 12.3125 C-10.68460938 13.28026367 -10.68460938 13.28026367 -11.765625 14.26757812 C-13.50357961 15.85287456 -15.2483491 17.42987227 -17 19 C-17.99 18.34 -18.98 17.68 -20 17 C-20 16.01 -20 15.02 -20 14 C-17.59375 12.17578125 -17.59375 12.17578125 -14.5 10.3125 C-12.96859375 9.37857422 -12.96859375 9.37857422 -11.40625 8.42578125 C-10.21515625 7.72001953 -10.21515625 7.72001953 -9 7 C-9.75925781 7.37253906 -10.51851562 7.74507812 -11.30078125 8.12890625 C-12.29464844 8.60199219 -13.28851563 9.07507813 -14.3125 9.5625 C-15.29863281 10.03816406 -16.28476563 10.51382813 -17.30078125 11.00390625 C-20 12 -20 12 -23 11 C-24.1875 7.4375 -24.1875 7.4375 -25 4 C-21.58449704 3.32727653 -18.16742548 2.66288201 -14.75 2 C-13.78191406 1.80921875 -12.81382813 1.6184375 -11.81640625 1.421875 C-10.88183594 1.24140625 -9.94726562 1.0609375 -8.984375 0.875 C-8.12553711 0.70742187 -7.26669922 0.53984375 -6.38183594 0.3671875 C-4 0 -4 0 0 0 Z " fill="#9AA3A3" transform="translate(129,137)"/>
<path d="M0 0 C3.42814559 3.42814559 4.61587199 4.72897191 6.25 8.9375 C6.75273437 10.18853516 6.75273437 10.18853516 7.265625 11.46484375 C8.03021239 14.10429702 8.13686695 16.26754914 8 19 C7.01 19 6.02 19 5 19 C5 17.02 5 15.04 5 13 C4.37432129 13.18699463 3.74864258 13.37398926 3.10400391 13.56665039 C0.2798439 14.40613077 -2.547472 15.23443823 -5.375 16.0625 C-6.35984375 16.35705078 -7.3446875 16.65160156 -8.359375 16.95507812 C-9.30039063 17.22900391 -10.24140625 17.50292969 -11.2109375 17.78515625 C-12.08024902 18.04176025 -12.94956055 18.29836426 -13.84521484 18.56274414 C-16 19 -16 19 -18 18 C-12.06 12.06 -6.12 6.12 0 0 Z " fill="#FCFCFC" transform="translate(158,114)"/>
<path d="M0 0 C4.35252883 3.18866581 7.55623015 6.80324871 10.875 11 C11.38546875 11.61617187 11.8959375 12.23234375 12.421875 12.8671875 C16.06229071 17.4521435 16.06229071 17.4521435 15.75805664 20.12792969 C15 22 15 22 13.00390625 23.265625 C11.79541016 23.75289062 11.79541016 23.75289062 10.5625 24.25 C9.35787109 24.75273437 9.35787109 24.75273437 8.12890625 25.265625 C6 26 6 26 4 26 C3.32570033 22.60563644 2.6619172 19.20929807 2 15.8125 C1.80921875 14.85279297 1.6184375 13.89308594 1.421875 12.90429688 C1.24140625 11.97294922 1.0609375 11.04160156 0.875 10.08203125 C0.70742187 9.22843018 0.53984375 8.3748291 0.3671875 7.49536133 C-0.00595229 4.95954897 -0.06412996 2.55918603 0 0 Z " fill="#FBFBFB" transform="translate(137,140)"/>
<path d="M0 0 C2.37981746 2.37981746 2.48314868 3.53405082 3.0703125 6.796875 C3.24433594 7.7559375 3.41835937 8.715 3.59765625 9.703125 C3.85869141 11.21132812 3.85869141 11.21132812 4.125 12.75 C4.30675781 13.74 4.48851562 14.73 4.67578125 15.75 C5.52908206 20.54901507 6.24979561 25.10400602 6 30 C3.36 30 0.72 30 -2 30 C-2 20.43 -2 10.86 -2 1 C-1.34 0.67 -0.68 0.34 0 0 Z " fill="#5CD5AC" transform="translate(139,169)"/>
<path d="M0 0 C9.57 0 19.14 0 29 0 C29 0.99 29 1.98 29 3 C9.36887377 8.22104421 9.36887377 8.22104421 0 8 C0 5.36 0 2.72 0 0 Z " fill="#E2C85D" transform="translate(71,137)"/>
<path d="M0 0 C2.94793366 1.30751296 4.80665048 2.61527613 6.875 5.08203125 C7.38546875 5.68466797 7.8959375 6.28730469 8.421875 6.90820312 C8.94265625 7.53662109 9.4634375 8.16503906 10 8.8125 C10.52078125 9.42931641 11.0415625 10.04613281 11.578125 10.68164062 C14.43808247 14.07964565 17.24157822 17.51881867 20 21 C19.34 22.32 18.68 23.64 18 25 C12.93376232 20.76183463 8.19961931 16.32591037 3.5625 11.625 C2.92634766 10.98433594 2.29019531 10.34367187 1.63476562 9.68359375 C0.08749668 8.12469121 -1.45736492 6.56348584 -3 5 C-1.125 1.125 -1.125 1.125 0 0 Z " fill="#FCFCFC" transform="translate(71,61)"/>
<path d="M0 0 C0.66 0 1.32 0 2 0 C7 22.83333333 7 22.83333333 7 29 C7.68707031 28.77183594 8.37414062 28.54367188 9.08203125 28.30859375 C9.98308594 28.02113281 10.88414062 27.73367187 11.8125 27.4375 C12.70582031 27.14746094 13.59914062 26.85742188 14.51953125 26.55859375 C17 26 17 26 20 27 C18.21825212 29.30142435 16.83695835 30.80034391 13.953125 31.48828125 C11.9753389 31.72323102 9.98728128 31.86751458 8 32 C8 32.66 8 33.32 8 34 C4.12315913 35.19287411 1.08378077 36 -3 36 C-3 44.91 -3 53.82 -3 63 C-3.33 63 -3.66 63 -4 63 C-4.02465881 59.03069011 -4.04284023 55.06140966 -4.05493164 51.09204102 C-4.05997057 49.74079614 -4.06680177 48.38955674 -4.07543945 47.03833008 C-4.08752419 45.09979566 -4.09269828 43.161222 -4.09765625 41.22265625 C-4.10289307 40.05484619 -4.10812988 38.88703613 -4.11352539 37.68383789 C-4 35 -4 35 -3 34 C-1.48530552 33.76807135 0.03754562 33.58784762 1.5625 33.4375 C2.38878906 33.35371094 3.21507812 33.26992187 4.06640625 33.18359375 C4.70449219 33.12300781 5.34257812 33.06242187 6 33 C5.73445312 31.87464844 5.46890625 30.74929687 5.1953125 29.58984375 C2.91803022 19.75534212 1.12488209 10.03513235 0 0 Z " fill="#A3A3A3" transform="translate(140,169)"/>
<path d="M0 0 C7.28738389 2.89769072 14.25078957 5.99478674 21 10 C21 10.33 21 10.66 21 11 C13.41 11 5.82 11 -2 11 C-1 2 -1 2 0 0 Z " fill="#E2C75D" transform="translate(106,122)"/>
<path d="M0 0 C0.66 0.33 1.32 0.66 2 1 C-3.52032338 4.78893346 -9.04518054 8.57115378 -14.57568359 12.34521484 C-16.06632649 13.36269496 -17.55637139 14.38105264 -19.04541016 15.40087891 C-20.71456469 16.54279043 -22.38831387 17.67797826 -24.0625 18.8125 C-24.98160156 19.43769531 -25.90070313 20.06289062 -26.84765625 20.70703125 C-29 22 -29 22 -31 22 C-31.33 20.02 -31.66 18.04 -32 16 C-31.030625 15.5153125 -30.06125 15.030625 -29.0625 14.53125 C-28.42199707 14.2108374 -27.78149414 13.8904248 -27.12158203 13.56030273 C-25.69599449 12.84783706 -24.26987889 12.13642712 -22.84326172 11.42602539 C-19.03098351 9.52573975 -15.22941734 7.60820079 -11.4453125 5.65234375 C-10.35863281 5.09546875 -10.35863281 5.09546875 -9.25 4.52734375 C-7.84828043 3.80844713 -6.44974242 3.08330829 -5.0546875 2.3515625 C-3.39935155 1.507072 -1.70240326 0.74506676 0 0 Z " fill="#5FC6C6" transform="translate(119,143)"/>
<path d="M0 0 C0 0.99 0 1.98 0 3 C-1.24394531 3.43570313 -2.48789063 3.87140625 -3.76953125 4.3203125 C-15.61138774 8.53109428 -26.63056418 12.78515912 -36.34375 20.99609375 C-36.8903125 21.32738281 -37.436875 21.65867187 -38 22 C-38.99 21.67 -39.98 21.34 -41 21 C-41 20.34 -41 19.68 -41 19 C-38.86829141 17.32464857 -36.75539828 15.80645088 -34.5 14.3125 C-33.49743164 13.64637695 -33.49743164 13.64637695 -32.47460938 12.96679688 C-23.41359845 7.12560565 -10.96479496 0 0 0 Z " fill="#CC9545" transform="translate(113,37)"/>
<path d="M0 0 C2.01971809 0.60430395 4.02029433 1.27528632 6 2 C7 3.9375 7 3.9375 7 6 C6.01 7.485 6.01 7.485 5 9 C5.99 7.68 6.98 6.36 8 5 C8.66 5.33 9.32 5.66 10 6 C7.69 8.64 5.38 11.28 3 14 C2.01 13.67 1.02 13.34 0 13 C-0.226875 13.53625 -0.45375 14.0725 -0.6875 14.625 C-2.43382056 17.78500863 -4.6402849 20.2676983 -7 23 C-8 21 -8 21 -7.37915039 18.84521484 C-7.03875732 17.97590332 -6.69836426 17.1065918 -6.34765625 16.2109375 C-5.98349609 15.26992187 -5.61933594 14.32890625 -5.24414062 13.359375 C-4.85419922 12.37453125 -4.46425781 11.3896875 -4.0625 10.375 C-3.48338867 8.88613281 -3.48338867 8.88613281 -2.89257812 7.3671875 C-1.93518863 4.90870583 -0.97074241 2.45323318 0 0 Z " fill="#C6D25F" transform="translate(146,106)"/>
<path d="M0 0 C5.66129431 4.69766975 10.85228904 9.74723372 16 15 C15.01 15.495 15.01 15.495 14 16 C12.12060547 15.28735352 12.12060547 15.28735352 9.8671875 14.12890625 C9.06152344 13.71962891 8.25585938 13.31035156 7.42578125 12.88867188 C6.58402344 12.45103516 5.74226563 12.01339844 4.875 11.5625 C4.02550781 11.12873047 3.17601563 10.69496094 2.30078125 10.24804688 C0.19677908 9.17240532 -1.9031458 8.08949234 -4 7 C-2.92598892 4.08482708 -2.22189824 2.22189824 0 0 Z " fill="#F9F9F9" transform="translate(111,114)"/>
<path d="M0 0 C1.32 0.66 2.64 1.32 4 2 C2.51346494 5.46629835 0.54277649 7.69022036 -2.1328125 10.328125 C-3.34130859 11.52695313 -3.34130859 11.52695313 -4.57421875 12.75 C-5.41597656 13.575 -6.25773438 14.4 -7.125 15.25 C-7.97449219 16.09046875 -8.82398438 16.9309375 -9.69921875 17.796875 C-11.79504923 19.86915683 -13.89540713 21.93662393 -16 24 C-16.66 23.67 -17.32 23.34 -18 23 C-17.28714844 22.09378906 -16.57429687 21.18757813 -15.83984375 20.25390625 C-10.54192526 13.51648693 -5.25089488 6.77419203 0 0 Z " fill="#F9F9F9" transform="translate(175,85)"/>
<path d="M0 0 C8.54948438 5.28260823 16.22236423 11.66722147 24 18 C23.34 19.32 22.68 20.64 22 22 C18.56394819 20.51770549 16.31298409 18.5704826 13.671875 15.9375 C12.87265625 15.14085937 12.0734375 14.34421875 11.25 13.5234375 C10.425 12.69070312 9.6 11.85796875 8.75 11 C7.90953125 10.16726562 7.0690625 9.33453125 6.203125 8.4765625 C5.4090625 7.67992187 4.615 6.88328125 3.796875 6.0625 C2.70391113 4.96615234 2.70391113 4.96615234 1.58886719 3.84765625 C0 2 0 2 0 0 Z " fill="#E0925E" transform="translate(161,157)"/>
<path d="M0 0 C-3.45533314 1.67294007 -6.91473993 3.33727763 -10.375 5 C-11.35984375 5.47695312 -12.3446875 5.95390625 -13.359375 6.4453125 C-14.77089844 7.12207031 -14.77089844 7.12207031 -16.2109375 7.8125 C-17.08024902 8.23144531 -17.94956055 8.65039062 -18.84521484 9.08203125 C-21 10 -21 10 -23 10 C-23.66 7.69 -24.32 5.38 -25 3 C-21.58604938 2.29852167 -18.16853031 1.61627764 -14.75 0.9375 C-13.78191406 0.73833984 -12.81382813 0.53917969 -11.81640625 0.33398438 C-10.88183594 0.15029297 -9.94726562 -0.03339844 -8.984375 -0.22265625 C-8.12553711 -0.39547119 -7.26669922 -0.56828613 -6.38183594 -0.74633789 C-3.94790649 -1.00554788 -2.31101537 -0.75084609 0 0 Z " fill="#F6F6F6" transform="translate(129,138)"/>
<path d="M0 0 C2.64 0.33 5.28 0.66 8 1 C5.96192707 8.1178153 3.59655258 15.06707281 1 22 C0.67 22 0.34 22 0 22 C0 14.74 0 7.48 0 0 Z " fill="#FDFDFD" transform="translate(137,104)"/>
<path d="M0 0 C3.43605181 1.48229451 5.68701591 3.4295174 8.328125 6.0625 C9.52695313 7.25746094 9.52695313 7.25746094 10.75 8.4765625 C11.575 9.30929688 12.4 10.14203125 13.25 11 C14.09046875 11.83273438 14.9309375 12.66546875 15.796875 13.5234375 C16.5909375 14.32007813 17.385 15.11671875 18.203125 15.9375 C18.93176758 16.66839844 19.66041016 17.39929688 20.41113281 18.15234375 C22 20 22 20 22 22 C20.02 22.99 20.02 22.99 18 24 C14.80139435 19.9337798 11.60514792 15.86572535 8.41113281 11.79589844 C7.18012487 10.2292385 5.94581279 8.66517592 4.7109375 7.1015625 C4.08445313 6.30492187 3.45796875 5.50828125 2.8125 4.6875 C1.98685547 3.64142578 1.98685547 3.64142578 1.14453125 2.57421875 C0 1 0 1 0 0 Z " fill="#E1925E" transform="translate(157,161)"/>
<path d="M0 0 C2.88437779 1.29299694 4.87219421 2.65941363 7 5 C5.50902342 8.7952131 3.24299151 10.61042731 0 13 C-1.98 10.36 -3.96 7.72 -6 5 C-4.02 3.35 -2.04 1.7 0 0 Z " fill="#E2915D" transform="translate(204,208)"/>
<path d="M0 0 C2.64 1.98 5.28 3.96 8 6 C6.02 8.31 4.04 10.62 2 13 C-1.23475448 11.38262276 -2.70572021 10.52370777 -5 8 C-3.7191375 4.35446828 -2.83328987 2.83328987 0 0 Z " fill="#E2915C" transform="translate(213,198)"/>
<path d="M0 0 C0.33 0 0.66 0 1 0 C1 1.65 1 3.3 1 5 C0.40574219 5.14695312 -0.18851563 5.29390625 -0.80078125 5.4453125 C-9.70743273 7.85551057 -17.15035612 12.26484678 -25 17 C-25.33 16.01 -25.66 15.02 -26 14 C-18.46680725 8.21677459 -9.81334272 2 0 2 C0 1.34 0 0.68 0 0 Z " fill="#CC9646" transform="translate(119,68)"/>
<path d="M0 0 C0 6.93 0 13.86 0 21 C-0.33 20.34 -0.66 19.68 -1 19 C-1.66 19 -2.32 19 -3 19 C-3.50904657 17.12743583 -4.00682455 15.25180659 -4.5 13.375 C-4.91765625 11.80878906 -4.91765625 11.80878906 -5.34375 10.2109375 C-5.99118596 7.04312582 -6.1161292 4.22258533 -6 1 C-3 0 -3 0 0 0 Z " fill="#B2AFAB" transform="translate(134,103)"/>
<path d="M0 0 C9.41944227 2.79852995 16.97803414 5.97803414 24 13 C21.03 16.96 18.06 20.92 15 25 C14.34 24.34 13.68 23.68 13 23 C13.51691406 22.38511719 14.03382813 21.77023438 14.56640625 21.13671875 C15.55447266 19.92435547 15.55447266 19.92435547 16.5625 18.6875 C17.22378906 17.88699219 17.88507813 17.08648437 18.56640625 16.26171875 C19.03949219 15.51535156 19.51257813 14.76898438 20 14 C19.33369833 11.00196815 19.33369833 11.00196815 17.44946289 9.92504883 C16.7971167 9.60560303 16.14477051 9.28615723 15.47265625 8.95703125 C14.76302734 8.60576172 14.05339844 8.25449219 13.32226562 7.89257812 C12.57654297 7.53615234 11.83082031 7.17972656 11.0625 6.8125 C10.32064453 6.44447266 9.57878906 6.07644531 8.81445312 5.69726562 C5.07365987 3.7006763 5.07365987 3.7006763 1 3 C-0.32 6.3 -1.64 9.6 -3 13 C-3.99 13 -4.98 13 -6 13 C-5.1905146 11.01959844 -4.37732831 9.04070923 -3.5625 7.0625 C-3.11003906 5.96035156 -2.65757812 4.85820313 -2.19140625 3.72265625 C-1 1 -1 1 0 0 Z " fill="#A6A79C" transform="translate(163,58)"/>
<path d="M0 0 C1.20691485 3.53111017 1.05725762 3.88315827 -0.73046875 7.53125 C-1.53663975 8.8620298 -2.35621736 10.18476019 -3.1875 11.5 C-3.58775391 12.16386719 -3.98800781 12.82773438 -4.40039062 13.51171875 C-6.61329773 17.10545119 -8.83848754 20.15100486 -12 23 C-12.66 22.67 -13.32 22.34 -14 22 C-11.98615137 17.72057165 -9.42626113 13.77891725 -6.921875 9.77734375 C-5.46899709 7.44081249 -4.06647382 5.13848713 -2.875 2.65625 C-2 1 -2 1 0 0 Z " fill="#898989" transform="translate(225,175)"/>
<path d="M0 0 C3.9129517 1.53153992 5.80823895 3.92276007 8.375 7.1875 C9.54482422 8.65703125 9.54482422 8.65703125 10.73828125 10.15625 C11.48464844 11.0946875 12.23101562 12.033125 13 13 C14.97841559 15.35314604 16.98648362 17.67671187 19 20 C18.67 20.66 18.34 21.32 18 22 C11.73 15.73 5.46 9.46 -1 3 C-0.67 2.01 -0.34 1.02 0 0 Z " fill="#F8F8F8" transform="translate(92,86)"/>
<path d="M0 0 C2.08559381 1.10006032 4.16843689 2.20485882 6.25 3.3125 C7.41015625 3.92738281 8.5703125 4.54226562 9.765625 5.17578125 C12.37033548 6.64486313 14.67723539 8.13143936 17 10 C16.67 10.99 16.34 11.98 16 13 C15.27554688 12.60167969 14.55109375 12.20335938 13.8046875 11.79296875 C8.90866547 9.10994868 4.02081186 6.44255712 -1 4 C-0.67 2.68 -0.34 1.36 0 0 Z " fill="#B1BD47" transform="translate(159,71)"/>
<path d="M0 0 C0.66 0 1.32 0 2 0 C3.02095411 4.66235709 4.01818802 9.32924398 5 14 C5.22429687 15.05703125 5.44859375 16.1140625 5.6796875 17.203125 C5.86789063 18.14671875 6.05609375 19.0903125 6.25 20.0625 C6.42015625 20.89910156 6.5903125 21.73570312 6.765625 22.59765625 C7.02669466 25.2736203 6.64813453 27.40283234 6 30 C5.67 30 5.34 30 5 30 C4.28571331 26.04938672 3.57368872 22.09837318 2.86376953 18.14697266 C2.62188049 16.80245921 2.37937064 15.45805729 2.13623047 14.11376953 C1.78710844 12.18291094 1.44039447 10.25161742 1.09375 8.3203125 C0.88427734 7.15773926 0.67480469 5.99516602 0.45898438 4.79736328 C0 2 0 2 0 0 Z " fill="#9CACA7" transform="translate(140,169)"/>
<path d="M0 0 C0 1.65 0 3.3 0 5 C-5.61 5 -11.22 5 -17 5 C-14.5863604 2.5863604 -12.90164101 2.24467148 -9.625 1.375 C-8.66851562 1.11460937 -7.71203125 0.85421875 -6.7265625 0.5859375 C-4 0 -4 0 0 0 Z " fill="#6767CF" transform="translate(161,129)"/>
<path d="M0 0 C3.74169367 3.64662341 7.19522172 7.44440301 10.5625 11.4375 C11.26536133 12.25831055 11.26536133 12.25831055 11.98242188 13.09570312 C14.93340357 16.58322694 17.53430353 20.1535135 20 24 C19.34 24.33 18.68 24.66 18 25 C17.52691406 24.40574219 17.05382812 23.81148437 16.56640625 23.19921875 C12.0528491 17.54187519 7.49147609 11.92783254 2.8828125 6.34765625 C1 4 1 4 -1 1 C-0.67 0.67 -0.34 0.34 0 0 Z " fill="#A8A39B" transform="translate(73,59)"/>
<path d="M0 0 C0.33 0.99 0.66 1.98 1 3 C-3.62 5.97 -8.24 8.94 -13 12 C-13.33 11.34 -13.66 10.68 -14 10 C-4.76923077 0 -4.76923077 0 0 0 Z " fill="#888787" transform="translate(197,211)"/>
<path d="M0 0 C4.2764504 1.56970885 6.65309885 4.82599088 9.4375 8.25 C10.13456055 9.09111328 10.13456055 9.09111328 10.84570312 9.94921875 C11.77547723 11.07220951 12.70050134 12.19915084 13.62060547 13.33007812 C14.54886467 14.45384679 15.49641315 15.56192708 16.46142578 16.65429688 C20 20.68769813 20 20.68769813 20 24 C19.34 24 18.68 24 18 24 C16.99260254 22.33779419 15.99477045 20.66979326 15 19 C13.0778131 16.59869233 11.03774118 14.30353351 9 12 C5.60763339 8.16515079 2.4673089 4.52339965 0 0 Z " fill="#A9A49D" transform="translate(93,85)"/>
<path d="M0 0 C0.33 0 0.66 0 1 0 C1.04254356 1.99954746 1.04080783 4.00041636 1 6 C0 7 0 7 -1.85766602 7.11352539 C-2.64842529 7.10828857 -3.43918457 7.10305176 -4.25390625 7.09765625 C-5.10791016 7.09443359 -5.96191406 7.09121094 -6.84179688 7.08789062 C-7.73962891 7.07951172 -8.63746094 7.07113281 -9.5625 7.0625 C-10.46419922 7.05798828 -11.36589844 7.05347656 -12.29492188 7.04882812 C-14.53001314 7.03700225 -16.76497437 7.0205222 -19 7 C-19.33 6.34 -19.66 5.68 -20 5 C-17.17554408 4.05851469 -15.85828382 3.92688305 -12.98828125 4.12109375 C-12.23095703 4.16943359 -11.47363281 4.21777344 -10.69335938 4.26757812 C-9.90767578 4.32365234 -9.12199219 4.37972656 -8.3125 4.4375 C-7.51521484 4.48970703 -6.71792969 4.54191406 -5.89648438 4.59570312 C-3.93063478 4.72519022 -1.96526335 4.86190041 0 5 C0 3.35 0 1.7 0 0 Z " fill="#7A7A8D" transform="translate(161,129)"/>
<path d="M0 0 C0.66 0.99 1.32 1.98 2 3 C1.67 3.66 1.34 4.32 1 5 C0.2575 5.144375 -0.485 5.28875 -1.25 5.4375 C-4.10633406 5.85687208 -4.10633406 5.85687208 -6.625 7.625 C-7.40875 8.07875 -8.1925 8.5325 -9 9 C-9.99 8.67 -10.98 8.34 -12 8 C-12 7.34 -12 6.68 -12 6 C-8.04 4.02 -4.08 2.04 0 0 Z " fill="#CC9648" transform="translate(126,101)"/>
<path d="M0 0 C0.33 0 0.66 0 1 0 C2.32388229 6.43028541 3.24794402 12.4294834 3 19 C2.01 19 1.02 19 0 19 C0 12.73 0 6.46 0 0 Z " fill="#57CCA5" transform="translate(136,148)"/>
<path d="M0 0 C0.66 0.33 1.32 0.66 2 1 C-0.09839653 2.50869023 -2.20299781 4.00698357 -4.3125 5.5 C-4.90740234 5.92925781 -5.50230469 6.35851562 -6.11523438 6.80078125 C-10.66015625 10 -10.66015625 10 -14 10 C-14 9.01 -14 8.02 -14 7 C-11.71296692 5.80274117 -9.42115138 4.61702982 -7.125 3.4375 C-6.14853516 2.92413086 -6.14853516 2.92413086 -5.15234375 2.40039062 C-3.46470143 1.53917109 -1.73420407 0.76313297 0 0 Z " fill="#65C1C1" transform="translate(119,143)"/>
<path d="M0 0 C5.61 0 11.22 0 17 0 C11.72346191 3.51769206 6.13607598 3.10579441 0 3 C0 2.01 0 1.02 0 0 Z " fill="#D9BF57" transform="translate(103,136)"/>
<path d="M0 0 C1.18078125 0.56589844 2.3615625 1.13179688 3.578125 1.71484375 C5.13532537 2.45592103 6.6926221 3.19679588 8.25 3.9375 C9.02730469 4.31068359 9.80460937 4.68386719 10.60546875 5.06835938 C11.35957031 5.42607422 12.11367187 5.78378906 12.890625 6.15234375 C13.58188477 6.48226318 14.27314453 6.81218262 14.98535156 7.15209961 C16.98587322 8.074803 16.98587322 8.074803 19.19433594 8.42797852 C19.79020508 8.61674561 20.38607422 8.8055127 21 9 C21.33 9.99 21.66 10.98 22 12 C16.7936703 10.41980408 12.01626689 8.22115005 7.125 5.875 C6.34125 5.50246094 5.5575 5.12992187 4.75 4.74609375 C2.83186501 3.83381003 0.91572671 2.91733016 -1 2 C-0.67 1.34 -0.34 0.68 0 0 Z " fill="#A7A59D" transform="translate(108,121)"/>
<path d="M0 0 C0.33 0 0.66 0 1 0 C1 5.61 1 11.22 1 17 C-0.32 17 -1.64 17 -3 17 C-2.01 11.39 -1.02 5.78 0 0 Z " fill="#5FD2AB" transform="translate(132,149)"/>
<path d="M0 0 C1.32 0 2.64 0 4 0 C4 4.95 4 9.9 4 15 C2.22413995 11.4482799 1.51372154 9.08232923 0.875 5.25 C0.70742187 4.26515625 0.53984375 3.2803125 0.3671875 2.265625 C0.24601563 1.51796875 0.12484375 0.7703125 0 0 Z " fill="#FAFAFA" transform="translate(129,104)"/>
<path d="M0 0 C0.66 0.33 1.32 0.66 2 1 C0.25 8.75 0.25 8.75 -2 11 C-2.66 11 -3.32 11 -4 11 C-3.71890887 9.35232753 -3.42481474 7.70686855 -3.125 6.0625 C-2.96257812 5.14597656 -2.80015625 4.22945312 -2.6328125 3.28515625 C-2.42398438 2.53105469 -2.21515625 1.77695313 -2 1 C-1.34 0.67 -0.68 0.34 0 0 Z " fill="#919191" transform="translate(199,149)"/>
<path d="M0 0 C0 3 0 3 -1.64453125 4.75390625 C-2.71767578 5.64916016 -2.71767578 5.64916016 -3.8125 6.5625 C-4.52019531 7.16191406 -5.22789063 7.76132813 -5.95703125 8.37890625 C-8 10 -8 10 -11 12 C-11 10.68 -11 9.36 -11 8 C-8.59375 5.859375 -8.59375 5.859375 -5.5 3.75 C-3.96859375 2.69039062 -3.96859375 2.69039062 -2.40625 1.609375 C-1.6121875 1.07828125 -0.818125 0.5471875 0 0 Z " fill="#F1F1F1" transform="translate(122,144)"/>
<path d="M0 0 C4.39010377 3.26806732 8.72605283 6.58084226 13 10 C13.99 10.66 14.98 11.32 16 12 C11.09028899 12 9.26426656 10.17686306 5.75 7.125 C5.19570312 6.66480469 4.64140625 6.20460937 4.0703125 5.73046875 C2.66786453 4.53873341 1.32822952 3.27393083 0 2 C0 1.34 0 0.68 0 0 Z " fill="#A79F9B" transform="translate(145,142)"/>
<path d="M0 0 C3.96 1.98 3.96 1.98 8 4 C7.01 4.99 6.02 5.98 5 7 C3.02 5.68 1.04 4.36 -1 3 C-0.67 2.01 -0.34 1.02 0 0 Z " fill="#B1BE46" transform="translate(148,103)"/>
<path d="M0 0 C1.98 0 3.96 0 6 0 C5.67 2.97 5.34 5.94 5 9 C4.34 7.68 3.68 6.36 3 5 C2.34 5.66 1.68 6.32 1 7 C0.67 4.69 0.34 2.38 0 0 Z " fill="#819A92" transform="translate(132,139)"/>
<path d="M0 0 C0.66 0.33 1.32 0.66 2 1 C-0.31 3.64 -2.62 6.28 -5 9 C-5.66 8.34 -6.32 7.68 -7 7 C-5.47005208 5.76302083 -3.94010417 4.52604167 -2.41015625 3.2890625 C-0.86733563 2.0333609 -0.86733563 2.0333609 0 0 Z " fill="#C0C1BF" transform="translate(154,111)"/>
<path d="M0 0 C0.66 0.33 1.32 0.66 2 1 C0.6875 3 0.6875 3 -1 5 C-1.99 5 -2.98 5 -4 5 C-4 4.01 -4 3.02 -4 2 C-2.125 0.9375 -2.125 0.9375 0 0 Z " fill="#52B9B9" transform="translate(109,148)"/>
</svg>
