<?xml version="1.0" encoding="UTF-8"?>
<svg version="1.1" xmlns="http://www.w3.org/2000/svg" width="240" height="240">
<path d="M0 0 C0.99338379 0.19787109 1.98676758 0.39574219 3.01025391 0.59960938 C5.88912376 1.18303012 8.75793119 1.79875997 11.625 2.4375 C12.44846924 2.61821045 13.27193848 2.7989209 14.12036133 2.98510742 C23.70793116 5.31866887 31.42841821 9.73669298 37 18 C42.036362 27.35324372 42.14997831 37.33929304 42.203125 47.75 C42.20882507 48.64759033 42.21452515 49.54518066 42.22039795 50.4699707 C42.22977694 52.35903777 42.23635336 54.24812067 42.24023438 56.13720703 C42.24988223 58.9654752 42.28095073 61.79299707 42.3125 64.62109375 C42.40409237 80.08963248 40.99061748 94.93464466 35.8125 109.625 C35.51279297 110.49688965 35.21308594 111.3687793 34.90429688 112.26708984 C21.83540002 149.1092532 -5.4903061 176.33189423 -39.84375 193.9453125 C-43.73795208 195.7728547 -46.72910102 196.57566674 -51 196 C-53.68947585 194.90660169 -56.13696252 193.78758614 -58.6875 192.4375 C-59.39374512 192.07180908 -60.09999023 191.70611816 -60.82763672 191.3293457 C-83.2982685 179.53136888 -103.43034281 162.59472328 -117 141 C-117.38881348 140.38576172 -117.77762695 139.77152344 -118.17822266 139.13867188 C-130.54417719 119.26754592 -138.13481616 95.62329386 -138.16796875 72.12890625 C-138.17129715 71.28891586 -138.17462555 70.44892548 -138.17805481 69.58348083 C-138.18309693 67.80932152 -138.18546398 66.0351528 -138.18530273 64.26098633 C-138.1874682 61.60155718 -138.20559458 58.94255793 -138.22460938 56.28320312 C-138.33562601 23.44658941 -138.33562601 23.44658941 -129.24609375 12.98046875 C-119.21170434 3.35150921 -104.10749927 1.60894821 -91 -1 C-89.77216797 -1.25426758 -89.77216797 -1.25426758 -88.51953125 -1.51367188 C-60.13881761 -7.16635947 -28.20700475 -5.85117791 0 0 Z " fill="#5C4037" transform="translate(168,24)"/>
<path d="M0 0 C0.99338379 0.19787109 1.98676758 0.39574219 3.01025391 0.59960938 C5.88912376 1.18303012 8.75793119 1.79875997 11.625 2.4375 C12.44846924 2.61821045 13.27193848 2.7989209 14.12036133 2.98510742 C23.70793116 5.31866887 31.42841821 9.73669298 37 18 C42.036362 27.35324372 42.14997831 37.33929304 42.203125 47.75 C42.20882507 48.64759033 42.21452515 49.54518066 42.22039795 50.4699707 C42.22977694 52.35903777 42.23635336 54.24812067 42.24023438 56.13720703 C42.24988223 58.9654752 42.28095073 61.79299707 42.3125 64.62109375 C42.40409237 80.08963248 40.99061748 94.93464466 35.8125 109.625 C35.51279297 110.49688965 35.21308594 111.3687793 34.90429688 112.26708984 C21.83540002 149.1092532 -5.4903061 176.33189423 -39.84375 193.9453125 C-43.73795208 195.7728547 -46.72910102 196.57566674 -51 196 C-53.68947585 194.90660169 -56.13696252 193.78758614 -58.6875 192.4375 C-59.39374512 192.07180908 -60.09999023 191.70611816 -60.82763672 191.3293457 C-83.2982685 179.53136888 -103.43034281 162.59472328 -117 141 C-117.38881348 140.38576172 -117.77762695 139.77152344 -118.17822266 139.13867188 C-130.54417719 119.26754592 -138.13481616 95.62329386 -138.16796875 72.12890625 C-138.17129715 71.28891586 -138.17462555 70.44892548 -138.17805481 69.58348083 C-138.18309693 67.80932152 -138.18546398 66.0351528 -138.18530273 64.26098633 C-138.1874682 61.60155718 -138.20559458 58.94255793 -138.22460938 56.28320312 C-138.33562601 23.44658941 -138.33562601 23.44658941 -129.24609375 12.98046875 C-119.21170434 3.35150921 -104.10749927 1.60894821 -91 -1 C-89.77216797 -1.25426758 -89.77216797 -1.25426758 -88.51953125 -1.51367188 C-60.13881761 -7.16635947 -28.20700475 -5.85117791 0 0 Z M-100.6875 16.9375 C-101.73333252 17.17807129 -102.77916504 17.41864258 -103.85668945 17.66650391 C-110.3909704 19.28676905 -114.82782022 21.06177708 -119.80078125 25.66796875 C-121.71245604 29.38546012 -121.8586003 33.18554686 -122.1875 37.3125 C-122.26718018 38.23095703 -122.34686035 39.14941406 -122.42895508 40.09570312 C-123.26432906 50.72675675 -123.26810063 61.34563872 -123 72 C-122.97035156 73.24652344 -122.94070312 74.49304688 -122.91015625 75.77734375 C-121.31728074 107.20749701 -104.62475276 136.66196972 -82.046875 157.8046875 C-72.71321372 166.22753059 -61.54731728 173.94123069 -50 179 C-31.80383555 177.74254148 -12.37988336 157.98107298 -1 145 C19.81178482 120.13835435 27.23001119 89.77339377 27.125 57.9375 C27.12886719 56.76123047 27.13273438 55.58496094 27.13671875 54.37304688 C27.86626635 38.33103755 27.86626635 38.33103755 22 24 C17.23388038 20.17551495 12.6482057 18.80181554 6.8125 17.5 C5.90105225 17.2935083 4.98960449 17.0870166 4.05053711 16.87426758 C-31.08900425 9.19421848 -65.59096139 8.8014726 -100.6875 16.9375 Z " fill="#4CAB4F" transform="translate(168,24)"/>
<path d="M0 0 C4.08494918 1.5652609 6.51236368 4.48028539 9.25 7.75 C9.73162598 8.32419678 10.21325195 8.89839355 10.70947266 9.48999023 C25.59173677 27.74065787 32.03441369 48.67124907 31 72 C29.570829 84.76045536 23.61059889 97.64403158 14.36328125 106.53515625 C8.81675084 111.9076158 6.16977244 115.51708698 5.875 123.1875 C5.87047116 125.45871105 5.89589721 127.7311715 6 130 C2.7 130 -0.6 130 -4 130 C-3.979375 129.01 -3.95875 128.02 -3.9375 127 C-3.84161285 119.48883582 -3.84161285 119.48883582 -6.53125 112.6796875 C-7.88168757 111.44178639 -9.26573611 110.2398652 -10.67578125 109.0703125 C-21.23623772 99.66351934 -27.91001426 84.58485392 -29.22143555 70.64648438 C-30.46764157 44.81893108 -21.05108669 23.41825598 -4 4.3125 C-2.67198848 2.87008209 -1.34066566 1.43066405 0 0 Z " fill="#80C683" transform="translate(119,50)"/>
<path d="M0 0 C15.83234369 12.94039284 27.02509797 33.28449871 29.8125 53.625 C29.90737339 55.08158553 29.96583644 56.54072785 30 58 C30.03867188 59.10085937 30.07734375 60.20171875 30.1171875 61.3359375 C30.54500968 83.63022692 20.86936902 99.2630018 6 115 C-1.02918246 107.97081754 -0.43352722 96.57174046 -0.464077 87.35747147 C-0.45286503 84.1495506 -0.42209329 80.94215578 -0.390625 77.734375 C-0.38315303 75.48708604 -0.37746462 73.23979051 -0.37347412 70.99249268 C-0.35829316 65.11356216 -0.31907689 59.23503481 -0.2746582 53.35626221 C-0.2335421 47.34303234 -0.21542836 41.32973654 -0.1953125 35.31640625 C-0.15257487 23.54409492 -0.08441581 11.77208115 0 0 Z " fill="#4CAE4F" transform="translate(120,50)"/>
<path d="M0 0 C0.66 0 1.32 0 2 0 C6.52270791 9.34827573 6.4271618 17.87863851 6 28 C2.7 28 -0.6 28 -4 28 C-4.4642314 17.83849055 -4.05109759 9.54901575 0 0 Z " fill="#D9EBC5" transform="translate(119,152)"/>
<path d="M0 0 C0.66 0.33 1.32 0.66 2 1 C-1.63 4.63 -5.26 8.26 -9 12 C-9 8.47601214 -8.44884893 7.98495633 -6.1875 5.4375 C-5.40439453 4.53837891 -5.40439453 4.53837891 -4.60546875 3.62109375 C-3 2 -3 2 0 0 Z " fill="#4B9E4A" transform="translate(45,32)"/>
</svg>
