<?xml version="1.0" encoding="UTF-8"?>
<svg version="1.1" xmlns="http://www.w3.org/2000/svg" width="240" height="240">
<path d="M0 0 C2.127038 1.27698518 4.25466253 2.55299382 6.3828125 3.828125 C7.47368164 4.48748047 8.56455078 5.14683594 9.68847656 5.82617188 C15.0433257 9.03813387 20.45975132 12.1413448 25.875 15.25 C28.03526802 16.49589998 30.19542342 17.74199524 32.35546875 18.98828125 C36.35693948 21.29381964 40.361755 23.59333236 44.37084961 25.88557434 C46.15887857 26.90830066 47.94602816 27.93254666 49.73291016 28.95727539 C51.97431676 30.24208451 54.21738598 31.52399911 56.46240234 32.80249023 C72.33155698 41.90920673 72.33155698 41.90920673 75 48.8125 C75.42583224 52.13189561 75.42036209 55.41852063 75.40405273 58.76171875 C75.41091599 59.74782135 75.41777924 60.73392395 75.42485046 61.74990845 C75.44310865 65.00008661 75.43928265 68.2497817 75.43359375 71.5 C75.43815562 73.76391761 75.44346121 76.02783384 75.44947815 78.29174805 C75.45840705 83.03277214 75.45598807 87.77362775 75.44604492 92.51464844 C75.43454872 98.5876977 75.45477835 104.66016608 75.48396206 110.73313904 C75.50231329 115.40689786 75.50203382 120.08051717 75.49632454 124.75430298 C75.49617123 126.99338598 75.50222339 129.23247839 75.51461601 131.4715271 C75.5295054 134.60248217 75.51886371 137.73235974 75.50170898 140.86328125 C75.51621094 142.24744736 75.51621094 142.24744736 75.53100586 143.65957642 C75.46568917 149.35707771 74.67898889 152.41242788 71 156.8125 C65.54974659 162.10468342 58.37397265 165.62067694 51.80331421 169.30209351 C48.68171201 171.05114374 45.5703129 172.81822797 42.45703125 174.58203125 C41.82658401 174.93848221 41.19613678 175.29493317 40.54658508 175.66218567 C34.55974297 179.05062985 28.62112009 182.51931058 22.6875 186 C19.77725786 187.69798548 16.86588067 189.39400717 13.95410156 191.08935547 C11.92551659 192.27264082 9.89892643 193.45935062 7.87402344 194.64892578 C4.77687482 196.46523754 1.67080282 198.26535954 -1.4375 200.0625 C-2.36667236 200.61188232 -3.29584473 201.16126465 -4.25317383 201.72729492 C-10.15828401 205.11631935 -16.05245382 208.45856931 -23.06591797 207.54272461 C-30.6392366 205.42020471 -37.3946744 200.68524682 -44.0625 196.625 C-45.32178057 195.8670321 -46.58154295 195.10986405 -47.84179688 194.35351562 C-50.90013901 192.51569545 -53.95182602 190.66714835 -57 188.8125 C-56.65917969 186.9074707 -56.65917969 186.9074707 -56 184.8125 C-53.453125 183.29296875 -53.453125 183.29296875 -50.25 182 C-48.67992188 181.34064453 -48.67992188 181.34064453 -47.078125 180.66796875 C-42.97247548 179.52693164 -40.84527958 179.78997328 -37.11474609 181.85717773 C-34.14956371 183.64911366 -31.22893676 185.50329753 -28.32617188 187.39453125 C-27.60107422 187.84441406 -26.87597656 188.29429687 -26.12890625 188.7578125 C-25.47994385 189.17562988 -24.83098145 189.59344727 -24.16235352 190.02392578 C-21.1022529 191.13989338 -19.12450135 190.6249554 -16 189.8125 C-13.48719339 188.68374816 -13.48719339 188.68374816 -11.078125 187.1796875 C-10.14871094 186.62861328 -9.21929687 186.07753906 -8.26171875 185.50976562 C-6.77091797 184.60774414 -6.77091797 184.60774414 -5.25 183.6875 C-3.08901872 182.40284303 -0.92754336 181.11901686 1.234375 179.8359375 C2.35005859 179.17045898 3.46574219 178.50498047 4.61523438 177.81933594 C10.04712202 174.59875628 15.52388991 171.45709472 21 168.3125 C27.65197616 164.48746294 34.29460047 160.64829995 40.90625 156.75390625 C42.01355469 156.10292969 43.12085938 155.45195312 44.26171875 154.78125 C46.38109374 153.53365652 48.49837113 152.28249116 50.61328125 151.02734375 C51.55558594 150.47304687 52.49789062 149.91875 53.46875 149.34765625 C54.29826172 148.856604 55.12777344 148.36555176 55.98242188 147.85961914 C58 146.8125 58 146.8125 60 146.8125 C60 115.7925 60 84.7725 60 52.8125 C58.35 52.1525 56.7 51.4925 55 50.8125 C53.06003488 49.77560728 51.13811842 48.70458452 49.23046875 47.609375 C48.10648682 46.96581055 46.98250488 46.32224609 45.82446289 45.65917969 C44.6120742 44.96040395 43.39975494 44.26150775 42.1875 43.5625 C40.92906546 42.83997698 39.67051904 42.11764879 38.41186523 41.39550781 C30.44248732 36.81807173 22.49816027 32.19813085 14.5625 27.5625 C13.59481689 26.99942139 12.62713379 26.43634277 11.63012695 25.85620117 C6.75057275 23.01523819 1.8889932 20.14915947 -2.94921875 17.23828125 C-4.84101064 16.11695938 -6.7329322 14.99585625 -8.625 13.875 C-9.48407959 13.3480957 -10.34315918 12.82119141 -11.22827148 12.27832031 C-12.03208252 11.80620117 -12.83589355 11.33408203 -13.6640625 10.84765625 C-14.35967285 10.4287915 -15.0552832 10.00992676 -15.77197266 9.57836914 C-19.75625174 8.20880049 -22.94865194 9.31659934 -26.65527344 11.06494141 C-27.54762695 11.59265137 -28.43998047 12.12036133 -29.359375 12.6640625 C-30.3793457 13.26041504 -31.39931641 13.85676758 -32.45019531 14.47119141 C-33.53913086 15.12007324 -34.62806641 15.76895508 -35.75 16.4375 C-36.90405208 17.11604254 -38.05868563 17.79359698 -39.21386719 18.47021484 C-41.61484625 19.8774588 -44.0132671 21.28892737 -46.41015625 22.703125 C-51.99709502 25.99346249 -57.62690681 29.20950628 -63.25 32.4375 C-69.67518851 36.13329724 -76.08504592 39.85100879 -82.453125 43.64453125 C-83.47245117 44.25151855 -84.49177734 44.85850586 -85.54199219 45.48388672 C-87.47219544 46.63633722 -89.40004851 47.79273579 -91.32519531 48.95361328 C-92.17694336 49.46263184 -93.02869141 49.97165039 -93.90625 50.49609375 C-94.65197266 50.94525146 -95.39769531 51.39440918 -96.16601562 51.85717773 C-98 52.8125 -98 52.8125 -100 52.8125 C-100 83.8325 -100 114.8525 -100 146.8125 C-98.35 147.4725 -96.7 148.1325 -95 148.8125 C-93.46808985 149.65058389 -91.95246166 150.51900783 -90.453125 151.4140625 C-89.6075 151.90390625 -88.761875 152.39375 -87.890625 152.8984375 C-86.13842701 153.91968899 -84.39347401 154.95347951 -82.65625 156 C-77.7371387 158.8173092 -73.7898826 160.41071104 -68.09667969 160.48974609 C-64.68114805 159.38649915 -63.22236214 157.60889166 -61 154.8125 C-60.27121059 151.7521004 -60.31925401 148.7664838 -60.35644531 145.63183594 C-60.3431292 144.25789673 -60.3431292 144.25789673 -60.32954407 142.85620117 C-60.30588844 139.83605554 -60.31704527 136.81707585 -60.328125 133.796875 C-60.31754782 131.69890071 -60.30463739 129.60093699 -60.28948975 127.50299072 C-60.25527334 121.98611873 -60.24990789 116.46960038 -60.25140381 110.95263672 C-60.24817757 103.16141036 -60.20558068 95.37028241 -60.16766357 87.5791626 C-60.14758299 83.42917235 -60.138313 79.27937034 -60.13751221 75.1293335 C-60.13369369 73.24475092 -60.12984988 71.3601684 -60.12597656 69.47558594 C-60.12807632 68.60806702 -60.13017609 67.7405481 -60.13233948 66.84674072 C-60.11300866 60.92550866 -60.11300866 60.92550866 -59 59.8125 C-56.66839945 59.71340698 -54.33370058 59.68279496 -52 59.6875 C-50.72125 59.68492188 -49.4425 59.68234375 -48.125 59.6796875 C-45 59.8125 -45 59.8125 -44 60.8125 C-43.89407494 63.68677649 -43.85322351 66.53715061 -43.85473633 69.41210938 C-43.85137772 70.3146344 -43.8480191 71.21715942 -43.84455872 72.14703369 C-43.83501117 75.15011958 -43.83310316 78.15314985 -43.83203125 81.15625 C-43.82881934 83.24076358 -43.82545532 85.32527694 -43.82194519 87.40979004 C-43.81594304 91.79142783 -43.8141062 96.17304588 -43.81469727 100.5546875 C-43.8147985 106.15547618 -43.80119117 111.75613698 -43.78392506 117.35689545 C-43.7727716 121.6687477 -43.77077915 125.98056949 -43.77130699 130.29243469 C-43.77013019 132.35598691 -43.76572531 134.41954 -43.75797462 136.483078 C-43.7481152 139.3813857 -43.75107709 142.27942177 -43.75708008 145.17773438 C-43.75146057 146.02277527 -43.74584106 146.86781616 -43.74005127 147.73846436 C-43.79259743 157.78367469 -45.45028905 165.26278905 -52.75 172.5625 C-59.16002399 177.00020892 -66.39106067 177.63166514 -74 176.8125 C-82.15806212 174.55966271 -89.48968718 170.65619106 -96.8125 166.5 C-98.30813477 165.68499023 -98.30813477 165.68499023 -99.83398438 164.85351562 C-106.25968869 161.23237687 -111.60419145 157.60411709 -115 150.8125 C-115.0997671 149.46004733 -115.13935273 148.10288532 -115.14717102 146.7467804 C-115.15432632 145.89590347 -115.16148163 145.04502655 -115.16885376 144.16836548 C-115.17154266 143.23277802 -115.17423157 142.29719055 -115.17700195 141.33325195 C-115.18357315 140.34933975 -115.19014435 139.36542755 -115.19691467 138.35169983 C-115.21667831 135.08472625 -115.22831807 131.81779873 -115.23828125 128.55078125 C-115.24235678 127.43603109 -115.2464323 126.32128094 -115.25063133 125.17275047 C-115.27150669 119.27084919 -115.28580119 113.36897126 -115.29516602 107.46704102 C-115.30622409 101.37160939 -115.3406132 95.27654347 -115.38033772 89.18124104 C-115.40649182 84.4945966 -115.41485688 79.80803936 -115.41844749 75.12132835 C-115.42331777 72.87468182 -115.43494422 70.6280393 -115.45348549 68.381464 C-115.47784701 65.23358915 -115.47691684 62.08666108 -115.4699707 58.9387207 C-115.48278076 58.01325439 -115.49559082 57.08778809 -115.50878906 56.13427734 C-115.46096793 50.17730354 -114.48160255 46.68881525 -111 41.8125 C-108.22924805 39.64477539 -108.22924805 39.64477539 -105.07421875 37.84765625 C-104.50491135 37.51685562 -103.93560394 37.18605499 -103.3490448 36.8452301 C-101.57456718 35.81850874 -99.78795559 34.81551751 -98 33.8125 C-96.38472412 32.87639893 -96.38472412 32.87639893 -94.73681641 31.92138672 C-91.43914588 30.012051 -88.12767953 28.1287521 -84.8125 26.25 C-82.35615495 24.85264353 -79.90080131 23.45354789 -77.4453125 22.0546875 C-76.82748398 21.70300003 -76.20965546 21.35131256 -75.57310486 20.9889679 C-69.10018349 17.30345017 -62.64138436 13.59375457 -56.1875 9.875 C-55.10847412 9.25463867 -54.02944824 8.63427734 -52.91772461 7.99511719 C-48.35350382 5.36312449 -43.80501361 2.71740469 -39.32421875 -0.0546875 C-38.64270752 -0.47500244 -37.96119629 -0.89531738 -37.2590332 -1.32836914 C-35.54885112 -2.39188655 -33.84807996 -3.47050002 -32.1484375 -4.55078125 C-20.10667283 -10.81070606 -10.93898633 -6.75405791 0 0 Z " fill="#20A365" transform="translate(140,20.1875)"/>
<path d="M0 0 C5.70675647 5.26981224 7.51437696 12.03478548 8.20703125 19.5625 C8.1875 21.3125 8.1875 21.3125 7.1875 22.3125 C4.83436445 22.38521741 2.47916332 22.39620868 0.125 22.375 C-1.81052734 22.36146484 -1.81052734 22.36146484 -3.78515625 22.34765625 C-4.78417969 22.33605469 -5.78320312 22.32445313 -6.8125 22.3125 C-7.17601562 21.55324219 -7.53953125 20.79398438 -7.9140625 20.01171875 C-10.94516461 13.81619266 -10.94516461 13.81619266 -15.875 9.1875 C-25.30627818 6.3781831 -36.84305382 5.59859993 -46.1328125 9.33203125 C-48.80557014 10.89217583 -49.84241813 12.40225439 -50.8125 15.3125 C-51.06403259 17.97154469 -51.06403259 17.97154469 -49.8125 20.3125 C-45.37346273 22.99744904 -41.05868289 24.01472113 -35.9921875 24.7421875 C-34.47131548 24.98282853 -32.95048341 25.2237222 -31.4296875 25.46484375 C-29.06779377 25.82727395 -26.7053019 26.18485047 -24.34179688 26.53662109 C-0.3410225 30.14882832 -0.3410225 30.14882832 6.8125 37.75 C11.0313281 43.51986784 11.92596404 49.32016864 11.1875 56.3125 C9.67814678 63.45834416 6.89107756 68.81752126 0.76953125 72.94140625 C-8.68182262 78.47358094 -17.8005083 79.69082268 -28.625 79.625 C-29.58623779 79.62008545 -30.54747559 79.6151709 -31.5378418 79.61010742 C-43.24730268 79.41785813 -54.42336127 77.66228735 -63.58984375 69.78515625 C-68.71449114 64.46003365 -70.55317613 58.00786518 -71.0625 50.75 C-70.8125 48.3125 -70.8125 48.3125 -69.8125 47.3125 C-67.45936445 47.23978259 -65.10416332 47.22879132 -62.75 47.25 C-61.45964844 47.25902344 -60.16929688 47.26804688 -58.83984375 47.27734375 C-57.84082031 47.28894531 -56.84179688 47.30054688 -55.8125 47.3125 C-55.58175781 47.98796875 -55.35101563 48.6634375 -55.11328125 49.359375 C-52.52929329 56.51351757 -52.52929329 56.51351757 -46.8125 61.3125 C-41.1083316 63.81034444 -35.55126 63.64449541 -29.4375 63.625 C-27.93316406 63.64916992 -27.93316406 63.64916992 -26.3984375 63.67382812 C-19.79435306 63.67815017 -13.34027297 63.41397913 -8.12548828 58.8293457 C-6.46967995 56.91645296 -6.35047297 55.8187159 -6.3125 53.3125 C-6.2815625 52.631875 -6.250625 51.95125 -6.21875 51.25 C-6.67720045 49.07841833 -6.67720045 49.07841833 -9.00390625 47.65625 C-17.32513024 43.67502461 -26.88958869 43.00817247 -35.9375 41.875 C-47.58648087 40.36811797 -57.77315938 38.62662097 -65.8125 29.3125 C-68.79920593 23.96131854 -68.51910393 17.28104811 -67.8125 11.3125 C-65.81614304 4.39308801 -62.38857774 0.12488624 -56.2109375 -3.5078125 C-39.38491622 -11.78380342 -15.26579996 -11.67574955 0 0 Z " fill="#20A365" transform="translate(172.8125,85.6875)"/>
</svg>
