<?xml version="1.0" encoding="UTF-8"?>
<svg version="1.1" xmlns="http://www.w3.org/2000/svg" width="96" height="96">
<path d="M0 0 C7.56400401 0.15280816 12.77186955 3.47226086 18.375 8.375 C22.39430438 7.03523187 25.39569758 5.03568985 28.7265625 2.49609375 C33.0188494 -0.4230682 38.39682254 -0.37580709 43.375 0.375 C45.82008024 2.64117193 46.91042207 4.44584414 48.375 7.375 C48.47325199 10.21852821 48.51400483 13.03202042 48.5 15.875 C48.50386719 16.66003906 48.50773437 17.44507812 48.51171875 18.25390625 C48.50165394 24.12169213 48.50165394 24.12169213 47.375 26.375 C47.92027344 26.52195312 48.46554688 26.66890625 49.02734375 26.8203125 C56.16123914 28.94218908 63.14563703 32.03095555 67.375 38.375 C67.79652851 42.73079458 68.00181973 45.20311964 65.9375 49.0625 C62.42747445 52.23008404 58.58169435 54.26075466 54.375 56.375 C53.199375 56.973125 52.02375 57.57125 50.8125 58.1875 C50.008125 58.579375 49.20375 58.97125 48.375 59.375 C48.47039062 60.06464844 48.56578125 60.75429687 48.6640625 61.46484375 C49.58119713 69.23915938 49.3439328 75.35509553 45.875 82.4375 C42.51928775 85.03817699 40.13788915 85.01548398 35.97265625 84.80078125 C29.78181839 83.78604241 25.03529512 80.45275823 20.375 76.375 C16.82461249 78.08268079 13.58101621 80.11698184 10.27734375 82.25390625 C5.62895479 84.99330591 0.61703559 85.01091907 -4.625 84.375 C-7.72299981 82.18373184 -8.42852112 80.96443664 -9.625 77.375 C-9.72152378 74.51051491 -9.76425903 71.67618925 -9.75 68.8125 C-9.75580078 67.64170898 -9.75580078 67.64170898 -9.76171875 66.44726562 C-9.75167749 60.62835498 -9.75167749 60.62835498 -8.625 58.375 C-9.346875 58.25511719 -10.06875 58.13523438 -10.8125 58.01171875 C-16.6345322 56.69367535 -22.58264154 53.92036628 -26.75 49.5625 C-29.28010093 45.26132842 -29.33039679 43.31277752 -28.625 38.375 C-25.58910773 32.69920141 -19.3919237 29.70854598 -13.484375 27.6171875 C-11.87806301 27.15357713 -10.2528869 26.75599481 -8.625 26.375 C-8.955 25.385 -9.285 24.395 -9.625 23.375 C-9.77321529 20.73562776 -9.85597341 18.13993877 -9.875 15.5 C-9.895625 14.79230469 -9.91625 14.08460937 -9.9375 13.35546875 C-9.97139216 8.80544667 -9.38491053 6.00575608 -6.625 2.375 C-4.17549379 -0.07450621 -3.37776979 0.05228746 0 0 Z M-2.625 5.375 C-5.09327522 9.07741282 -4.86259026 11.0341111 -4.8125 15.4375 C-4.80605469 16.68660156 -4.79960937 17.93570312 -4.79296875 19.22265625 C-4.84046558 22.27655979 -4.84046558 22.27655979 -3.625 24.375 C4.13175642 24.78057196 4.13175642 24.78057196 10.73046875 21.3046875 C12.43781458 19.05873567 13.97161716 16.821037 15.375 14.375 C12.20329365 9.61744047 8.66974113 7.26888817 3.375 5.375 C0.1196344 4.78723366 0.1196344 4.78723366 -2.625 5.375 Z M25.375 11.375 C24.715 12.365 24.055 13.355 23.375 14.375 C26.04237076 18.93958518 28.33664257 22.69723981 33.51171875 24.41796875 C36.47580467 24.88450535 39.3791636 25.22250258 42.375 25.375 C43.48583501 22.04249498 43.54259585 19.44461042 43.5625 15.9375 C43.57667969 14.80441406 43.59085938 13.67132813 43.60546875 12.50390625 C43.38571135 9.52042021 42.93343386 7.88204577 41.375 5.375 C34.5819064 4.50779656 30.54008823 7.05147401 25.375 11.375 Z M18.375 18.375 C16.73823743 20.3350281 16.73823743 20.3350281 15.375 22.375 C18.015 22.375 20.655 22.375 23.375 22.375 C22.01176257 20.3350281 22.01176257 20.3350281 20.375 18.375 C19.715 18.375 19.055 18.375 18.375 18.375 Z M10.10546875 29.12109375 C6.79279991 33.43578883 3.54206837 37.75759557 3.1875 43.3125 C6.33833068 51.53299929 6.33833068 51.53299929 12.375 57.375 C14.6623598 57.54984831 16.95641443 57.64220049 19.25 57.6875 C21.10238281 57.74357422 21.10238281 57.74357422 22.9921875 57.80078125 C26.39813334 57.66190662 26.39813334 57.66190662 28.64453125 55.62890625 C31.95720009 51.31421117 35.20793163 46.99240443 35.5625 41.4375 C32.41166932 33.21700071 32.41166932 33.21700071 26.375 27.375 C24.0876402 27.20015169 21.79358557 27.10779951 19.5 27.0625 C17.64761719 27.00642578 17.64761719 27.00642578 15.7578125 26.94921875 C12.35186666 27.08809338 12.35186666 27.08809338 10.10546875 29.12109375 Z M-2.625 29.375 C-1.965 31.355 -1.305 33.335 -0.625 35.375 C0.75062854 34.08534824 2.08266393 32.74810707 3.375 31.375 C3.375 30.715 3.375 30.055 3.375 29.375 C1.395 29.375 -0.585 29.375 -2.625 29.375 Z M35.375 29.375 C36.49354586 33.10114153 36.49354586 33.10114153 39.375 35.375 C39.705 33.395 40.035 31.415 40.375 29.375 C38.725 29.375 37.075 29.375 35.375 29.375 Z M-22.3125 38.3125 C-23.83173269 40.37865106 -23.83173269 40.37865106 -24 43.25 C-21.79178771 48.2686643 -17.47487203 50.14391257 -12.625 52.375 C-9.23534392 53.31034083 -9.23534392 53.31034083 -6.625 53.375 C-3.08034612 44.80875312 -3.08034612 39.94124688 -6.625 31.375 C-12.38039083 31.375 -17.73530679 35.01266304 -22.3125 38.3125 Z M45.375 31.375 C42.68382908 37.40322286 41.91411975 40.90538748 43.375 47.375 C44.81499707 50.7600877 44.81499707 50.7600877 46.375 53.375 C53.02530706 51.65587301 57.49723898 49.22139278 62.375 44.375 C62.49135105 42.07718446 62.49135105 42.07718446 61.375 39.375 C56.89630935 35.09512973 51.72733844 31.375 45.375 31.375 Z M38.375 48.375 C36.08807976 51.61264755 36.08807976 51.61264755 35.375 55.375 C37.355 55.375 39.335 55.375 41.375 55.375 C40.715 53.065 40.055 50.755 39.375 48.375 C39.045 48.375 38.715 48.375 38.375 48.375 Z M-0.625 49.375 C-1.285 51.355 -1.945 53.335 -2.625 55.375 C-0.315 55.705 1.995 56.035 4.375 56.375 C2.68692092 52.14415097 2.68692092 52.14415097 -0.625 49.375 Z M-3.625 60.375 C-5.10293555 63.33087111 -4.79553651 66.02497645 -4.8125 69.3125 C-4.82667969 70.55902344 -4.84085938 71.80554688 -4.85546875 73.08984375 C-4.88740498 76.51776297 -4.88740498 76.51776297 -2.625 79.375 C3.46524932 80.51692175 7.23899879 78.1437876 12.43359375 75.078125 C13.07425781 74.51609375 13.71492188 73.9540625 14.375 73.375 C14.375 68.58176112 13.35595139 66.79011545 10.5078125 63.08203125 C6.43821137 59.82485965 1.39136675 60.24512643 -3.625 60.375 Z M34 60.3125 C28.56920992 61.9042833 26.41850732 65.79586285 23.375 70.375 C26.37760085 74.69874523 29.48410614 77.47977863 34.375 79.375 C38.08658857 79.96060449 38.08658857 79.96060449 41.375 79.375 C43.81429003 75.71606495 43.63789673 72.97221667 43.5625 68.75 C43.5615332 67.70972656 43.5615332 67.70972656 43.56054688 66.6484375 C43.82508753 63.22328846 43.82508753 63.22328846 42.375 60.375 C39.58125774 60.21066222 36.80137077 60.36437724 34 60.3125 Z M15.375 62.375 C17.025 64.025 18.675 65.675 20.375 67.375 C21.365 65.725 22.355 64.075 23.375 62.375 C20.735 62.375 18.095 62.375 15.375 62.375 Z " fill="#52C1DE" transform="translate(28.625,5.625)"/>
<path d="M0 0 C2.21898968 1.58499263 2.88676251 2.66028753 3.75 5.25 C4.07369432 9.13433181 4.05567313 12.02205762 1.75 15.25 C-1.47794238 17.55567313 -4.36566819 17.57369432 -8.25 17.25 C-10.83971247 16.38676251 -11.91500737 15.71898968 -13.5 13.5 C-14.71967318 9.84098045 -14.71967318 6.65901955 -13.5 3 C-10.24415792 -1.55817891 -5.03141991 -1.67713997 0 0 Z " fill="#53C1DE" transform="translate(53.25,39.75)"/>
</svg>
