<?xml version="1.0" encoding="UTF-8"?>
<svg version="1.1" xmlns="http://www.w3.org/2000/svg" width="240" height="240">
<path d="M0 0 C0.99902344 -0.01933594 1.99804688 -0.03867188 3.02734375 -0.05859375 C6.0625 0.4375 6.0625 0.4375 8.79296875 2.43359375 C13.35698954 5.23089681 17.19064154 4.94246477 22.4375 4.9375 C51.90747548 5.63088257 78.17581034 19.52285348 98.49609375 40.5234375 C113.73919938 57.83143871 121.53836163 77.26395701 120.24267578 100.27050781 C119.34335951 111.08667479 113.46684106 121.0838183 105.66015625 128.484375 C102.32443682 130.99243472 98.83936205 132.92300894 95.125 134.8125 C94.46902832 135.14652832 93.81305664 135.48055664 93.13720703 135.82470703 C75.77208167 144.15773706 53.8106251 142.10327588 36.01855469 136.15380859 C32.97361442 135.03874934 30.02209835 133.76193968 27.0625 132.4375 C28.15249506 131.27718268 29.2568535 130.12884873 30.40625 129.02734375 C31.61123593 127.87067094 32.77292376 126.66837598 33.90625 125.44140625 C36.22246217 123.22458378 38.12240783 121.73800792 41.0625 120.4375 C44.52435125 120.6981678 47.56571003 121.57128413 50.90625 122.51171875 C55.84600207 123.77472354 60.73676497 123.8084631 65.8125 123.8125 C67.10655762 123.83195679 67.10655762 123.83195679 68.42675781 123.85180664 C78.50251759 123.78928999 87.33790337 121.01005353 95.0625 114.4375 C101.55111622 107.47647917 104.12650138 99.90970467 104.0625 90.4375 C102.43134538 75.77464775 95.88597612 63.27465565 86.0625 52.4375 C85.38574219 51.67953125 84.70898438 50.9215625 84.01171875 50.140625 C68.12860369 33.29929642 45.78222462 22.98389164 22.75 21.875 C21.49606445 21.81022461 21.49606445 21.81022461 20.21679688 21.74414062 C18.16553065 21.63864693 16.1140352 21.53762685 14.0625 21.4375 C13.78148438 22.21480469 13.50046875 22.99210937 13.2109375 23.79296875 C11.52498384 27.67524979 9.90586109 28.64834915 6.0625 30.4375 C0.41325443 31.20363056 -4.30751681 31.2095973 -9.5 28.75 C-12.7695199 25.64814779 -14.69600523 23.05399202 -15.37109375 18.53515625 C-15.37900672 12.38678199 -15.3840054 8.12435704 -10.9375 3.4375 C-7.20629988 0.77052535 -4.57356993 0.00588619 0 0 Z " fill="#7D56C2" transform="translate(104.9375,79.5625)"/>
<path d="M0 0 C17.24580405 11.61152148 27.1382395 30.33718783 31.9296875 50.19140625 C32.37070638 52.78722791 32.46051798 55.18519774 32.375 57.8125 C15.98970924 53.2865526 15.98970924 53.2865526 12.3125 47.65234375 C11.55420003 45.27475738 10.87952053 42.86908371 10.28515625 40.4453125 C7.60180789 29.73495209 0.04272616 20.27548846 -9.05859375 14.18359375 C-17.65066694 9.23151216 -26.62034568 8.36055485 -36.4140625 10.390625 C-48.37870989 14.56875584 -56.70789706 25.11687087 -62.28125 36.06640625 C-71.34429991 55.94736131 -73.46756516 80.86263803 -66.39208984 101.81835938 C-64.42364077 106.93557518 -61.93989439 111.80085247 -59.33203125 116.6171875 C-57.625 119.8125 -57.625 119.8125 -56.625 122.8125 C-55.90054688 122.76609375 -55.17609375 122.7196875 -54.4296875 122.671875 C-48.29644137 122.44290048 -44.35268727 122.43938928 -39.625 126.8125 C-35.73067779 132.24774108 -35.83508884 137.33522846 -36.625 143.8125 C-38.81143699 148.42831142 -41.12099804 150.54114085 -45.625 152.8125 C-51.17308604 153.64135269 -56.09640883 153.5365695 -61.1875 151.125 C-65.07937205 147.43271113 -66.57590391 145.35902696 -66.75 139.875 C-67.11718502 135.15628189 -69.20645336 131.94323484 -71.8125 128.125 C-87.07723707 105.59307225 -90.36281908 77.68626145 -85.54223633 51.1159668 C-81.5260972 32.87881187 -71.77948743 12.45013322 -55.97705078 1.69042969 C-37.94502891 -9.77866599 -18.51796136 -10.95285197 0 0 Z " fill="#7D56C2" transform="translate(141.625,27.1875)"/>
<path d="M0 0 C0.5361079 2.18380675 1.05320098 4.37228583 1.5625 6.5625 C1.85253906 7.78066406 2.14257812 8.99882813 2.44140625 10.25390625 C3.12910577 14.86582122 3.24625052 18.90938431 0.80078125 23.01171875 C0.30964844 23.56472656 -0.18148437 24.11773437 -0.6875 24.6875 C-8.32825463 34.25681049 -13.32775025 46.11101596 -12.87109375 58.49609375 C-11.61360284 68.29545984 -8.96710277 75.21184531 -1.17578125 81.46484375 C9.97982507 89.33585503 24.17095453 90.00440003 37.28515625 87.81640625 C62.16203312 82.34924824 84.28674883 68.40033054 98.1706543 46.87231445 C100.78852754 42.70235878 100.78852754 42.70235878 102 38 C101.67 37.34 101.34 36.68 101 36 C100.4900901 30.41606867 100.26129937 25.55947912 102.6875 20.4375 C105.78935221 17.1679801 108.38350798 15.24149477 112.90234375 14.56640625 C119.05071801 14.55849328 123.31314296 14.5534946 128 19 C131.31158045 23.68271909 131.68582396 27.34608826 131.546875 32.98046875 C130.64272427 37.97267244 128.00123825 41.00109214 124 44 C122.989375 44.268125 121.97875 44.53625 120.9375 44.8125 C116.59801673 46.56675919 115.79532065 49.72753912 113.75 53.796875 C101.2848111 76.61262253 77.69006463 93.71841731 53.07397461 101.27783203 C43.83136014 103.97388561 35.56404915 105.20472522 25.9375 105.25 C24.33358398 105.2809375 24.33358398 105.2809375 22.69726562 105.3125 C7.78789779 105.38456945 -5.83151345 101.0799473 -16.9375 90.8125 C-27.17763886 79.80058597 -29.696647 66.68886796 -29.37109375 52.2109375 C-28.72291538 39.60259954 -15.42853273 0 0 0 Z " fill="#7D56C2" transform="translate(44,115)"/>
</svg>
