<?xml version="1.0" encoding="UTF-8"?>
<svg version="1.1" xmlns="http://www.w3.org/2000/svg" width="240" height="240">
<path d="M0 0 C5.90736963 4.78567213 11.28692531 9.98704909 16.578125 15.4375 C25.090531 24.14769201 33.10784434 28.82656539 45.328125 29.9375 C53.26523884 29.24126194 59.39055753 26.74231054 65.78515625 22.02734375 C68.09317626 20.49009109 70.24943578 19.46756119 72.890625 18.625 C73.550625 18.955 74.210625 19.285 74.890625 19.625 C74.39224067 30.83864739 66.84868776 40.26944041 58.890625 47.625 C42.71218526 60.30539871 22.19474925 61.6998755 2.38623047 59.32470703 C-15.64331817 56.1190002 -28.49862681 44.48089316 -40.796875 31.8125 C-48.92433204 23.49620124 -57.01766666 17.94112338 -68.91796875 17.52734375 C-78.01108213 17.82295862 -85.78006389 21.07771763 -92.8125 26.83984375 C-95.109375 28.625 -95.109375 28.625 -97.421875 28.375 C-97.97875 28.1275 -98.535625 27.88 -99.109375 27.625 C-98.66117242 17.54044202 -92.47536735 9.08778663 -85.70703125 1.98046875 C-63.06462522 -18.55091597 -23.89405408 -18.25073477 0 0 Z " fill="#00B4D2" transform="translate(162.109375,60.375)"/>
<path d="M0 0 C7.10238911 5.42494042 13.46862431 11.40645249 19.6875 17.8125 C28.199906 26.52269201 36.21721934 31.20156539 48.4375 32.3125 C56.37461384 31.61626194 62.49993253 29.11731054 68.89453125 24.40234375 C71.20255126 22.86509109 73.35881078 21.84256119 76 21 C76.66 21.33 77.32 21.66 78 22 C77.55179742 32.08455798 71.36599235 40.53721337 64.59765625 47.64453125 C49.01208759 61.7770093 31.04428419 63.1886794 10.97216797 62.22753906 C-9.57435004 60.65456758 -23.9654509 48.32254675 -37.6875 34.1875 C-46.199906 25.47730799 -54.21721934 20.79843461 -66.4375 19.6875 C-74.37461384 20.38373806 -80.49993253 22.88268946 -86.89453125 27.59765625 C-89.20255126 29.13490891 -91.35881078 30.15743881 -94 31 C-94.66 30.67 -95.32 30.34 -96 30 C-95.50161567 18.78635261 -87.95806276 9.35555959 -80 2 C-58.45133598 -14.88949342 -22.46819878 -15.40676488 0 0 Z " fill="#00A3C0" transform="translate(99,130)"/>
</svg>
