<?xml version="1.0" encoding="UTF-8"?>
<svg xmlns="http://www.w3.org/2000/svg" xmlns:xlink="http://www.w3.org/1999/xlink" width="250px" height="280px" viewBox="0 0 250 280" version="1.1">
<g id="surface1">
<path style=" stroke:none;fill-rule:nonzero;fill:rgb(94.117647%,0%,0%);fill-opacity:1;" d="M 103.472656 16.777344 C 103.167969 17 102.75 17.222656 102.582031 17.222656 C 101.972656 17.222656 99.445312 18.890625 95.5 21.859375 C 93.390625 23.445312 91.582031 24.722656 91.445312 24.722656 C 91.332031 24.722656 90.777344 24.945312 90.222656 25.25 L 89.195312 25.75 L 92.445312 25.917969 C 94.222656 25.972656 96.082031 26.195312 96.527344 26.390625 C 97.082031 26.609375 99.5 26.722656 103.609375 26.75 C 109.167969 26.804688 109.945312 26.75 110.554688 26.304688 C 110.917969 26.054688 111.5 25.832031 111.832031 25.832031 C 112.167969 25.832031 112.582031 25.640625 112.777344 25.417969 C 112.972656 25.195312 113.332031 25 113.609375 25 C 113.890625 25 114.25 24.804688 114.445312 24.582031 C 114.640625 24.359375 115.027344 24.167969 115.304688 24.167969 C 115.582031 24.167969 115.859375 24.054688 115.972656 23.917969 C 116.054688 23.777344 117.082031 23.195312 118.277344 22.609375 C 121.390625 21.109375 121.5 21.082031 122.527344 20.832031 C 123.082031 20.722656 123.304688 20.582031 123.054688 20.5 C 121.945312 20.109375 119.890625 19.722656 119.082031 19.722656 C 118.582031 19.722656 117.917969 19.527344 117.609375 19.304688 C 117.332031 19.082031 116.640625 18.890625 116.082031 18.890625 C 115.554688 18.890625 114.859375 18.695312 114.554688 18.472656 C 114.277344 18.25 113.722656 18.082031 113.332031 18.054688 C 112.945312 18.054688 112.082031 17.890625 111.390625 17.667969 C 107.917969 16.554688 104.277344 16.167969 103.472656 16.777344 Z M 103.472656 16.777344 "/>
<path style=" stroke:none;fill-rule:nonzero;fill:rgb(94.117647%,0%,0%);fill-opacity:1;" d="M 139.445312 16.804688 C 139.054688 17.027344 138.390625 17.222656 137.917969 17.222656 C 137.472656 17.222656 136.832031 17.417969 136.554688 17.640625 C 136.25 17.859375 135.722656 18.054688 135.390625 18.054688 C 135.054688 18.054688 134.417969 18.222656 133.972656 18.445312 C 132.417969 19.222656 131.054688 19.582031 127.640625 20.222656 C 126.304688 20.472656 125.667969 20.832031 126.554688 20.832031 C 127.082031 20.832031 129.777344 21.695312 130.777344 22.195312 C 131.027344 22.304688 131.695312 22.609375 132.222656 22.832031 C 132.75 23.082031 134.082031 23.667969 135.140625 24.167969 C 136.222656 24.640625 137.472656 25.195312 137.917969 25.390625 C 138.390625 25.582031 139.222656 25.972656 139.804688 26.222656 C 140.390625 26.472656 141.140625 26.667969 141.472656 26.667969 C 141.804688 26.695312 142.390625 26.859375 142.777344 27.082031 C 143.75 27.640625 148.972656 27.640625 150.554688 27.082031 C 151.195312 26.859375 152.222656 26.667969 152.777344 26.667969 C 153.359375 26.667969 154.640625 26.472656 155.582031 26.222656 C 156.609375 25.972656 157.945312 25.832031 158.804688 25.890625 C 159.640625 25.972656 160.359375 25.917969 160.445312 25.777344 C 160.527344 25.667969 160.472656 25.554688 160.332031 25.554688 C 159.972656 25.554688 157.804688 24.527344 156.804688 23.890625 C 156.359375 23.582031 155.777344 23.25 155.554688 23.140625 C 155.332031 23.054688 154.695312 22.609375 154.140625 22.167969 C 153.582031 21.75 153.027344 21.390625 152.917969 21.390625 C 152.804688 21.390625 152.25 21.027344 151.695312 20.609375 C 151.140625 20.167969 150.5 19.722656 150.277344 19.640625 C 150.054688 19.527344 149.5 19.195312 149.027344 18.917969 C 148.582031 18.609375 147.304688 17.917969 146.222656 17.390625 C 144.5 16.5 144.027344 16.390625 142.195312 16.390625 C 140.945312 16.417969 139.859375 16.554688 139.445312 16.804688 Z M 139.445312 16.804688 "/>
<path style=" stroke:none;fill-rule:nonzero;fill:rgb(94.117647%,0%,0%);fill-opacity:1;" d="M 81.804688 27.222656 C 80.140625 27.359375 77.390625 27.582031 75.695312 27.75 C 74.027344 27.917969 71.945312 28.054688 71.109375 28.054688 C 68.890625 28.082031 66.832031 28.890625 65.359375 30.304688 C 64.140625 31.5 60.832031 35.640625 60.832031 35.972656 C 60.832031 36.304688 58.277344 39.554688 56.832031 41.082031 C 55.25 42.75 55.25 42.75 59.25 41.359375 C 59.722656 41.167969 60.832031 40.945312 61.667969 40.832031 C 62.5 40.722656 63.554688 40.5 63.972656 40.332031 C 64.417969 40.140625 65.167969 40 65.667969 40 C 66.195312 40 67.054688 39.804688 67.582031 39.582031 C 68.140625 39.359375 69 39.167969 69.5 39.167969 C 70 39.167969 70.667969 38.972656 70.945312 38.75 C 71.25 38.527344 71.777344 38.332031 72.109375 38.332031 C 72.445312 38.332031 72.859375 38.140625 73.054688 37.917969 C 73.25 37.695312 73.609375 37.5 73.890625 37.5 C 74.167969 37.5 74.527344 37.304688 74.722656 37.082031 C 74.917969 36.859375 75.222656 36.667969 75.390625 36.667969 C 75.777344 36.667969 76.945312 35.609375 81.554688 31.082031 C 83.582031 29.109375 85.359375 27.5 85.527344 27.5 C 85.695312 27.5 85.832031 27.359375 85.832031 27.222656 C 85.832031 27.054688 85.609375 26.972656 85.359375 27 C 85.082031 27 83.5 27.109375 81.804688 27.222656 Z M 81.804688 27.222656 "/>
<path style=" stroke:none;fill-rule:nonzero;fill:rgb(94.117647%,0%,0%);fill-opacity:1;" d="M 163.554688 27.25 C 163.667969 27.332031 164.304688 27.832031 165 28.332031 C 165.695312 28.859375 166.554688 29.554688 166.945312 29.917969 C 167.332031 30.25 167.972656 30.804688 168.359375 31.167969 C 168.75 31.527344 170.109375 32.75 171.359375 33.890625 C 175.027344 37.195312 175.554688 37.582031 177.140625 38.304688 C 177.445312 38.445312 177.804688 38.722656 177.917969 38.859375 C 178 39.027344 178.332031 39.167969 178.609375 39.167969 C 178.890625 39.167969 179.472656 39.332031 179.917969 39.554688 C 180.972656 40.082031 183.25 40.554688 186.109375 40.804688 C 187.417969 40.945312 188.777344 41.167969 189.082031 41.359375 C 189.417969 41.527344 190.167969 41.667969 190.75 41.667969 C 191.359375 41.667969 192.082031 41.859375 192.390625 42.082031 C 192.667969 42.304688 193.222656 42.5 193.582031 42.5 C 194.222656 42.5 194.167969 42.390625 192.890625 41.167969 C 192.140625 40.445312 191.027344 39.222656 190.417969 38.472656 C 189.804688 37.695312 189.167969 36.945312 189 36.804688 C 188.832031 36.640625 188.082031 35.722656 187.332031 34.722656 C 185.472656 32.222656 181.277344 28.054688 180.640625 28.054688 C 180.332031 28.054688 179.554688 27.859375 178.859375 27.640625 C 177.945312 27.332031 175.859375 27.222656 170.5 27.167969 C 166.582031 27.109375 163.445312 27.167969 163.554688 27.25 Z M 163.554688 27.25 "/>
<path style=" stroke:none;fill-rule:nonzero;fill:rgb(94.117647%,0%,0%);fill-opacity:1;" d="M 52.082031 44.609375 C 51.472656 44.972656 50.777344 45.332031 50.554688 45.445312 C 50.332031 45.527344 49.804688 45.777344 49.390625 46 C 49 46.222656 48.417969 46.390625 48.109375 46.390625 C 47.804688 46.390625 47.417969 46.582031 47.222656 46.804688 C 47.027344 47.027344 46.609375 47.222656 46.277344 47.222656 C 45.945312 47.222656 45.417969 47.417969 45.109375 47.640625 C 44.832031 47.859375 44.332031 48.054688 44 48.054688 C 43.695312 48.054688 43.195312 48.25 42.890625 48.472656 C 42.609375 48.695312 42.140625 48.890625 41.890625 48.890625 C 41.640625 48.890625 41.082031 49.082031 40.640625 49.277344 C 40.222656 49.5 39.667969 49.75 39.445312 49.832031 C 39.222656 49.917969 38.832031 50.109375 38.609375 50.25 C 38.390625 50.390625 38 50.582031 37.777344 50.695312 C 36.667969 51.140625 35.167969 52.222656 34.917969 52.777344 C 34.804688 53 34.417969 53.75 34.027344 54.417969 C 33.640625 55.082031 33.332031 55.859375 33.332031 56.109375 C 33.332031 56.359375 33.140625 56.804688 32.917969 57.109375 C 32.695312 57.390625 32.5 57.945312 32.5 58.332031 C 32.5 58.722656 32.304688 59.332031 32.082031 59.722656 C 31.859375 60.109375 31.695312 60.75 31.667969 61.140625 C 31.667969 61.527344 31.472656 62.082031 31.25 62.390625 C 31.027344 62.667969 30.832031 63.222656 30.832031 63.554688 C 30.832031 64.222656 30.695312 64.527344 29.472656 66.890625 C 29.140625 67.554688 28.917969 68.167969 29 68.25 C 29.082031 68.332031 29.609375 68.027344 30.195312 67.609375 C 31.359375 66.722656 32.082031 66.25 32.917969 65.832031 C 33.222656 65.667969 33.859375 65.304688 34.304688 65 C 34.777344 64.695312 35.777344 64.140625 36.527344 63.75 C 37.304688 63.359375 38.304688 62.777344 38.75 62.5 C 39.222656 62.195312 39.832031 61.832031 40.140625 61.667969 C 41.582031 60.945312 43 59.804688 44.859375 57.859375 C 46.640625 56 46.945312 55.640625 46.945312 55.304688 C 46.945312 55.167969 47.109375 54.859375 47.304688 54.667969 C 47.472656 54.472656 47.859375 53.804688 48.167969 53.195312 C 48.445312 52.582031 48.777344 51.890625 48.917969 51.667969 C 49.054688 51.445312 49.25 51.054688 49.332031 50.832031 C 49.417969 50.609375 49.554688 50.277344 49.609375 50.140625 C 49.667969 49.972656 49.832031 49.667969 49.972656 49.445312 C 50.109375 49.222656 50.304688 48.832031 50.390625 48.609375 C 50.5 48.390625 50.804688 47.804688 51.109375 47.359375 C 51.417969 46.890625 51.777344 46.277344 51.917969 45.972656 C 52.054688 45.667969 52.472656 45.082031 52.859375 44.640625 C 53.722656 43.75 53.554688 43.722656 52.082031 44.609375 Z M 52.082031 44.609375 "/>
<path style=" stroke:none;fill-rule:nonzero;fill:rgb(94.117647%,0%,0%);fill-opacity:1;" d="M 196.667969 44.722656 C 196.667969 44.890625 196.804688 45.167969 196.945312 45.359375 C 197.859375 46.445312 199.140625 48.359375 199.695312 49.445312 C 200.027344 50.140625 200.554688 51.054688 200.832031 51.527344 C 201.109375 51.972656 201.640625 52.917969 202 53.609375 C 202.359375 54.304688 202.75 54.972656 202.859375 55.140625 C 202.972656 55.277344 203.582031 56.195312 204.195312 57.109375 C 205.304688 58.859375 208.304688 61.890625 209.554688 62.554688 C 209.945312 62.75 212 63.777344 214.082031 64.832031 C 216.195312 65.890625 218.640625 67.304688 219.527344 67.972656 C 220.390625 68.640625 221.109375 69.054688 221.109375 68.917969 C 221.109375 68.75 220.75 68 220.277344 67.277344 C 219.832031 66.527344 219.445312 65.722656 219.445312 65.5 C 219.445312 65.25 219.25 64.917969 219.027344 64.722656 C 218.804688 64.527344 218.609375 64.109375 218.609375 63.777344 C 218.609375 63.472656 218.417969 62.945312 218.195312 62.667969 C 217.972656 62.359375 217.777344 61.859375 217.777344 61.554688 C 217.777344 61.222656 217.582031 60.722656 217.359375 60.445312 C 217.140625 60.140625 216.945312 59.640625 216.945312 59.332031 C 216.945312 59 216.75 58.5 216.527344 58.222656 C 216.304688 57.917969 216.109375 57.390625 216.109375 57.054688 C 216.109375 56.722656 215.917969 56.304688 215.695312 56.109375 C 215.472656 55.917969 215.277344 55.609375 215.277344 55.417969 C 215.277344 55.25 214.972656 54.527344 214.582031 53.859375 C 214.222656 53.195312 213.777344 52.390625 213.640625 52.082031 C 213.25 51.304688 212.722656 50.695312 212.222656 50.472656 C 212 50.359375 211.25 49.972656 210.582031 49.582031 C 209.917969 49.195312 209.140625 48.890625 208.890625 48.890625 C 208.640625 48.890625 208.195312 48.695312 207.890625 48.472656 C 207.609375 48.25 207.054688 48.054688 206.667969 48.054688 C 206.277344 48.054688 205.667969 47.859375 205.277344 47.640625 C 204.890625 47.417969 204.25 47.25 203.859375 47.222656 C 203.472656 47.222656 202.917969 47.027344 202.609375 46.804688 C 202.332031 46.582031 201.777344 46.390625 201.445312 46.390625 C 200.777344 46.390625 200.472656 46.25 198.140625 45.054688 C 196.804688 44.359375 196.667969 44.332031 196.667969 44.722656 Z M 196.667969 44.722656 "/>
<path style=" stroke:none;fill-rule:nonzero;fill:rgb(94.117647%,0%,0%);fill-opacity:1;" d="M 25.417969 72.332031 C 24.082031 73.695312 22.554688 75.027344 20.304688 76.75 C 17.945312 78.582031 16.695312 79.695312 14.722656 81.667969 C 11.832031 84.554688 11.695312 85.109375 11.609375 94.390625 C 11.527344 101.167969 11.554688 101.390625 12.027344 100.777344 C 13.332031 99.082031 14.527344 97.695312 17.082031 94.859375 C 18.609375 93.195312 19.917969 91.75 20 91.667969 C 20.582031 91.167969 22.777344 88.027344 22.777344 87.722656 C 22.777344 87.5 22.917969 87.195312 23.109375 87 C 23.554688 86.554688 24.167969 84.832031 24.472656 83.082031 C 24.609375 82.277344 24.859375 81.359375 25 81.082031 C 25.167969 80.804688 25.277344 79.804688 25.277344 78.832031 C 25.304688 77.859375 25.472656 76.582031 25.695312 75.972656 C 25.917969 75.359375 26.109375 74.5 26.109375 74.082031 C 26.109375 73.640625 26.304688 72.859375 26.554688 72.332031 C 27.277344 70.804688 26.890625 70.804688 25.417969 72.332031 Z M 25.417969 72.332031 "/>
<path style=" stroke:none;fill-rule:nonzero;fill:rgb(94.117647%,0%,0%);fill-opacity:1;" d="M 222.5 71.417969 C 222.5 71.777344 222.695312 72.332031 222.917969 72.609375 C 223.140625 72.917969 223.332031 73.5 223.332031 73.917969 C 223.332031 74.332031 223.527344 75.027344 223.75 75.445312 C 223.972656 75.890625 224.167969 76.777344 224.167969 77.390625 C 224.167969 78.027344 224.359375 79 224.582031 79.527344 C 224.804688 80.082031 225 80.972656 225 81.472656 C 225 82 225.195312 82.890625 225.417969 83.417969 C 225.640625 83.972656 225.832031 84.777344 225.832031 85.195312 C 225.832031 85.609375 226.027344 86.222656 226.25 86.5 C 226.472656 86.804688 226.667969 87.25 226.667969 87.5 C 226.667969 87.75 226.972656 88.527344 227.359375 89.195312 C 227.722656 89.859375 228.167969 90.695312 228.332031 91.054688 C 228.472656 91.417969 230.359375 93.472656 232.472656 95.640625 C 236.167969 99.417969 238.054688 101.582031 238.417969 102.5 C 238.777344 103.472656 238.582031 102.054688 238.195312 100.972656 C 237.972656 100.332031 237.804688 98.804688 237.777344 97.359375 C 237.777344 95.972656 237.582031 93.222656 237.359375 91.25 C 237.140625 89.25 236.945312 87.027344 236.945312 86.277344 C 236.945312 84.25 236.140625 82.332031 234.722656 80.859375 C 233.25 79.390625 231.75 78.054688 231.5 78.054688 C 231.417969 78.054688 230.609375 77.5 229.722656 76.804688 C 228.832031 76.109375 228.027344 75.554688 227.917969 75.554688 C 227.527344 75.554688 224.445312 73 223.5 71.890625 C 222.582031 70.832031 222.5 70.777344 222.5 71.417969 Z M 222.5 71.417969 "/>
<path style=" stroke:none;fill-rule:nonzero;fill:rgb(94.117647%,0%,0%);fill-opacity:1;" d="M 80.832031 140.277344 L 80.832031 200 L 168.609375 200 L 168.609375 80.554688 L 80.832031 80.554688 Z M 166.332031 82.832031 C 166.804688 83.304688 166.804688 197.25 166.332031 197.722656 C 165.859375 198.195312 83.582031 198.195312 83.109375 197.722656 C 82.640625 197.25 82.640625 83.304688 83.109375 82.832031 C 83.582031 82.359375 165.859375 82.359375 166.332031 82.832031 Z M 166.332031 82.832031 "/>
<path style=" stroke:none;fill-rule:nonzero;fill:rgb(94.117647%,0%,0%);fill-opacity:1;" d="M 89.167969 140.277344 L 89.167969 191.667969 L 160.277344 191.667969 L 160.277344 88.890625 L 89.167969 88.890625 Z M 133.890625 96.972656 C 134.722656 97.109375 136.554688 97.332031 137.917969 97.472656 C 139.304688 97.609375 140.804688 97.859375 141.25 98 C 141.722656 98.167969 142.777344 98.359375 143.609375 98.472656 C 144.445312 98.554688 145.25 98.75 145.417969 98.890625 C 145.554688 99 146.082031 99.167969 146.527344 99.222656 C 147.304688 99.304688 147.359375 99.417969 147.445312 100.5 C 147.5 101.140625 147.332031 102.417969 147.109375 103.359375 C 146.859375 104.277344 146.667969 105.445312 146.667969 105.945312 C 146.667969 106.445312 146.472656 107.5 146.25 108.277344 L 145.804688 109.722656 L 144.554688 109.722656 C 143.890625 109.722656 142.859375 109.527344 142.304688 109.304688 C 141.777344 109.082031 140.859375 108.890625 140.304688 108.890625 C 139.75 108.859375 138.804688 108.695312 138.195312 108.472656 C 137.582031 108.25 136.554688 108.054688 135.917969 108.054688 C 135.277344 108.054688 133.777344 107.859375 132.582031 107.640625 C 129.582031 107.054688 122.082031 107.082031 118.917969 107.667969 C 116.5 108.140625 114.972656 108.609375 113.472656 109.359375 C 112.332031 109.945312 110 112.25 110 112.777344 C 110 113.027344 109.777344 113.5 109.527344 113.890625 C 109.140625 114.417969 109.054688 115.195312 109.054688 117.777344 C 109.027344 121.804688 109.472656 122.859375 112.472656 125.832031 C 115.582031 128.945312 120.945312 132.195312 128.195312 135.417969 C 130.054688 136.222656 136.582031 139.5 137.359375 140 C 137.832031 140.304688 138.390625 140.640625 138.609375 140.75 C 138.832031 140.859375 139.972656 141.582031 141.109375 142.332031 C 144.859375 144.859375 149.667969 149.945312 150.695312 152.5 C 150.804688 152.722656 151.054688 153.25 151.277344 153.667969 C 151.5 154.054688 151.667969 154.609375 151.667969 154.917969 C 151.667969 155.195312 151.859375 155.917969 152.082031 156.527344 C 152.554688 157.859375 152.640625 163.75 152.195312 165.417969 C 152.027344 166.027344 151.804688 166.972656 151.695312 167.5 C 151.445312 168.640625 150.140625 171.445312 149.332031 172.640625 C 148.554688 173.777344 144.722656 177.695312 144.027344 178.054688 C 143.722656 178.195312 143.109375 178.582031 142.640625 178.890625 C 142.195312 179.167969 141.25 179.695312 140.554688 180.027344 C 139.859375 180.359375 138.972656 180.804688 138.554688 181 C 138.167969 181.222656 137.640625 181.390625 137.417969 181.390625 C 137.195312 181.390625 136.640625 181.582031 136.222656 181.804688 C 135.777344 182.027344 135.140625 182.222656 134.777344 182.222656 C 134.417969 182.222656 133.890625 182.359375 133.582031 182.527344 C 133.277344 182.695312 132.054688 182.945312 130.890625 183.082031 C 129.722656 183.222656 128.054688 183.445312 127.222656 183.582031 C 125.195312 183.945312 113.527344 183.945312 111.945312 183.582031 C 111.25 183.445312 109.777344 183.195312 108.667969 183.054688 C 107.554688 182.917969 106.222656 182.695312 105.75 182.527344 C 104.75 182.25 102.859375 181.75 101.390625 181.417969 C 100.859375 181.277344 100.109375 181.054688 99.722656 180.890625 C 99.332031 180.722656 98.695312 180.527344 98.277344 180.445312 C 97.140625 180.195312 96.804688 179.359375 97.304688 177.945312 C 97.527344 177.332031 97.804688 176.222656 97.917969 175.5 C 98 174.777344 98.195312 174.109375 98.359375 174.027344 C 98.5 173.917969 98.609375 173.445312 98.640625 172.972656 C 98.640625 171.890625 99.527344 169.640625 100 169.5 C 100.167969 169.445312 100.609375 169.5 100.917969 169.667969 C 103.445312 170.832031 107.972656 172.054688 111.390625 172.5 C 112.390625 172.640625 113.75 172.890625 114.445312 173.054688 C 116.167969 173.472656 124.945312 173.25 128.332031 172.695312 C 131.667969 172.140625 133.417969 171.640625 135.445312 170.640625 C 137.222656 169.804688 140.277344 167.082031 140.277344 166.359375 C 140.277344 166.140625 140.472656 165.695312 140.695312 165.390625 C 141.25 164.640625 141.277344 159.804688 140.695312 158.722656 C 140.472656 158.277344 140.277344 157.695312 140.277344 157.417969 C 140.277344 157.167969 140.167969 156.945312 140.027344 156.945312 C 139.890625 156.945312 139.667969 156.667969 139.554688 156.304688 C 139.359375 155.722656 135.945312 152.222656 135.554688 152.222656 C 135.445312 152.222656 135.054688 151.972656 134.695312 151.667969 C 134.332031 151.359375 133.917969 151.027344 133.75 150.890625 C 133.609375 150.777344 133.277344 150.582031 133.054688 150.472656 C 132.832031 150.359375 132.277344 150.027344 131.804688 149.722656 C 131.359375 149.445312 130.359375 148.890625 129.582031 148.472656 C 128.832031 148.082031 128 147.667969 127.777344 147.527344 C 127.554688 147.390625 127.167969 147.195312 126.945312 147.109375 C 126.722656 147.027344 126.332031 146.832031 126.109375 146.695312 C 125.890625 146.554688 125.5 146.359375 125.277344 146.277344 C 125.054688 146.195312 124.667969 146 124.445312 145.859375 C 124.222656 145.722656 123.832031 145.527344 123.609375 145.445312 C 123.390625 145.359375 123 145.167969 122.777344 145.027344 C 122.554688 144.917969 121.5 144.390625 120.417969 143.917969 C 117.277344 142.445312 114.140625 140.832031 112.445312 139.777344 C 112.054688 139.527344 111.109375 138.945312 110.359375 138.5 C 109.640625 138.054688 108.890625 137.554688 108.695312 137.390625 C 108.527344 137.222656 107.972656 136.777344 107.445312 136.390625 C 106.304688 135.554688 102.972656 132.222656 101.609375 130.554688 C 100.472656 129.140625 98.917969 126.140625 98.195312 123.972656 C 97.804688 122.777344 97.75 121.667969 97.832031 117.667969 C 97.890625 114.25 98.027344 112.695312 98.277344 112.445312 C 98.445312 112.277344 98.609375 111.804688 98.609375 111.445312 C 98.609375 110.777344 98.75 110.472656 100 108.082031 C 100.722656 106.667969 100.804688 106.554688 102.5 104.667969 C 104.667969 102.222656 107.027344 100.667969 111.445312 98.777344 C 112 98.527344 112.695312 98.332031 112.972656 98.332031 C 113.25 98.332031 113.640625 98.195312 113.804688 98.027344 C 113.945312 97.890625 114.832031 97.640625 115.722656 97.472656 C 116.609375 97.332031 117.859375 97.109375 118.472656 96.972656 C 119.972656 96.640625 131.972656 96.640625 133.890625 96.972656 Z M 133.890625 96.972656 "/>
<path style=" stroke:none;fill-rule:nonzero;fill:rgb(94.117647%,0%,0%);fill-opacity:1;" d="M 9.640625 105.667969 C 9.054688 106.972656 9.054688 107 7.445312 109.554688 C 6.777344 110.582031 6.140625 111.667969 5.972656 111.917969 C 5.832031 112.167969 5.390625 112.804688 5 113.332031 C 4.277344 114.332031 3.832031 115.027344 3.332031 115.972656 C 3.167969 116.277344 2.804688 116.890625 2.5 117.359375 C 2.195312 117.804688 1.890625 118.390625 1.777344 118.609375 C 1.695312 118.832031 1.445312 119.359375 1.222656 119.777344 C 0.667969 120.777344 0.695312 125.222656 1.25 125.945312 C 1.472656 126.25 1.667969 126.890625 1.667969 127.332031 C 1.667969 127.804688 1.859375 128.445312 2.082031 128.722656 C 2.304688 129.027344 2.5 129.527344 2.5 129.859375 C 2.5 130.195312 2.695312 130.695312 2.917969 131 C 3.140625 131.277344 3.332031 131.804688 3.332031 132.167969 C 3.332031 132.527344 3.472656 133.082031 3.667969 133.417969 C 3.972656 133.972656 4.222656 135.054688 4.640625 137.445312 C 4.804688 138.554688 5.277344 138.917969 5.277344 137.945312 C 5.277344 137.554688 5.472656 136.777344 5.722656 136.195312 C 5.972656 135.609375 6.332031 134.75 6.527344 134.304688 C 6.695312 133.832031 7.25 132.582031 7.75 131.527344 C 8.609375 129.667969 8.890625 129.082031 9.890625 126.722656 C 10.140625 126.167969 10.527344 125.332031 10.722656 124.917969 C 10.945312 124.472656 11.109375 123.832031 11.109375 123.445312 C 11.109375 123.082031 11.304688 122.304688 11.554688 121.695312 C 12.222656 120.027344 11.859375 115 10.777344 110.554688 C 10.609375 109.859375 10.390625 108.222656 10.304688 106.917969 L 10.140625 104.527344 Z M 9.640625 105.667969 "/>
<path style=" stroke:none;fill-rule:nonzero;fill:rgb(94.117647%,0%,0%);fill-opacity:1;" d="M 239.195312 104.445312 C 239.167969 104.527344 239.109375 106.027344 239.054688 107.777344 C 239 109.527344 238.832031 111.332031 238.667969 111.75 C 238.472656 112.195312 238.332031 113.359375 238.332031 114.390625 C 238.304688 115.417969 238.195312 117.195312 238.054688 118.332031 C 237.75 120.722656 238.195312 125.332031 238.804688 126.25 C 239 126.554688 239.167969 127.054688 239.167969 127.390625 C 239.167969 127.722656 239.359375 128.140625 239.582031 128.332031 C 239.804688 128.527344 240 128.832031 240 129.027344 C 240 129.195312 240.304688 129.917969 240.667969 130.582031 C 242.667969 134.167969 244.167969 137.527344 244.167969 138.359375 C 244.167969 140 245.222656 136.777344 245.277344 135 C 245.277344 134.472656 245.472656 133.722656 245.695312 133.332031 C 245.917969 132.945312 246.109375 132.25 246.109375 131.804688 C 246.109375 131.332031 246.304688 130.667969 246.527344 130.277344 C 246.75 129.890625 246.945312 129.195312 246.945312 128.75 C 246.945312 128.277344 247.140625 127.609375 247.359375 127.222656 C 247.582031 126.832031 247.75 126.082031 247.777344 125.527344 C 247.777344 124.972656 247.972656 123.972656 248.195312 123.332031 C 248.945312 121.222656 248.75 119.527344 247.445312 117.222656 C 247.332031 117 247.140625 116.609375 247.027344 116.390625 C 246.945312 116.167969 246.304688 115.25 245.640625 114.390625 C 244.972656 113.527344 244.445312 112.695312 244.445312 112.527344 C 244.445312 112.359375 244.332031 112.222656 244.222656 112.222656 C 243.945312 112.222656 241.945312 109.554688 241.945312 109.167969 C 241.945312 109.027344 241.804688 108.890625 241.667969 108.890625 C 241.5 108.890625 241.25 108.609375 241.109375 108.25 C 240.945312 107.917969 240.554688 107.195312 240.222656 106.667969 C 239.917969 106.140625 239.554688 105.390625 239.417969 105 C 239.304688 104.609375 239.195312 104.359375 239.195312 104.445312 Z M 239.195312 104.445312 "/>
<path style=" stroke:none;fill-rule:nonzero;fill:rgb(94.117647%,0%,0%);fill-opacity:1;" d="M 244.167969 142.109375 C 244.167969 142.554688 243.972656 143.277344 243.75 143.722656 C 243.527344 144.140625 243.332031 144.722656 243.332031 145 C 243.332031 145.277344 243.140625 145.640625 242.917969 145.832031 C 242.695312 146.027344 242.5 146.472656 242.5 146.804688 C 242.5 147.140625 242.304688 147.582031 242.082031 147.777344 C 241.859375 147.972656 241.667969 148.304688 241.667969 148.527344 C 241.667969 148.75 241.5 149.277344 241.277344 149.667969 C 240.277344 151.582031 239.167969 154.082031 239.167969 154.472656 C 239.167969 154.695312 238.972656 155.140625 238.75 155.445312 C 238.527344 155.722656 238.332031 156.277344 238.332031 156.667969 C 238.332031 157.054688 238.140625 157.722656 237.917969 158.167969 C 237.417969 159.109375 237.332031 164.527344 237.804688 165.75 C 237.972656 166.167969 238.195312 167.390625 238.332031 168.472656 C 238.445312 169.527344 238.695312 170.972656 238.890625 171.667969 C 239.082031 172.359375 239.140625 173.609375 239.054688 174.5 C 238.972656 175.390625 239 176.109375 239.109375 176.109375 C 239.222656 176.109375 239.554688 175.554688 239.832031 174.917969 C 240.109375 174.277344 241 172.695312 241.777344 171.445312 C 242.554688 170.167969 243.332031 168.917969 243.472656 168.640625 C 243.640625 168.390625 244.054688 167.75 244.445312 167.222656 C 245.167969 166.222656 245.609375 165.527344 246.109375 164.582031 C 246.277344 164.277344 246.640625 163.640625 246.945312 163.195312 C 247.25 162.722656 247.554688 162.167969 247.640625 161.945312 C 247.722656 161.722656 248 161.167969 248.222656 160.75 C 248.75 159.695312 248.75 155.667969 248.195312 154.722656 C 247.972656 154.332031 247.777344 153.640625 247.777344 153.195312 C 247.777344 152.722656 247.582031 152.109375 247.359375 151.832031 C 247.140625 151.527344 246.945312 151.027344 246.945312 150.695312 C 246.945312 150.359375 246.75 149.859375 246.527344 149.554688 C 246.304688 149.277344 246.109375 148.722656 246.109375 148.332031 C 246.109375 147.945312 245.945312 147.390625 245.722656 147.082031 C 245.527344 146.777344 245.277344 146.027344 245.195312 145.417969 C 244.75 142.195312 244.167969 140.359375 244.167969 142.109375 Z M 244.167969 142.109375 "/>
<path style=" stroke:none;fill-rule:nonzero;fill:rgb(94.117647%,0%,0%);fill-opacity:1;" d="M 4.972656 141.804688 C 4.890625 141.945312 4.667969 142.832031 4.472656 143.75 C 4.304688 144.667969 4.027344 145.917969 3.859375 146.527344 C 3.695312 147.140625 3.472656 148.140625 3.359375 148.75 C 3.25 149.390625 3.054688 150.054688 2.917969 150.277344 C 2.777344 150.5 2.582031 151.167969 2.472656 151.804688 C 2.359375 152.417969 2.140625 153.277344 2 153.75 C 1.554688 155.054688 1.082031 157.472656 0.917969 159.277344 C 0.777344 160.832031 0.972656 161.582031 2 163.332031 C 2.109375 163.554688 2.304688 163.945312 2.417969 164.167969 C 2.527344 164.390625 3.859375 166.277344 5.390625 168.332031 C 8.777344 172.890625 9.472656 174.027344 10.054688 175.832031 C 10.140625 176.054688 10.25 174.554688 10.332031 172.5 C 10.417969 170.445312 10.640625 168.359375 10.804688 167.917969 C 11.027344 167.359375 11.167969 165.027344 11.195312 161.109375 C 11.25 155.832031 11.195312 155.054688 10.777344 154.445312 C 10.5 154.082031 10.277344 153.5 10.277344 153.167969 C 10.277344 152.832031 10.082031 152.417969 9.859375 152.222656 C 9.640625 152.027344 9.445312 151.722656 9.445312 151.527344 C 9.445312 151.359375 9.140625 150.640625 8.777344 149.972656 C 8.390625 149.304688 7.640625 147.804688 7.054688 146.667969 C 6.5 145.527344 5.917969 144.332031 5.75 144.027344 C 5.582031 143.722656 5.390625 143.027344 5.277344 142.5 C 5.195312 141.972656 5.054688 141.640625 4.972656 141.804688 Z M 4.972656 141.804688 "/>
<path style=" stroke:none;fill-rule:nonzero;fill:rgb(94.117647%,0%,0%);fill-opacity:1;" d="M 10.832031 178.082031 C 10.832031 178.277344 11.027344 178.972656 11.25 179.582031 C 11.472656 180.222656 11.640625 181.75 11.667969 183.195312 C 11.667969 184.582031 11.777344 186.695312 11.945312 187.917969 C 12.082031 189.140625 12.332031 191.5 12.472656 193.195312 C 12.777344 196.890625 13.140625 197.972656 14.75 199.609375 C 15.945312 200.859375 20.082031 204.167969 20.417969 204.167969 C 20.75 204.167969 24 206.722656 25.527344 208.167969 C 27.027344 209.582031 27.082031 209.554688 26.445312 207.640625 C 25.527344 204.972656 25.277344 203.945312 25.277344 203.167969 C 25.277344 202.695312 25.082031 201.832031 24.859375 201.304688 C 24.640625 200.75 24.445312 199.804688 24.445312 199.195312 C 24.445312 198.609375 24.25 197.75 24.027344 197.332031 C 23.804688 196.890625 23.609375 196.082031 23.609375 195.554688 C 23.609375 195.027344 23.417969 194.332031 23.195312 194.054688 C 22.972656 193.75 22.777344 193.304688 22.777344 193.082031 C 22.777344 192.832031 22.359375 191.832031 21.890625 190.832031 C 21.195312 189.445312 20 188.027344 16.777344 184.722656 C 14.472656 182.359375 12.167969 179.777344 11.695312 179.027344 C 11.222656 178.277344 10.832031 177.859375 10.832031 178.082031 Z M 10.832031 178.082031 "/>
<path style=" stroke:none;fill-rule:nonzero;fill:rgb(94.117647%,0%,0%);fill-opacity:1;" d="M 238.332031 178 C 238.332031 178.167969 238.167969 178.472656 237.972656 178.667969 C 237.777344 178.859375 237.390625 179.417969 237.082031 179.917969 C 236.582031 180.695312 235.640625 181.777344 231 186.945312 C 229.640625 188.445312 228.25 190.140625 227 191.804688 C 226.890625 191.945312 226.582031 192.582031 226.277344 193.195312 C 226 193.804688 225.582031 194.667969 225.390625 195.082031 C 225.167969 195.527344 225 196.167969 225 196.527344 C 225 196.859375 224.804688 197.695312 224.582031 198.332031 C 224.359375 198.972656 224.167969 200.167969 224.167969 200.972656 C 224.167969 201.75 223.972656 203.027344 223.75 203.777344 C 223.527344 204.527344 223.332031 205.582031 223.332031 206.109375 C 223.332031 206.667969 223.167969 207.332031 222.972656 207.640625 C 222.75 207.945312 222.5 208.640625 222.390625 209.167969 L 222.222656 210.140625 L 223.554688 208.75 C 225.027344 207.25 226.222656 206.195312 227.917969 204.859375 C 228.5 204.390625 229.140625 203.859375 229.332031 203.667969 C 229.527344 203.5 229.75 203.332031 229.804688 203.332031 C 230.445312 203.332031 236.945312 196.890625 236.945312 196.25 C 236.972656 195.945312 237.140625 195.390625 237.359375 195 C 237.667969 194.445312 237.75 192.859375 237.777344 187.472656 C 237.777344 181.945312 237.859375 180.417969 238.222656 179.332031 C 238.472656 178.609375 238.582031 177.945312 238.5 177.859375 C 238.417969 177.75 238.332031 177.832031 238.332031 178 Z M 238.332031 178 "/>
<path style=" stroke:none;fill-rule:nonzero;fill:rgb(94.117647%,0%,0%);fill-opacity:1;" d="M 28.332031 211.472656 C 28.332031 211.527344 28.640625 212.140625 29.027344 212.804688 C 29.417969 213.472656 29.777344 214.222656 29.859375 214.445312 C 29.945312 214.667969 30.222656 215.222656 30.445312 215.640625 C 30.640625 216.082031 30.832031 216.640625 30.832031 216.890625 C 30.832031 217.140625 31.027344 217.609375 31.25 217.890625 C 31.472656 218.195312 31.667969 218.695312 31.667969 219 C 31.667969 219.332031 31.859375 219.832031 32.082031 220.109375 C 32.304688 220.417969 32.5 220.890625 32.5 221.140625 C 32.5 221.417969 32.667969 221.972656 32.890625 222.417969 C 33.109375 222.832031 33.472656 223.640625 33.722656 224.167969 C 35.304688 227.832031 36.417969 229.722656 37.222656 230.082031 C 37.445312 230.195312 38.195312 230.582031 38.859375 230.972656 C 39.527344 231.359375 40.304688 231.667969 40.554688 231.667969 C 40.804688 231.667969 41.25 231.859375 41.554688 232.082031 C 41.832031 232.304688 42.472656 232.5 42.917969 232.5 C 43.390625 232.5 44 232.667969 44.304688 232.890625 C 44.609375 233.082031 45.25 233.332031 45.695312 233.390625 C 46.695312 233.582031 48.167969 234.082031 49.25 234.609375 C 49.695312 234.832031 50.222656 235 50.472656 235 C 50.695312 235 51.195312 235.25 51.582031 235.554688 C 53.195312 236.804688 53.167969 236.082031 51.527344 233.859375 C 50.832031 232.917969 50.277344 232 50.277344 231.777344 C 50.277344 231.554688 50.167969 231.390625 50.027344 231.390625 C 49.890625 231.390625 49.640625 231.054688 49.472656 230.609375 C 49.304688 230.195312 48.917969 229.472656 48.609375 229.027344 C 48.332031 228.554688 47.777344 227.640625 47.445312 226.945312 C 46.527344 225.167969 44.359375 221.972656 43.277344 220.804688 C 41.722656 219.109375 39.195312 217.445312 35.195312 215.417969 C 30.140625 212.859375 30.222656 212.917969 29.332031 212.082031 C 28.640625 211.445312 28.332031 211.25 28.332031 211.472656 Z M 28.332031 211.472656 "/>
<path style=" stroke:none;fill-rule:nonzero;fill:rgb(94.117647%,0%,0%);fill-opacity:1;" d="M 219.859375 212.25 C 219.417969 212.695312 218.945312 213.054688 218.804688 213.054688 C 218.695312 213.054688 218.445312 213.195312 218.25 213.332031 C 217.472656 214.027344 214.917969 215.554688 214.582031 215.554688 C 214.359375 215.554688 214.109375 215.695312 214.027344 215.859375 C 213.917969 216 213.554688 216.25 213.25 216.417969 C 212.917969 216.554688 212.445312 216.777344 212.222656 216.945312 C 212 217.082031 210.804688 217.804688 209.582031 218.527344 C 206.777344 220.167969 206.917969 220.082031 204.890625 222.109375 C 203.222656 223.777344 202.972656 224.082031 202.304688 225.167969 C 201.972656 225.695312 199.390625 230.890625 199.054688 231.667969 C 198.695312 232.5 196.417969 235.859375 195.972656 236.167969 C 195.832031 236.277344 195.777344 236.417969 195.859375 236.5 C 195.945312 236.609375 196.582031 236.359375 197.25 235.972656 C 197.917969 235.582031 198.667969 235.222656 198.890625 235.140625 C 199.109375 235.054688 199.667969 234.777344 200.082031 234.554688 C 200.527344 234.359375 201.082031 234.167969 201.332031 234.167969 C 201.582031 234.167969 202.054688 233.972656 202.332031 233.75 C 202.640625 233.527344 203.140625 233.332031 203.445312 233.332031 C 203.777344 233.332031 204.277344 233.140625 204.554688 232.917969 C 204.859375 232.695312 205.332031 232.5 205.582031 232.5 C 205.859375 232.5 206.417969 232.332031 206.859375 232.109375 C 207.277344 231.890625 208.082031 231.527344 208.609375 231.277344 C 213.472656 229.167969 214.25 228.582031 215.390625 226.25 C 215.804688 225.332031 216.359375 224.222656 216.554688 223.804688 C 216.777344 223.359375 216.945312 222.75 216.945312 222.472656 C 216.945312 222.167969 217.082031 221.640625 217.277344 221.304688 C 217.445312 220.972656 217.695312 220.25 217.804688 219.722656 C 218.054688 218.527344 218.554688 217.054688 219.054688 216.027344 C 219.277344 215.582031 219.445312 215 219.445312 214.722656 C 219.445312 214.445312 219.582031 214.109375 219.722656 214.027344 C 219.890625 213.917969 220.222656 213.390625 220.472656 212.832031 C 220.722656 212.277344 221 211.722656 221.054688 211.582031 C 221.277344 211.140625 220.640625 211.5 219.859375 212.25 Z M 219.859375 212.25 "/>
<path style=" stroke:none;fill-rule:nonzero;fill:rgb(94.117647%,0%,0%);fill-opacity:1;" d="M 55.277344 238.109375 C 55.277344 238.222656 55.527344 238.472656 55.859375 238.667969 C 56.417969 239.027344 59.832031 242.890625 61.667969 245.277344 C 64.332031 248.695312 68.109375 252.5 68.859375 252.5 C 69.167969 252.5 69.972656 252.695312 70.609375 252.890625 C 71.5 253.195312 73.640625 253.332031 78.972656 253.390625 C 82.890625 253.445312 86.109375 253.390625 86.109375 253.304688 C 86.109375 253.222656 85.640625 252.890625 85.082031 252.554688 C 84.5 252.222656 83.417969 251.390625 82.640625 250.667969 C 81.890625 249.972656 80.332031 248.554688 79.195312 247.554688 C 78.054688 246.527344 76.917969 245.5 76.695312 245.277344 C 75.640625 244.277344 72.140625 241.777344 71.390625 241.5 C 71.167969 241.417969 70.609375 241.167969 70.195312 240.945312 C 69.75 240.75 69.054688 240.554688 68.667969 240.554688 C 68.25 240.527344 67.609375 240.359375 67.222656 240.140625 C 66.832031 239.917969 65.832031 239.75 64.972656 239.722656 C 64.109375 239.722656 62.804688 239.527344 62.054688 239.304688 C 61.304688 239.082031 60.140625 238.890625 59.445312 238.890625 C 58.75 238.890625 57.945312 238.722656 57.640625 238.5 C 57 238.054688 55.277344 237.777344 55.277344 238.109375 Z M 55.277344 238.109375 "/>
<path style=" stroke:none;fill-rule:nonzero;fill:rgb(94.117647%,0%,0%);fill-opacity:1;" d="M 193.195312 238.054688 C 192.75 238.167969 192.082031 238.390625 191.75 238.554688 C 191.417969 238.75 190.832031 238.890625 190.472656 238.890625 C 190.082031 238.890625 189.332031 239.082031 188.804688 239.304688 C 188.25 239.527344 187.359375 239.722656 186.859375 239.722656 C 186.332031 239.722656 185.445312 239.917969 184.917969 240.140625 C 184.359375 240.359375 183.359375 240.554688 182.722656 240.554688 C 182.054688 240.582031 181.222656 240.75 180.832031 240.972656 C 180.445312 241.195312 179.777344 241.390625 179.304688 241.390625 C 178.859375 241.390625 178.222656 241.582031 177.945312 241.804688 C 177.640625 242.027344 177.109375 242.222656 176.777344 242.222656 C 176.417969 242.222656 176.082031 242.332031 175.972656 242.472656 C 175.890625 242.640625 175.222656 243.027344 174.5 243.390625 C 173.695312 243.777344 171.695312 245.5 169.167969 247.972656 C 164.945312 252.109375 163.75 253.140625 162.359375 253.777344 C 161.667969 254.082031 161.640625 254.140625 162.109375 254.167969 C 162.445312 254.167969 163.167969 253.972656 163.695312 253.75 C 164.304688 253.5 165.609375 253.332031 167 253.332031 C 168.277344 253.332031 170.109375 253.195312 171.109375 253.054688 C 172.109375 252.917969 174.554688 252.722656 176.527344 252.609375 C 178.667969 252.5 180.445312 252.277344 180.890625 252.054688 C 181.304688 251.832031 181.890625 251.667969 182.167969 251.667969 C 182.804688 251.667969 186.945312 247.640625 186.945312 247.027344 C 186.945312 246.972656 187.5 246.167969 188.195312 245.277344 C 188.890625 244.390625 189.445312 243.554688 189.445312 243.445312 C 189.445312 243.140625 192.5 239.5 193.417969 238.722656 C 194.359375 237.917969 194.332031 237.804688 193.195312 238.054688 Z M 193.195312 238.054688 "/>
<path style=" stroke:none;fill-rule:nonzero;fill:rgb(94.117647%,0%,0%);fill-opacity:1;" d="M 98.054688 253.390625 C 97.304688 253.695312 94.527344 254.082031 91.054688 254.332031 C 89.859375 254.445312 88.890625 254.609375 88.890625 254.75 C 88.890625 254.890625 89.082031 255 89.304688 255 C 89.722656 255 91.109375 255.722656 92.640625 256.695312 C 93.109375 256.972656 93.667969 257.304688 93.890625 257.417969 C 94.109375 257.5 94.75 257.945312 95.304688 258.390625 C 95.859375 258.804688 96.390625 259.167969 96.472656 259.167969 C 96.554688 259.167969 97.417969 259.695312 98.390625 260.332031 C 100.804688 261.945312 100.972656 262.027344 103.25 263.195312 C 105.167969 264.167969 105.390625 264.195312 107.417969 264.082031 C 109.667969 263.972656 111.554688 263.527344 112.832031 262.890625 C 113.222656 262.667969 113.804688 262.5 114.109375 262.5 C 114.417969 262.5 115.027344 262.332031 115.472656 262.109375 C 117.082031 261.332031 117.972656 261.082031 122.359375 260.167969 C 123.445312 259.972656 124 259.777344 123.609375 259.75 C 122.859375 259.722656 120.722656 259.082031 119.167969 258.417969 C 116.859375 257.417969 116.222656 257.140625 115.832031 256.917969 C 115.609375 256.777344 115.222656 256.582031 115 256.5 C 114.777344 256.417969 114.167969 256.167969 113.695312 255.945312 C 113.195312 255.722656 112.304688 255.359375 111.75 255.109375 C 111.167969 254.859375 110.332031 254.472656 109.917969 254.277344 C 109.472656 254.054688 108.859375 253.890625 108.527344 253.890625 C 108.195312 253.859375 107.609375 253.695312 107.222656 253.472656 C 106.390625 253 99.140625 252.917969 98.054688 253.390625 Z M 98.054688 253.390625 "/>
<path style=" stroke:none;fill-rule:nonzero;fill:rgb(94.117647%,0%,0%);fill-opacity:1;" d="M 141.527344 253.5 C 140.777344 253.695312 139.832031 253.890625 139.445312 253.890625 C 139.054688 253.890625 138.5 254.082031 138.222656 254.304688 C 137.917969 254.527344 137.390625 254.722656 137.054688 254.722656 C 136.722656 254.722656 136.304688 254.917969 136.109375 255.140625 C 135.917969 255.359375 135.527344 255.554688 135.25 255.554688 C 134.972656 255.554688 134.667969 255.667969 134.582031 255.832031 C 134.5 255.972656 133.722656 256.445312 132.917969 256.832031 C 132.082031 257.222656 131.332031 257.640625 131.25 257.804688 C 131.140625 257.945312 130.859375 258.054688 130.582031 258.054688 C 130.304688 258.054688 129.917969 258.25 129.722656 258.472656 C 129.527344 258.695312 129.167969 258.890625 128.890625 258.890625 C 128.609375 258.890625 128.027344 259.082031 127.609375 259.304688 C 127.167969 259.527344 126.390625 259.722656 125.859375 259.722656 C 124.472656 259.722656 125 260.027344 126.859375 260.304688 C 130.582031 260.832031 131.75 261.082031 132.027344 261.359375 C 132.195312 261.527344 132.777344 261.667969 133.332031 261.667969 C 133.859375 261.695312 134.609375 261.859375 135 262.082031 C 135.390625 262.304688 136.082031 262.5 136.527344 262.5 C 137 262.5 137.667969 262.695312 138.054688 262.917969 C 138.445312 263.140625 139.195312 263.304688 139.75 263.332031 C 140.304688 263.332031 141.304688 263.527344 141.945312 263.75 C 143.417969 264.277344 145.109375 264.277344 146.054688 263.777344 C 146.472656 263.582031 147.359375 263.109375 148.054688 262.777344 C 148.75 262.417969 150.972656 260.917969 152.972656 259.417969 C 155 257.890625 156.777344 256.667969 156.945312 256.667969 C 157.082031 256.667969 157.222656 256.554688 157.222656 256.445312 C 157.222656 256.304688 157.917969 255.917969 158.75 255.527344 C 159.582031 255.167969 160.277344 254.777344 160.277344 254.667969 C 160.277344 254.582031 159 254.417969 157.445312 254.359375 C 153.109375 254.109375 148.359375 253.695312 146.695312 253.359375 C 144.777344 252.972656 143.25 253 141.527344 253.5 Z M 141.527344 253.5 "/>
</g>
</svg>
